<mxfile host="Electron" agent="Mozilla/5.0 (Windows NT 10.0; Win64; x64) AppleWebKit/537.36 (KHTML, like Gecko) draw.io/24.7.17 Chrome/128.0.6613.36 Electron/32.0.1 Safari/537.36" version="24.7.17">
  <diagram id="7WGsHmx4O6u7uNMd8YlJ" name="Page-1">
    <mxGraphModel dx="2074" dy="1197" grid="1" gridSize="4" guides="1" tooltips="1" connect="1" arrows="1" fold="1" page="1" pageScale="1" pageWidth="1169" pageHeight="827" background="none" math="0" shadow="0">
      <root>
        <mxCell id="0" />
        <mxCell id="1" parent="0" />
        <mxCell id="Mi3nhXwhfbfwphBiqheP-90" value="" style="group" parent="1" vertex="1" connectable="0">
          <mxGeometry x="355" y="189" width="600" height="420" as="geometry" />
        </mxCell>
        <mxCell id="Mi3nhXwhfbfwphBiqheP-76" value="&lt;font style=&quot;font-size: 8px;&quot;&gt;&amp;lt;name: 2024-helm-microservice-deployment&amp;gt;&lt;/font&gt;" style="text;html=1;strokeColor=none;fillColor=none;align=center;verticalAlign=middle;whiteSpace=wrap;rounded=0;dashed=1;fontSize=7;fontStyle=2;fontFamily=Open Sans;" parent="Mi3nhXwhfbfwphBiqheP-90" vertex="1">
          <mxGeometry y="24.814004376367617" width="600" height="9.190371991247265" as="geometry" />
        </mxCell>
        <mxCell id="5" value="" style="rounded=0;whiteSpace=wrap;html=1;dashed=1;fillColor=none;" parent="Mi3nhXwhfbfwphBiqheP-90" vertex="1">
          <mxGeometry y="15.62363238512035" width="600" height="404.3763676148797" as="geometry" />
        </mxCell>
        <mxCell id="6" value="" style="shape=image;verticalLabelPosition=bottom;verticalAlign=top;imageAspect=0;aspect=fixed;image=data:image/svg+xml,PHN2ZyB4bWxucz0iaHR0cDovL3d3dy53My5vcmcvMjAwMC9zdmciIGlkPSJzdmcxMzgyNiIgdmVyc2lvbj0iMS4xIiB2aWV3Qm94PSIwIDAgMTguMDM1MzM0IDE3LjUwMDM3OCIgaGVpZ2h0PSIxNy41MDAzNzhtbSIgd2lkdGg9IjE4LjAzNTMzNG1tIj4mI3hhOyAgPGRlZnMgaWQ9ImRlZnMxMzgyMCIvPiYjeGE7ICAmI3hhOyAgPG1ldGFkYXRhIGlkPSJtZXRhZGF0YTEzODIzIj4mI3hhOyAgICAmI3hhOyAgICAgICYjeGE7ICAgICAgICBpbWFnZS9zdmcreG1sJiN4YTsgICAgICAgICYjeGE7ICAgICAgICAmI3hhOyAgICAgICYjeGE7ICAgICYjeGE7ICA8L21ldGFkYXRhPiYjeGE7ICA8ZyB0cmFuc2Zvcm09InRyYW5zbGF0ZSgtMC45OTI2MjYzOCwtMS4xNzQxODEpIiBpZD0ibGF5ZXIxIj4mI3hhOyAgICA8ZyB0cmFuc2Zvcm09Im1hdHJpeCgxLjAxNDg4ODcsMCwwLDEuMDE0ODg4NywxNi45MDIxNDYsLTIuNjk4NzI2KSIgaWQ9Imc3MCI+JiN4YTsgICAgICA8cGF0aCBzdHlsZT0iZmlsbDojMzI2Y2U1O2ZpbGwtb3BhY2l0eToxO3N0cm9rZTpub25lO3N0cm9rZS13aWR0aDowO3N0cm9rZS1taXRlcmxpbWl0OjQ7c3Ryb2tlLWRhc2hhcnJheTpub25lO3N0cm9rZS1vcGFjaXR5OjEiIGQ9Im0gLTYuODQ5MjAxNSw0LjI3MjQ2NjggYSAxLjExOTEyNTUsMS4xMDk5NjcxIDAgMCAwIC0wLjQyODg4MTgsMC4xMDg1MzAzIGwgLTUuODUyNDAzNywyLjc5NjMzOTQgYSAxLjExOTEyNTUsMS4xMDk5NjcxIDAgMCAwIC0wLjYwNTUyNCwwLjc1Mjk3NTkgbCAtMS40NDM4MjgsNi4yODEyODQ2IGEgMS4xMTkxMjU1LDEuMTA5OTY3MSAwIDAgMCAwLjE1MTk0MywwLjg1MTAyOCAxLjExOTEyNTUsMS4xMDk5NjcxIDAgMCAwIDAuMDYzNjIsMC4wODgzMiBsIDQuMDUwOCw1LjAzNjU1NSBhIDEuMTE5MTI1NSwxLjEwOTk2NzEgMCAwIDAgMC44NzQ5NzksMC40MTc2NTQgbCA2LjQ5NjEwMTEsLTAuMDAxNSBhIDEuMTE5MTI1NSwxLjEwOTk2NzEgMCAwIDAgMC44NzQ5Nzg4LC0wLjQxNjkwNiBMIDEuMzgxODg3MiwxNS4xNDk0NTMgQSAxLjExOTEyNTUsMS4xMDk5NjcxIDAgMCAwIDEuNTk4MTk4NiwxNC4yMTAxMDQgTCAwLjE1MjEyNjU3LDcuOTI4ODE1NCBBIDEuMTE5MTI1NSwxLjEwOTk2NzEgMCAwIDAgLTAuNDUzMzk3OTQsNy4xNzU4Mzk2IEwgLTYuMzA2NTQ5Niw0LjM4MDk5NzEgQSAxLjExOTEyNTUsMS4xMDk5NjcxIDAgMCAwIC02Ljg0OTIwMTUsNC4yNzI0NjY4IFoiIGlkPSJwYXRoMzA1NSIvPiYjeGE7ICAgICAgPHBhdGggdGV4dC1hbmNob3I9InN0YXJ0IiBzdHlsZT0iY29sb3I6IzAwMDAwMDtmb250LXN0eWxlOm5vcm1hbDtmb250LXZhcmlhbnQ6bm9ybWFsO2ZvbnQtd2VpZ2h0Om5vcm1hbDtmb250LXN0cmV0Y2g6bm9ybWFsO2ZvbnQtc2l6ZTptZWRpdW07bGluZS1oZWlnaHQ6bm9ybWFsO2ZvbnQtZmFtaWx5OlNhbnM7LWlua3NjYXBlLWZvbnQtc3BlY2lmaWNhdGlvbjpTYW5zO3RleHQtaW5kZW50OjA7dGV4dC1hbGlnbjpzdGFydDt0ZXh0LWRlY29yYXRpb246bm9uZTt0ZXh0LWRlY29yYXRpb24tbGluZTpub25lO2xldHRlci1zcGFjaW5nOm5vcm1hbDt3b3JkLXNwYWNpbmc6bm9ybWFsO3RleHQtdHJhbnNmb3JtOm5vbmU7d3JpdGluZy1tb2RlOmxyLXRiO2RpcmVjdGlvbjpsdHI7YmFzZWxpbmUtc2hpZnQ6YmFzZWxpbmU7ZGlzcGxheTppbmxpbmU7b3ZlcmZsb3c6dmlzaWJsZTt2aXNpYmlsaXR5OnZpc2libGU7ZmlsbDojZmZmZmZmO2ZpbGwtb3BhY2l0eToxO2ZpbGwtcnVsZTpub256ZXJvO3N0cm9rZTpub25lO3N0cm9rZS13aWR0aDowO3N0cm9rZS1taXRlcmxpbWl0OjQ7c3Ryb2tlLWRhc2hhcnJheTpub25lO21hcmtlcjpub25lO2VuYWJsZS1iYWNrZ3JvdW5kOmFjY3VtdWxhdGUiIGQ9Ik0gLTYuODUyMzQzNSwzLjgxNzYzNzIgQSAxLjE4MTQzMDQsMS4xNzE3NjIgMCAwIDAgLTcuMzA0NDI4NCwzLjkzMjkwNCBsIC02LjE3ODc0MjYsMi45NTEyNzU4IGEgMS4xODE0MzA0LDEuMTcxNzYyIDAgMCAwIC0wLjYzOTIwNiwwLjc5NDg5MSBsIC0xLjUyMzkxNSw2LjYzMDgyODIgYSAxLjE4MTQzMDQsMS4xNzE3NjIgMCAwIDAgMC4xNjAxNzUsMC44OTg5MyAxLjE4MTQzMDQsMS4xNzE3NjIgMCAwIDAgMC4wNjczNiwwLjA5MjgxIGwgNC4yNzYwOTQsNS4zMTcyMzYgYSAxLjE4MTQzMDQsMS4xNzE3NjIgMCAwIDAgMC45MjM2MywwLjQ0MDg1OCBsIDYuODU3NjE4OCwtMC4wMDE1IGEgMS4xODE0MzA0LDEuMTcxNzYyIDAgMCAwIDAuOTIzNjMwOCwtMC40NDAxMSBsIDQuMjc0NTk2NiwtNS4zMTc5ODUgYSAxLjE4MTQzMDQsMS4xNzE3NjIgMCAwIDAgMC4yMjgyODgsLTAuOTkwOTkzIEwgMC41Mzg5NDQzOSw3LjY3NzU3MzggQSAxLjE4MTQzMDQsMS4xNzE3NjIgMCAwIDAgLTAuMTAwMjYxMDEsNi44ODM0MzEzIEwgLTYuMjc5MDAzNywzLjkzMjE1NTUgQSAxLjE4MTQzMDQsMS4xNzE3NjIgMCAwIDAgLTYuODUyMzQzNSwzLjgxNzYzNzIgWiBtIDAuMDAyOTksMC40NTUwNzg5IGEgMS4xMTkxMjU1LDEuMTA5OTY3MSAwIDAgMSAwLjU0MjY1MTcsMC4xMDg1MzAzIGwgNS44NTMxNTE2OSwyLjc5NDg0MjUgQSAxLjExOTEyNTUsMS4xMDk5NjcxIDAgMCAxIDAuMTUxOTc4MTEsNy45MjkwNjQ4IEwgMS41OTgwNTEsMTQuMjEwMzUgYSAxLjExOTEyNTUsMS4xMDk5NjcxIDAgMCAxIC0wLjIxNjMxMjMsMC45MzkzNDggbCAtNC4wNDkzMDMyLDUuMDM3MzA0IGEgMS4xMTkxMjU1LDEuMTA5OTY3MSAwIDAgMSAtMC44NzQ5Nzg5LDAuNDE2OTA2IGwgLTYuNDk2MTAwNiwwLjAwMTUgYSAxLjExOTEyNTUsMS4xMDk5NjcxIDAgMCAxIC0wLjg3NDk3OSwtMC40MTc2NTIgbCAtNC4wNTA4LC01LjAzNjU1NCBhIDEuMTE5MTI1NSwxLjEwOTk2NzEgMCAwIDEgLTAuMDYzNjIsLTAuMDg4MzIgMS4xMTkxMjU1LDEuMTA5OTY3MSAwIDAgMSAtMC4xNTE5NDIsLTAuODUxMDI4IGwgMS40NDM4MjcsLTYuMjgxMjg1MyBhIDEuMTE5MTI1NSwxLjEwOTk2NzEgMCAwIDEgMC42MDU1MjQsLTAuNzUyOTc1OCBsIDUuODUyNDAzNiwtMi43OTYzMzk1IGEgMS4xMTkxMjU1LDEuMTA5OTY3MSAwIDAgMSAwLjQyODg4MTksLTAuMTA4NTMwMyB6IiBpZD0icGF0aDMwNTQtMi05Ii8+JiN4YTsgICAgPC9nPiYjeGE7ICAgIDx0ZXh0IHhtbDpzcGFjZT0icHJlc2VydmUiIHN0eWxlPSJmb250LXN0eWxlOm5vcm1hbDtmb250LXdlaWdodDpub3JtYWw7Zm9udC1zaXplOjEwLjU4MzMzMzAycHg7bGluZS1oZWlnaHQ6Ni42MTQ1ODM0OXB4O2ZvbnQtZmFtaWx5OlNhbnM7bGV0dGVyLXNwYWNpbmc6MHB4O3dvcmQtc3BhY2luZzowcHg7ZmlsbDojZmZmZmZmO2ZpbGwtb3BhY2l0eToxO3N0cm9rZTpub25lO3N0cm9rZS13aWR0aDowLjI2NDU4MzMycHg7c3Ryb2tlLWxpbmVjYXA6YnV0dDtzdHJva2UtbGluZWpvaW46bWl0ZXI7c3Ryb2tlLW9wYWNpdHk6MSIgeD0iOS45NzE3MDgzIiB5PSIxNi44MTE3NzUiIGlkPSJ0ZXh0MjA2NiI+PHRzcGFuIGlkPSJ0c3BhbjIwNjQiIHg9IjkuOTcxNzA4MyIgeT0iMTYuODExNzc1IiB0ZXh0LWFuY2hvcj0ibWlkZGxlIiBzdHlsZT0iZm9udC1zdHlsZTpub3JtYWw7Zm9udC12YXJpYW50Om5vcm1hbDtmb250LXdlaWdodDpub3JtYWw7Zm9udC1zdHJldGNoOm5vcm1hbDtmb250LXNpemU6Mi44MjIyMjIyM3B4O2ZvbnQtZmFtaWx5OkFyaWFsOy1pbmtzY2FwZS1mb250LXNwZWNpZmljYXRpb246J0FyaWFsLCBOb3JtYWwnO3RleHQtYWxpZ246Y2VudGVyO3dyaXRpbmctbW9kZTpsci10YjtmaWxsOiNmZmZmZmY7ZmlsbC1vcGFjaXR5OjE7c3Ryb2tlLXdpZHRoOjAuMjY0NTgzMzJweCI+bnM8L3RzcGFuPjwvdGV4dD4mI3hhOyAgICA8cmVjdCBzdHlsZT0ib3BhY2l0eToxO2ZpbGw6bm9uZTtmaWxsLW9wYWNpdHk6MTtmaWxsLXJ1bGU6bm9uemVybztzdHJva2U6I2ZmZmZmZjtzdHJva2Utd2lkdGg6MC40MDAwMDAwMTtzdHJva2UtbGluZWNhcDpidXR0O3N0cm9rZS1saW5lam9pbjpyb3VuZDtzdHJva2UtbWl0ZXJsaW1pdDoxMDtzdHJva2UtZGFzaGFycmF5OjAuODAwMDAwMDEsIDAuNDtzdHJva2UtZGFzaG9mZnNldDozLjQ0MDAwMDA2O3N0cm9rZS1vcGFjaXR5OjEiIGlkPSJyZWN0ODc5MCIgd2lkdGg9IjcuNjczNTg5MiIgaGVpZ2h0PSI2LjY5MDA3OTIiIHg9IjYuMTczNDk4NiIgeT0iNi4zNjg5NjI4Ii8+JiN4YTsgIDwvZz4mI3hhOzwvc3ZnPg==" parent="Mi3nhXwhfbfwphBiqheP-90" vertex="1">
          <mxGeometry x="16.240601503759397" width="23.500138279427862" height="23.500138279427862" as="geometry" />
        </mxCell>
        <mxCell id="Mi3nhXwhfbfwphBiqheP-75" value="&lt;b&gt;Namespace&lt;/b&gt;" style="text;html=1;strokeColor=none;fillColor=none;align=center;verticalAlign=middle;whiteSpace=wrap;rounded=0;dashed=1;fontSize=8;fontFamily=Open Sans;" parent="Mi3nhXwhfbfwphBiqheP-90" vertex="1">
          <mxGeometry y="15.62363238512035" width="600" height="9.190371991247265" as="geometry" />
        </mxCell>
        <mxCell id="Mi3nhXwhfbfwphBiqheP-92" value="" style="group" parent="1" vertex="1" connectable="0">
          <mxGeometry x="345" y="159" width="620" height="461" as="geometry" />
        </mxCell>
        <mxCell id="2" value="" style="rounded=0;whiteSpace=wrap;html=1;fillColor=none;" parent="Mi3nhXwhfbfwphBiqheP-92" vertex="1">
          <mxGeometry y="13.96" width="620" height="446.04" as="geometry" />
        </mxCell>
        <mxCell id="Mi3nhXwhfbfwphBiqheP-73" value="&lt;b&gt;Kubernetes Cluster&lt;/b&gt;" style="text;html=1;strokeColor=none;fillColor=none;align=center;verticalAlign=middle;whiteSpace=wrap;rounded=0;dashed=1;fontSize=8;fontFamily=Open Sans;" parent="Mi3nhXwhfbfwphBiqheP-92" vertex="1">
          <mxGeometry y="13.96969696969697" width="620" height="9.313131313131311" as="geometry" />
        </mxCell>
        <mxCell id="Mi3nhXwhfbfwphBiqheP-74" value="&lt;font style=&quot;font-size: 8px;&quot;&gt;&amp;lt;host: rancher.localhost&amp;gt;&lt;/font&gt;" style="text;html=1;strokeColor=none;fillColor=none;align=center;verticalAlign=middle;whiteSpace=wrap;rounded=0;dashed=1;fontSize=7;fontStyle=2;fontFamily=Open Sans;" parent="Mi3nhXwhfbfwphBiqheP-92" vertex="1">
          <mxGeometry y="23.28282828282828" width="620" height="9.313131313131311" as="geometry" />
        </mxCell>
        <mxCell id="Mi3nhXwhfbfwphBiqheP-91" value="" style="shape=image;verticalLabelPosition=bottom;verticalAlign=top;imageAspect=0;image=data:image/svg+xml,PHN2ZyB4bWxucz0iaHR0cDovL3d3dy53My5vcmcvMjAwMC9zdmciIHdpZHRoPSIyNTYiIHZpZXdCb3g9IjAgMCAyNTYgMjQ5IiBwcmVzZXJ2ZUFzcGVjdFJhdGlvPSJ4TWlkWU1pZCIgaGVpZ2h0PSIyNDkiPjxwYXRoIGZpbGw9IiMzMjZkZTYiIGQ9Im04Mi4wODUxNjEzIDI0NC45MzQxOTRjLTUuOTQ1ODA2NSAwLTExLjU2MTI5MDMtMi42NDI1ODEtMTUuMzYtNy40MzIyNTlsLTU3LjgwNjQ1MTYyLTcxLjg0NTE2MWMtMy43OTg3MDk2OC00Ljc4OTY3Ny01LjI4NTE2MTI5LTEwLjkwMDY0NS0zLjc5ODcwOTY4LTE2Ljg0NjQ1MWwyMC42NDUxNjEzLTg5LjY4MjU4MTFjMS4zMjEyOTAzLTUuOTQ1ODA2NCA1LjI4NTE2MTMtMTAuNzM1NDgzOCAxMC43MzU0ODM5LTEzLjM3ODA2NDVsODMuNTcxNjEyOC0zOS45NjkwMzIyNGMyLjY0MjU4MS0xLjMyMTI5MDMyIDUuNjE1NDg0LTEuOTgxOTM1NDggOC41ODgzODctMS45ODE5MzU0OHM1Ljk0NTgwNy42NjA2NDUxNiA4LjU4ODM4NyAxLjk4MTkzNTQ4bDgzLjU3MTYxMyAzOS44MDM4NzA5NGM1LjQ1MDMyMyAyLjY0MjU4MDcgOS40MTQxOTQgNy40MzIyNTgxIDEwLjczNTQ4NCAxMy4zNzgwNjQ1bDIwLjY0NTE2MSA4OS42ODI1ODA0YzEuMzIxMjkxIDUuOTQ1ODA3IDAgMTIuMDU2Nzc0LTMuNzk4NzA5IDE2Ljg0NjQ1MmwtNTcuODA2NDUyIDcxLjg0NTE2MWMtMy43OTg3MSA0LjYyNDUxNi05LjQxNDE5NCA3LjQzMjI1OC0xNS4zNiA3LjQzMjI1OHoiLz48ZyBmaWxsPSIjZmZmIj48cGF0aCBkPSJtMTI4LjQ5NTQ4NCA3LjkyNzc0MTk0YzIuMzEyMjU4IDAgNC42MjQ1MTYuNDk1NDgzODcgNi43NzE2MTMgMS40ODY0NTE2MWw4My41NzE2MTMgMzkuODAzODcwOTVjNC4yOTQxOTMgMi4xNDcwOTY4IDcuNTk3NDE5IDYuMTEwOTY3OCA4LjU4ODM4NyAxMC43MzU0ODM5bDIwLjY0NTE2MSA4OS42ODI1ODA2YzEuMTU2MTI5IDQuNzg5Njc3IDAgOS43NDQ1MTYtMy4xMzgwNjQgMTMuNTQzMjI2bC01Ny44MDY0NTIgNzEuODQ1MTYxYy0yLjk3MjkwMyAzLjc5ODcxLTcuNTk3NDE5IDUuOTQ1ODA3LTEyLjM4NzA5NyA1Ljk0NTgwN2gtOTIuNjU1NDgzN2MtNC43ODk2Nzc0IDAtOS40MTQxOTM2LTIuMTQ3MDk3LTEyLjM4NzA5NjgtNS45NDU4MDdsLTU3LjgwNjQ1MTYtNzEuODQ1MTYxYy0yLjk3MjkwMzIyLTMuNzk4NzEtNC4xMjkwMzIyNS04Ljc1MzU0OS0zLjEzODA2NDUxLTEzLjU0MzIyNmwyMC42NDUxNjEzMS04OS42ODI1ODA2YzEuMTU2MTI5LTQuNzg5Njc3NCA0LjI5NDE5MzUtOC43NTM1NDg0IDguNTg4Mzg3MS0xMC43MzU0ODM5bDgzLjU3MTYxMzItMzkuOTY5MDMyMjRjMi4xNDcwOTYtLjgyNTgwNjQ1IDQuNjI0NTE2LTEuMzIxMjkwMzIgNi45MzY3NzQtMS4zMjEyOTAzMnptMC03Ljc2MjU4MDY1Yy0zLjQ2ODM4NyAwLTYuOTM2Nzc0LjgyNTgwNjQ1LTEwLjI0IDIuMzEyMjU4MDZsLTgzLjU3MTYxMyAzOS45NjkwMzIyNWMtNi42MDY0NTE2IDMuMTM4MDY0NS0xMS4yMzA5Njc4IDguOTE4NzA5Ny0xMi44ODI1ODA3IDE2LjAyMDY0NTJsLTIwLjY0NTE2MTI3IDg5LjY4MjU4MDJjLTEuNjUxNjEyOSA3LjEwMTkzNiAwIDE0LjM2OTAzMyA0LjYyNDUxNjEzIDIwLjE0OTY3OGw1Ny44MDY0NTE2NCA3MS44NDUxNjFjNC40NTkzNTQ4IDUuNjE1NDg0IDExLjIzMDk2NzcgOC43NTM1NDkgMTguMzMyOTAzMiA4Ljc1MzU0OWg5Mi42NTU0ODRjNy4xMDE5MzUgMCAxMy44NzM1NDgtMy4xMzgwNjUgMTguMzMyOTAzLTguNzUzNTQ5bDU3LjgwNjQ1Mi03MS44NDUxNjFjNC42MjQ1MTYtNS42MTU0ODQgNi4yNzYxMjktMTMuMDQ3NzQyIDQuNjI0NTE2LTIwLjE0OTY3OGwtMjAuNjQ1MTYxLTg5LjY4MjU4MDJjLTEuNjUxNjEzLTcuMTAxOTM1NS02LjI3NjEyOS0xMi44ODI1ODA3LTEyLjg4MjU4MS0xNi4wMjA2NDUybC04My4yNDEyOS0zOS45NjkwMzIyNWMtMy4xMzgwNjUtMS40ODY0NTE2MS02LjYwNjQ1Mi0yLjMxMjI1ODA2LTEwLjA3NDgzOS0yLjMxMjI1ODA2eiIvPjxwYXRoIGQ9Im0yMTIuMjMyMjU4IDE0Mi41MzQxOTRjLS4xNjUxNjEgMC0uMTY1MTYxIDAgMCAwaC0uMTY1MTYxYy0uMTY1MTYyIDAtLjMzMDMyMyAwLS4zMzAzMjMtLjE2NTE2Mi0uMzMwMzIyIDAtLjY2MDY0NS0uMTY1MTYxLS45OTA5NjgtLjE2NTE2MS0xLjE1NjEyOS0uMTY1MTYxLTIuMTQ3MDk2LS4zMzAzMjMtMy4xMzgwNjQtLjMzMDMyMy0uNDk1NDg0IDAtLjk5MDk2OCAwLTEuNjUxNjEzLS4xNjUxNjFoLS4xNjUxNjFjLTMuNDY4Mzg3LS4zMzAzMjItNi4yNzYxMjktLjY2MDY0NS04LjkxODcxLTEuNDg2NDUyLTEuMTU2MTI5LS40OTU0ODMtMS40ODY0NTItMS4xNTYxMjktMS44MTY3NzQtMS44MTY3NzQgMC0uMTY1MTYxLS4xNjUxNjEtLjE2NTE2MS0uMTY1MTYxLS4zMzAzMjJsLTIuMTQ3MDk3LS42NjA2NDVjLjk5MDk2OC03LjU5NzQyLjY2MDY0NS0xNS41MjUxNjItMS4xNTYxMjktMjMuMjg3NzQyLTEuODE2Nzc0LTcuNzYyNTgxLTQuOTU0ODM5LTE1LjAyOTY3NzgtOS4yNDkwMzItMjEuNjM2MTI5NGwxLjY1MTYxMi0xLjQ4NjQ1MTZ2LS4zMzAzMjI2YzAtLjgyNTgwNjUuMTY1MTYyLTEuNjUxNjEyOS44MjU4MDctMi40Nzc0MTk0IDEuOTgxOTM1LTEuODE2Nzc0MiA0LjQ1OTM1NS0zLjMwMzIyNTggNy40MzIyNTgtNS4xMi40OTU0ODQtLjMzMDMyMjUuOTkwOTY4LS40OTU0ODM4IDEuNDg2NDUyLS44MjU4MDY0Ljk5MDk2Ny0uNDk1NDgzOSAxLjgxNjc3NC0uOTkwOTY3OCAyLjgwNzc0MS0xLjY1MTYxMjkuMTY1MTYyLS4xNjUxNjEzLjQ5NTQ4NC0uMzMwMzIyNi44MjU4MDctLjY2MDY0NTIuMTY1MTYxLS4xNjUxNjEzLjMzMDMyMy0uMTY1MTYxMy4zMzAzMjMtLjMzMDMyMjYgMi4zMTIyNTgtMS45ODE5MzU0IDIuODA3NzQxLTUuMjg1MTYxMyAxLjE1NjEyOS03LjQzMjI1OC0uODI1ODA3LTEuMTU2MTI5MS0yLjMxMjI1OS0xLjgxNjc3NDItMy43OTg3MS0xLjgxNjc3NDItMS4zMjEyOSAwLTIuNDc3NDE5LjQ5NTQ4MzgtMy42MzM1NDkgMS4zMjEyOTAzLS4xNjUxNjEuMTY1MTYxMy0uMTY1MTYxLjE2NTE2MTMtLjMzMDMyMi4zMzAzMjI2LS4zMzAzMjMuMTY1MTYxMy0uNDk1NDg0LjQ5NTQ4MzktLjgyNTgwNy42NjA2NDUxLS44MjU4MDYuODI1ODA2NS0xLjQ4NjQ1MSAxLjQ4NjQ1MTctMi4xNDcwOTYgMi4zMTIyNTgxLS4zMzAzMjMuMzMwMzIyNi0uNjYwNjQ1LjgyNTgwNjUtMS4xNTYxMjkgMS4xNTYxMjktMi4zMTIyNTggMi40Nzc0MTk0LTQuNDU5MzU1IDQuNDU5MzU0OS02LjYwNjQ1MiA1Ljk0NTgwNjUtLjQ5NTQ4NC4zMzAzMjI2LS45OTA5NjguNDk1NDgzOS0xLjQ4NjQ1Mi40OTU0ODM5LS4zMzAzMjIgMC0uNjYwNjQ1IDAtLjk5MDk2Ny0uMTY1MTYxM2gtLjMzMDMyM2wtMS45ODE5MzUgMS4zMjEyOTAzYy0yLjE0NzA5Ny0yLjMxMjI1ODEtNC40NTkzNTUtNC4yOTQxOTM2LTYuNzcxNjEzLTYuMjc2MTI5LTkuOTA5Njc4LTcuNzYyNTgwNy0yMS45NjY0NTItMTIuNTUyMjU4MS0zNC41MTg3MS0xMy43MDgzODcxbC0uMTY1MTYxLTIuMTQ3MDk2OGMtLjE2NTE2Mi0uMTY1MTYxMy0uMTY1MTYyLS4xNjUxNjEzLS4zMzAzMjMtLjMzMDMyMjYtLjQ5NTQ4NC0uNDk1NDgzOS0xLjE1NjEyOS0uOTkwOTY3Ny0xLjMyMTI5LTIuMTQ3MDk2OC0uMTY1MTYxLTIuNjQyNTgwNi4xNjUxNjEtNS42MTU0ODM4LjQ5NTQ4NC04LjkxODcwOTZ2LS4xNjUxNjEzYzAtLjQ5NTQ4MzkuMTY1MTYxLTEuMTU2MTI5MS4zMzAzMjItMS42NTE2MTI5LjE2NTE2Mi0uOTkwOTY3OC4zMzAzMjMtMS45ODE5MzU1LjQ5NTQ4NC0zLjEzODA2NDZ2LS45OTA5Njc3LS40OTU0ODM5YzAtMi45NzI5MDMyLTIuMzEyMjU4LTUuNDUwMzIyNS01LjEyLTUuNDUwMzIyNS0xLjMyMTI5IDAtMi42NDI1OC42NjA2NDUxLTMuNjMzNTQ4IDEuNjUxNjEyOS0uOTkwOTY4Ljk5MDk2NzctMS40ODY0NTIgMi4zMTIyNTgtMS40ODY0NTIgMy43OTg3MDk2di4zMzAzMjI2Ljk5MDk2NzhjMCAxLjE1NjEyOS4xNjUxNjEgMi4xNDcwOTY3LjQ5NTQ4NCAzLjEzODA2NDUuMTY1MTYxLjQ5NTQ4MzguMTY1MTYxLjk5MDk2NzcuMzMwMzIzIDEuNjUxNjEyOXYuMTY1MTYxM2MuMzMwMzIyIDMuMzAzMjI1OC44MjU4MDYgNi4yNzYxMjkuNDk1NDgzIDguOTE4NzA5Ni0uMTY1MTYxIDEuMTU2MTI5MS0uODI1ODA2IDEuNjUxNjEyOS0xLjMyMTI5IDIuMTQ3MDk2OC0uMTY1MTYxLjE2NTE2MTMtLjE2NTE2MS4xNjUxNjEzLS4zMzAzMjIuMzMwMzIyNmwtLjE2NTE2MiAyLjE0NzA5NjhjLTIuOTcyOTAzLjMzMDMyMjYtNS45NDU4MDYuNjYwNjQ1MS04LjkxODcwOSAxLjMyMTI5MDMtMTIuNzE3NDIgMi44MDc3NDE5LTIzLjk0ODM4NzUgOS4yNDkwMzIzLTMyLjcwMTkzNTkgMTguNDk4MDY0NWwtMS42NTE2MTI5LTEuMTU2MTI5aC0uMzMwMzIyNmMtLjMzMDMyMjUgMC0uNjYwNjQ1MS4xNjUxNjEzLS45OTA5Njc3LjE2NTE2MTMtLjQ5NTQ4MzkgMC0uOTkwOTY3Ny0uMTY1MTYxMy0xLjQ4NjQ1MTYtLjQ5NTQ4MzktMi4xNDcwOTY4LTEuNDg2NDUxNi00LjI5NDE5MzYtMy42MzM1NDg0LTYuNjA2NDUxNi02LjExMDk2NzctLjMzMDMyMjYtLjMzMDMyMjYtLjY2MDY0NTItLjgyNTgwNjUtMS4xNTYxMjkxLTEuMTU2MTI5MS0uNjYwNjQ1MS0uODI1ODA2NC0xLjMyMTI5MDMtMS40ODY0NTE2LTIuMTQ3MDk2Ny0yLjMxMjI1OC0uMTY1MTYxMy0uMTY1MTYxMy0uNDk1NDgzOS0uMzMwMzIyNi0uODI1ODA2NS0uNjYwNjQ1Mi0uMTY1MTYxMy0uMTY1MTYxMy0uMzMwMzIyNi0uMTY1MTYxMy0uMzMwMzIyNi0uMzMwMzIyNi0uOTkwOTY3Ny0uODI1ODA2NC0yLjMxMjI1OC0xLjMyMTI5MDMtMy42MzM1NDgzLTEuMzIxMjkwMy0xLjQ4NjQ1MTcgMC0yLjk3MjkwMzMuNjYwNjQ1Mi0zLjc5ODcwOTcgMS44MTY3NzQyLTEuNjUxNjEyOSAyLjE0NzA5NjgtMS4xNTYxMjkxIDUuNDUwMzIyNiAxLjE1NjEyOSA3LjQzMjI1ODEuMTY1MTYxMyAwIC4xNjUxNjEzLjE2NTE2MTIuMzMwMzIyNi4xNjUxNjEyLjMzMDMyMjYuMTY1MTYxMy40OTU0ODM5LjQ5NTQ4MzkuODI1ODA2NC42NjA2NDUyLjk5MDk2NzguNjYwNjQ1MiAxLjgxNjc3NDIgMS4xNTYxMjkgMi44MDc3NDIgMS42NTE2MTI5LjQ5NTQ4MzguMTY1MTYxMy45OTA5Njc3LjQ5NTQ4MzkgMS40ODY0NTE2LjgyNTgwNjUgMi45NzI5MDMyIDEuODE2Nzc0MiA1LjQ1MDMyMjYgMy4zMDMyMjU4IDcuNDMyMjU4MSA1LjEyLjgyNTgwNjQuODI1ODA2NC44MjU4MDY0IDEuNjUxNjEyOS44MjU4MDY0IDIuNDc3NDE5M3YuMzMwMzIyNmwxLjY1MTYxMjkgMS40ODY0NTE2Yy0uMzMwMzIyNi40OTU0ODM5LS42NjA2NDUyLjgyNTgwNjUtLjgyNTgwNjQgMS4zMjEyOTAzLTguMjU4MDY0NiAxMy4wNDc3NDItMTEuMzk2MTI5MSAyOC40MDc3NDItOS4yNDkwMzIzIDQzLjYwMjU4MWwtMi4xNDcwOTY4LjY2MDY0NWMwIC4xNjUxNjEtLjE2NTE2MTMuMTY1MTYxLS4xNjUxNjEzLjMzMDMyMi0uMzMwMzIyNS42NjA2NDYtLjgyNTgwNjQgMS4zMjEyOTEtMS44MTY3NzQyIDEuODE2Nzc1LTIuNDc3NDE5My44MjU4MDYtNS40NTAzMjI1IDEuMTU2MTI5LTguOTE4NzA5NiAxLjQ4NjQ1MWgtLjE2NTE2MTNjLS40OTU0ODM5IDAtMS4xNTYxMjkxIDAtMS42NTE2MTI5LjE2NTE2Mi0uOTkwOTY3OCAwLTEuOTgxOTM1NS4xNjUxNjEtMy4xMzgwNjQ1LjMzMDMyMi0uMzMwMzIyNiAwLS42NjA2NDUyLjE2NTE2MS0uOTkwOTY3OC4xNjUxNjEtLjE2NTE2MTMgMC0uMzMwMzIyNiAwLS40OTU0ODM5LjE2NTE2Mi0yLjk3MjkwMzIuNjYwNjQ1LTQuNzg5Njc3NCAzLjQ2ODM4Ny00LjI5NDE5MzUgNi4xMTA5NjcuNDk1NDgzOSAyLjMxMjI1OCAyLjY0MjU4MDYgMy43OTg3MSA1LjI4NTE2MTMgMy43OTg3MS40OTU0ODM5IDAgLjgyNTgwNjQgMCAxLjMyMTI5MDMtLjE2NTE2MS4xNjUxNjEzIDAgLjMzMDMyMjYgMCAuMzMwMzIyNi0uMTY1MTYxLjMzMDMyMjYgMCAuNjYwNjQ1MS0uMTY1MTYyLjk5MDk2NzctLjE2NTE2MiAxLjE1NjEyOTEtLjMzMDMyMiAxLjk4MTkzNTUtLjY2MDY0NSAyLjk3MjkwMzMtMS4xNTYxMjkuNDk1NDgzOC0uMTY1MTYxLjk5MDk2NzctLjQ5NTQ4NCAxLjQ4NjQ1MTYtLjY2MDY0NWguMTY1MTYxM2MzLjEzODA2NDUtMS4xNTYxMjkgNS45NDU4MDY0LTIuMTQ3MDk3IDguNTg4Mzg3MS0yLjQ3NzQxOWguMzMwMzIyNWMuOTkwOTY3OCAwIDEuNjUxNjEyOS40OTU0ODQgMi4xNDcwOTY4LjgyNTgwNi4xNjUxNjEzIDAgLjE2NTE2MTMuMTY1MTYxLjMzMDMyMjYuMTY1MTYxbDIuMzEyMjU4MS0uMzMwMzIyYzMuOTYzODcwOSAxMi4yMjE5MzUgMTEuNTYxMjkwMyAyMy4xMjI1OCAyMS42MzYxMjkgMzEuMDUwMzIyIDIuMzEyMjU4IDEuODE2Nzc1IDQuNjI0NTE2MSAzLjMwMzIyNiA3LjEwMTkzNTUgNC43ODk2NzhsLS45OTA5Njc4IDIuMTQ3MDk3YzAgLjE2NTE2MS4xNjUxNjEzLjE2NTE2MS4xNjUxNjEzLjMzMDMyMi4zMzAzMjI2LjY2MDY0NS42NjA2NDUyIDEuNDg2NDUyLjMzMDMyMjYgMi42NDI1ODEtLjk5MDk2NzcgMi40Nzc0MTktMi40Nzc0MTk0IDQuOTU0ODM5LTQuMjk0MTkzNiA3Ljc2MjU4di4xNjUxNjJjLS4zMzAzMjI1LjQ5NTQ4NC0uNjYwNjQ1MS44MjU4MDYtLjk5MDk2NzcgMS4zMjEyOS0uNjYwNjQ1Mi44MjU4MDctMS4xNTYxMjkgMS42NTE2MTMtMS44MTY3NzQyIDIuNjQyNTgxLS4xNjUxNjEzLjE2NTE2MS0uMzMwMzIyNi40OTU0ODQtLjQ5NTQ4MzkuODI1ODA2IDAgLjE2NTE2MS0uMTY1MTYxMi4zMzAzMjMtLjE2NTE2MTIuMzMwMzIzLTEuMzIxMjkwNCAyLjgwNzc0Mi0uMzMwMzIyNiA1Ljk0NTgwNiAyLjE0NzA5NjcgNy4xMDE5MzUuNjYwNjQ1Mi4zMzAzMjMgMS4zMjEyOTAzLjQ5NTQ4NCAxLjk4MTkzNTUuNDk1NDg0IDEuOTgxOTM1NSAwIDMuOTYzODcxLTEuMzIxMjkgNC45NTQ4Mzg3LTMuMTM4MDY0IDAtLjE2NTE2Mi4xNjUxNjEzLS4zMzAzMjMuMTY1MTYxMy0uMzMwMzIzLjE2NTE2MTMtLjMzMDMyMy4zMzAzMjI2LS42NjA2NDUuNDk1NDgzOS0uODI1ODA2LjQ5NTQ4MzktMS4xNTYxMjkuNjYwNjQ1MS0xLjk4MTkzNi45OTA5Njc3LTIuOTcyOTA0LjE2NTE2MTMtLjQ5NTQ4NC4zMzAzMjI2LS45OTA5NjcuNDk1NDgzOS0xLjQ4NjQ1MSAxLjE1NjEyODgtMy4zMDMyMjYgMS45ODE5MzU4LTUuOTQ1ODA3IDMuNDY4Mzg2OC04LjI1ODA2NS42NjA2NDUtLjk5MDk2OCAxLjQ4NjQ1Mi0xLjE1NjEyOSAyLjE0NzA5Ny0xLjQ4NjQ1MS4xNjUxNjEgMCAuMTY1MTYxIDAgLjMzMDMyMy0uMTY1MTYybDEuMTU2MTI5LTIuMTQ3MDk2YzcuMjY3MDk2IDIuODA3NzQxIDE1LjE5NDgzOCA0LjI5NDE5MyAyMy4xMjI1OCA0LjI5NDE5MyA0Ljc4OTY3OCAwIDkuNzQ0NTE2LS40OTU0ODQgMTQuMzY5MDMzLTEuNjUxNjEzIDIuOTcyOTAzLS42NjA2NDUgNS43ODA2NDUtMS40ODY0NTEgOC41ODgzODctMi40Nzc0MTlsLjk5MDk2NyAxLjgxNjc3NGMuMTY1MTYyIDAgLjE2NTE2MiAwIC4zMzAzMjMuMTY1MTYxLjgyNTgwNi4xNjUxNjIgMS40ODY0NTIuNDk1NDg0IDIuMTQ3MDk3IDEuNDg2NDUyIDEuMzIxMjkgMi4zMTIyNTggMi4zMTIyNTggNS4xMiAzLjQ2ODM4NyA4LjI1ODA2NHYuMTY1MTYyYy4xNjUxNjEuNDk1NDg0LjMzMDMyMi45OTA5NjcuNDk1NDg0IDEuNDg2NDUxLjMzMDMyMi45OTA5NjguNDk1NDg0IDEuOTgxOTM2Ljk5MDk2NyAyLjk3MjkwNC4xNjUxNjIuMzMwMzIyLjMzMDMyMy40OTU0ODMuNDk1NDg0LjgyNTgwNiAwIC4xNjUxNjEuMTY1MTYyLjMzMDMyMy4xNjUxNjIuMzMwMzIzLjk5MDk2NyAxLjk4MTkzNSAyLjk3MjkwMyAzLjEzODA2NCA0Ljk1NDgzOCAzLjEzODA2NC42NjA2NDYgMCAxLjMyMTI5MS0uMTY1MTYxIDEuOTgxOTM2LS40OTU0ODQgMS4xNTYxMjktLjY2MDY0NSAyLjE0NzA5Ny0xLjY1MTYxMyAyLjQ3NzQxOS0yLjk3MjkwMy4zMzAzMjMtMS4zMjEyOS4zMzAzMjMtMi44MDc3NDItLjMzMDMyMi00LjEyOTAzMiAwLS4xNjUxNjItLjE2NTE2Mi0uMTY1MTYyLS4xNjUxNjItLjMzMDMyMy0uMTY1MTYxLS4zMzAzMjItLjMzMDMyMi0uNjYwNjQ1LS40OTU0ODQtLjgyNTgwNi0uNDk1NDgzLS45OTA5NjgtMS4xNTYxMjktMS44MTY3NzQtMS44MTY3NzQtMi42NDI1ODEtLjMzMDMyMi0uNDk1NDg0LS42NjA2NDUtLjgyNTgwNi0uOTkwOTY3LTEuMzIxMjl2LS4xNjUxNjJjLTEuODE2Nzc1LTIuODA3NzQxLTMuNDY4Mzg4LTUuMjg1MTYxLTQuMjk0MTk0LTcuNzYyNTgtLjMzMDMyMy0xLjE1NjEyOSAwLTEuODE2Nzc0LjE2NTE2MS0yLjY0MjU4MSAwLS4xNjUxNjEuMTY1MTYyLS4xNjUxNjEuMTY1MTYyLS4zMzAzMjJsLS44MjU4MDctMS45ODE5MzZjOC43NTM1NDgtNS4xMiAxNi4xODU4MDctMTIuMzg3MDk3IDIxLjgwMTI5LTIxLjMwNTgwNiAyLjk3MjkwNC00LjYyNDUxNiA1LjI4NTE2Mi05Ljc0NDUxNiA2LjkzNjc3NS0xNC44NjQ1MTZsMS45ODE5MzUuMzMwMzIyYy4xNjUxNjEgMCAuMTY1MTYxLS4xNjUxNjEuMzMwMzIzLS4xNjUxNjEuNjYwNjQ1LS4zMzAzMjMgMS4xNTYxMjktLjgyNTgwNyAyLjE0NzA5Ni0uODI1ODA3aC4zMzAzMjNjMi42NDI1ODEuMzMwMzIzIDUuNDUwMzIzIDEuMzIxMjkxIDguNTg4Mzg3IDIuNDc3NDJoLjE2NTE2MWMuNDk1NDg0LjE2NTE2MS45OTA5NjguNDk1NDg0IDEuNDg2NDUyLjY2MDY0NS45OTA5NjguNDk1NDg0IDEuODE2Nzc0LjgyNTgwNiAyLjk3MjkwMyAxLjE1NjEyOS4zMzAzMjMgMCAuNjYwNjQ1LjE2NTE2MS45OTA5NjguMTY1MTYxLjE2NTE2MSAwIC4zMzAzMjMgMCAuNDk1NDg0LjE2NTE2Mi40OTU0ODQuMTY1MTYxLjgyNTgwNi4xNjUxNjEgMS4zMjEyOS4xNjUxNjEgMi40Nzc0MiAwIDQuNjI0NTE2LTEuNjUxNjEzIDUuMjg1MTYxLTMuNzk4NzEgMC0xLjk4MTkzNS0xLjgxNjc3NC00LjYyNDUxNi00Ljc4OTY3Ny01LjQ1MDMyMnptLTc2LjQ2OTY3Ny04LjA5MjkwNC03LjI2NzA5NyAzLjQ2ODM4Ny03LjI2NzA5Ny0zLjQ2ODM4Ny0xLjgxNjc3NC03Ljc2MjU4IDQuOTU0ODM5LTYuMjc2MTI5aDguMDkyOTAzbDQuOTU0ODM5IDYuMjc2MTI5em00My4xMDcwOTYtMTcuMTc2Nzc0YzEuMzIxMjkxIDUuNjE1NDg0IDEuNjUxNjEzIDExLjIzMDk2OCAxLjE1NjEyOSAxNi42ODEyOWwtMjUuMjY5Njc3LTcuMjY3MDk2Yy0yLjMxMjI1OC0uNjYwNjQ1LTMuNjMzNTQ4LTIuOTcyOTA0LTMuMTM4MDY0LTUuMjg1MTYyLjE2NTE2MS0uNjYwNjQ1LjQ5NTQ4My0xLjMyMTI5Ljk5MDk2Ny0xLjgxNjc3NGwxOS45ODQ1MTYtMTguMDAyNThjMi44MDc3NDIgNC42MjQ1MTYgNC45NTQ4MzkgOS45MDk2NzcgNi4yNzYxMjkgMTUuNjkwMzIyem0tMTQuMjAzODcxLTI1LjU5OTk5OTktMjEuNjM2MTI5IDE1LjM1OTk5OTljLTEuODE2Nzc0IDEuMTU2MTI5LTQuMjk0MTkzLjgyNTgwNy01Ljc4MDY0NS0uOTkwOTY4LS40OTU0ODQtLjQ5NTQ4My0uNjYwNjQ1LTEuMTU2MTI5LS44MjU4MDYtMS44MTY3NzRsLTEuNDg2NDUyLTI2LjkyMTI5MDFjMTEuMzk2MTI5IDEuMzIxMjkwMyAyMS44MDEyOTEgNi40NDEyOTAzIDI5LjcyOTAzMiAxNC4zNjkwMzIyem0tNDcuODk2Nzc0LTEzLjU0MzIyNThjMS44MTY3NzQtLjMzMDMyMjYgMy40NjgzODctLjY2MDY0NTEgNS4yODUxNjItLjk5MDk2NzdsLTEuNDg2NDUyIDI2LjQyNTgwNjRjLS4xNjUxNjEgMi4zMTIyNTgtMS45ODE5MzYgNC4yOTQxOTQtNC40NTkzNTUgNC4yOTQxOTQtLjY2MDY0NSAwLTEuNDg2NDUyLS4xNjUxNjItMS45ODE5MzUtLjQ5NTQ4NGwtMjEuOTY2NDUyLTE1LjY5MDMyMjljNi43NzE2MTI5LTYuNzcxNjEyOSAxNS4xOTQ4MzktMTEuMzk2MTI5IDI0LjYwOTAzMi0xMy41NDMyMjU4em0tMzIuNTM2NzczOSAyMy40NTI5MDM3IDE5LjY1NDE5MzkgMTcuNTA3MDk2YzEuODE2Nzc0IDEuNDg2NDUyIDEuOTgxOTM1IDQuMjk0MTk0LjQ5NTQ4MyA2LjExMDk2OC0uNDk1NDgzLjY2MDY0NS0xLjE1NjEyOSAxLjE1NjEyOS0xLjk4MTkzNSAxLjMyMTI5bC0yNS42IDcuNDMyMjU4Yy0uOTkwOTY3Ny0xMS4yMzA5NjcgMS40ODY0NTE2LTIyLjYyNzA5NiA3LjQzMjI1ODEtMzIuMzcxNjEyem0tNC40NTkzNTQ5IDQ0Ljc1ODcwOSAyNi4yNjA2NDQ4LTQuNDU5MzU1YzIuMTQ3MDk3LS4xNjUxNjEgNC4xMjkwMzMgMS4zMjEyOTEgNC42MjQ1MTcgMy40NjgzODcuMTY1MTYxLjk5MDk2OC4xNjUxNjEgMS44MTY3NzUtLjE2NTE2MiAyLjY0MjU4MWwtMTAuMDc0ODM4IDI0LjI3ODcxYy05LjI0OTAzMjctNS45NDU4MDctMTYuNjgxMjkwOC0xNS4wMjk2NzgtMjAuNjQ1MTYxOC0yNS45MzAzMjN6bTYwLjI4Mzg3MDggMzIuODY3MDk3Yy0zLjc5ODcwOS44MjU4MDYtNy41OTc0MTkgMS4zMjEyOS0xMS41NjEyOSAxLjMyMTI5LTUuNzgwNjQ1IDAtMTEuMzk2MTI5LS45OTA5NjctMTYuNjgxMjktMi42NDI1OGwxMy4wNDc3NDEtMjMuNjE4MDY1YzEuMzIxMjkxLTEuNDg2NDUxIDMuNDY4Mzg4LTIuMTQ3MDk3IDUuMjg1MTYyLTEuMTU2MTI5LjgyNTgwNi40OTU0ODQgMS40ODY0NTEgMS4xNTYxMjkgMS45ODE5MzUgMS44MTY3NzRsMTIuNzE3NDIgMjIuOTU3NDJjLTEuNDg2NDUyLjQ5NTQ4NC0zLjEzODA2NS44MjU4MDYtNC43ODk2NzggMS4zMjEyOXptMzIuMjA2NDUyLTIyLjk1NzQxOWMtNC4xMjkwMzIgNi42MDY0NTEtOS41NzkzNTUgMTEuODkxNjEzLTE1Ljg1NTQ4NCAxNi4wMjA2NDVsLTEwLjQwNTE2MS0yNC45MzkzNTVjLS40OTU0ODQtMS45ODE5MzYuMzMwMzIyLTQuMTI5MDMyIDIuMzEyMjU4LTUuMTIuNjYwNjQ1LS4zMzAzMjMgMS40ODY0NTEtLjQ5NTQ4NCAyLjMxMjI1OC0uNDk1NDg0bDI2LjQyNTgwNiA0LjQ1OTM1NWMtLjk5MDk2OCAzLjYzMzU0OC0yLjY0MjU4IDYuOTM2Nzc0LTQuNzg5Njc3IDEwLjA3NDgzOXoiLz48L2c+PC9zdmc+;rounded=0;" parent="Mi3nhXwhfbfwphBiqheP-92" vertex="1">
          <mxGeometry x="577" y="5.21" width="22.93" height="20.79" as="geometry" />
        </mxCell>
        <mxCell id="12" value="" style="rounded=0;whiteSpace=wrap;html=1;dashed=1;" parent="1" vertex="1">
          <mxGeometry x="425" y="239" width="230" height="90" as="geometry" />
        </mxCell>
        <mxCell id="18" style="html=1;entryX=0;entryY=0.5;entryDx=0;entryDy=0;fontSize=8;edgeStyle=orthogonalEdgeStyle;rounded=0;curved=0;endSize=6;targetPerimeterSpacing=0;startSize=6;strokeColor=#3333FF;shadow=0;exitX=0.946;exitY=0.331;exitDx=0;exitDy=0;exitPerimeter=0;" parent="1" source="8" target="11" edge="1">
          <mxGeometry relative="1" as="geometry">
            <mxPoint x="285" y="384" as="sourcePoint" />
          </mxGeometry>
        </mxCell>
        <mxCell id="19" value="/api" style="edgeLabel;html=1;align=center;verticalAlign=middle;resizable=0;points=[];fontSize=8;fontFamily=Open Sans;" parent="18" vertex="1" connectable="0">
          <mxGeometry x="0.089" y="1" relative="1" as="geometry">
            <mxPoint as="offset" />
          </mxGeometry>
        </mxCell>
        <mxCell id="13" value="&lt;b&gt;Microservice&lt;/b&gt;" style="text;html=1;strokeColor=none;fillColor=none;align=center;verticalAlign=middle;whiteSpace=wrap;rounded=0;dashed=1;fontSize=8;fontFamily=Open Sans;" parent="1" vertex="1">
          <mxGeometry x="425" y="239" width="230" height="10" as="geometry" />
        </mxCell>
        <mxCell id="14" value="&amp;lt;name:&amp;nbsp;pizza-ordering-service&amp;gt;" style="text;html=1;strokeColor=none;fillColor=none;align=center;verticalAlign=middle;whiteSpace=wrap;rounded=0;dashed=1;fontSize=7;fontStyle=2;fontFamily=Open Sans;" parent="1" vertex="1">
          <mxGeometry x="425" y="249" width="230" height="10" as="geometry" />
        </mxCell>
        <mxCell id="15" value="&lt;type: ASP.NET Core 8&gt;" style="text;strokeColor=none;fillColor=none;align=center;verticalAlign=middle;whiteSpace=wrap;rounded=0;dashed=1;fontSize=7;fontStyle=2;fontFamily=Open Sans;" parent="1" vertex="1">
          <mxGeometry x="425" y="259" width="230" height="10" as="geometry" />
        </mxCell>
        <mxCell id="21" style="edgeStyle=none;html=1;fontSize=8;strokeColor=#808080;" parent="1" source="11" target="20" edge="1">
          <mxGeometry relative="1" as="geometry" />
        </mxCell>
        <mxCell id="11" value="" style="shape=image;verticalLabelPosition=bottom;verticalAlign=top;imageAspect=0;aspect=fixed;image=data:image/svg+xml,PHN2ZyB4bWxucz0iaHR0cDovL3d3dy53My5vcmcvMjAwMC9zdmciIGlkPSJzdmcxMzgyNiIgdmVyc2lvbj0iMS4xIiB2aWV3Qm94PSIwIDAgMTguMDM1MzM0IDE3LjUwMDM3OCIgaGVpZ2h0PSIxNy41MDAzNzhtbSIgd2lkdGg9IjE4LjAzNTMzNG1tIj4mI3hhOyAgPGRlZnMgaWQ9ImRlZnMxMzgyMCIvPiYjeGE7ICAmI3hhOyAgPG1ldGFkYXRhIGlkPSJtZXRhZGF0YTEzODIzIj4mI3hhOyAgICAmI3hhOyAgICAgICYjeGE7ICAgICAgICBpbWFnZS9zdmcreG1sJiN4YTsgICAgICAgICYjeGE7ICAgICAgICAmI3hhOyAgICAgICYjeGE7ICAgICYjeGE7ICA8L21ldGFkYXRhPiYjeGE7ICA8ZyB0cmFuc2Zvcm09InRyYW5zbGF0ZSgtMC45OTI2MjYzOCwtMS4xNzQxODEpIiBpZD0ibGF5ZXIxIj4mI3hhOyAgICA8ZyB0cmFuc2Zvcm09Im1hdHJpeCgxLjAxNDg4ODcsMCwwLDEuMDE0ODg4NywxNi45MDIxNDYsLTIuNjk4NzI2KSIgaWQ9Imc3MCI+JiN4YTsgICAgICA8cGF0aCBzdHlsZT0iZmlsbDojMzI2Y2U1O2ZpbGwtb3BhY2l0eToxO3N0cm9rZTpub25lO3N0cm9rZS13aWR0aDowO3N0cm9rZS1taXRlcmxpbWl0OjQ7c3Ryb2tlLWRhc2hhcnJheTpub25lO3N0cm9rZS1vcGFjaXR5OjEiIGQ9Im0gLTYuODQ5MjAxNSw0LjI3MjQ2NjggYSAxLjExOTEyNTUsMS4xMDk5NjcxIDAgMCAwIC0wLjQyODg4MTgsMC4xMDg1MzAzIGwgLTUuODUyNDAzNywyLjc5NjMzOTQgYSAxLjExOTEyNTUsMS4xMDk5NjcxIDAgMCAwIC0wLjYwNTUyNCwwLjc1Mjk3NTkgbCAtMS40NDM4MjgsNi4yODEyODQ2IGEgMS4xMTkxMjU1LDEuMTA5OTY3MSAwIDAgMCAwLjE1MTk0MywwLjg1MTAyOCAxLjExOTEyNTUsMS4xMDk5NjcxIDAgMCAwIDAuMDYzNjIsMC4wODgzMiBsIDQuMDUwOCw1LjAzNjU1NSBhIDEuMTE5MTI1NSwxLjEwOTk2NzEgMCAwIDAgMC44NzQ5NzksMC40MTc2NTQgbCA2LjQ5NjEwMTEsLTAuMDAxNSBhIDEuMTE5MTI1NSwxLjEwOTk2NzEgMCAwIDAgMC44NzQ5Nzg4LC0wLjQxNjkwNiBMIDEuMzgxODg3MiwxNS4xNDk0NTMgQSAxLjExOTEyNTUsMS4xMDk5NjcxIDAgMCAwIDEuNTk4MTk4NiwxNC4yMTAxMDQgTCAwLjE1MjEyNjU3LDcuOTI4ODE1NCBBIDEuMTE5MTI1NSwxLjEwOTk2NzEgMCAwIDAgLTAuNDUzMzk3OTQsNy4xNzU4Mzk2IEwgLTYuMzA2NTQ5Niw0LjM4MDk5NzEgQSAxLjExOTEyNTUsMS4xMDk5NjcxIDAgMCAwIC02Ljg0OTIwMTUsNC4yNzI0NjY4IFoiIGlkPSJwYXRoMzA1NSIvPiYjeGE7ICAgICAgPHBhdGggdGV4dC1hbmNob3I9InN0YXJ0IiBzdHlsZT0iY29sb3I6IzAwMDAwMDtmb250LXN0eWxlOm5vcm1hbDtmb250LXZhcmlhbnQ6bm9ybWFsO2ZvbnQtd2VpZ2h0Om5vcm1hbDtmb250LXN0cmV0Y2g6bm9ybWFsO2ZvbnQtc2l6ZTptZWRpdW07bGluZS1oZWlnaHQ6bm9ybWFsO2ZvbnQtZmFtaWx5OlNhbnM7LWlua3NjYXBlLWZvbnQtc3BlY2lmaWNhdGlvbjpTYW5zO3RleHQtaW5kZW50OjA7dGV4dC1hbGlnbjpzdGFydDt0ZXh0LWRlY29yYXRpb246bm9uZTt0ZXh0LWRlY29yYXRpb24tbGluZTpub25lO2xldHRlci1zcGFjaW5nOm5vcm1hbDt3b3JkLXNwYWNpbmc6bm9ybWFsO3RleHQtdHJhbnNmb3JtOm5vbmU7d3JpdGluZy1tb2RlOmxyLXRiO2RpcmVjdGlvbjpsdHI7YmFzZWxpbmUtc2hpZnQ6YmFzZWxpbmU7ZGlzcGxheTppbmxpbmU7b3ZlcmZsb3c6dmlzaWJsZTt2aXNpYmlsaXR5OnZpc2libGU7ZmlsbDojZmZmZmZmO2ZpbGwtb3BhY2l0eToxO2ZpbGwtcnVsZTpub256ZXJvO3N0cm9rZTpub25lO3N0cm9rZS13aWR0aDowO3N0cm9rZS1taXRlcmxpbWl0OjQ7c3Ryb2tlLWRhc2hhcnJheTpub25lO21hcmtlcjpub25lO2VuYWJsZS1iYWNrZ3JvdW5kOmFjY3VtdWxhdGUiIGQ9Ik0gLTYuODUyMzQzNSwzLjgxNzYzNzIgQSAxLjE4MTQzMDQsMS4xNzE3NjIgMCAwIDAgLTcuMzA0NDI4NCwzLjkzMjkwNCBsIC02LjE3ODc0MjYsMi45NTEyNzU4IGEgMS4xODE0MzA0LDEuMTcxNzYyIDAgMCAwIC0wLjYzOTIwNiwwLjc5NDg5MSBsIC0xLjUyMzkxNSw2LjYzMDgyODIgYSAxLjE4MTQzMDQsMS4xNzE3NjIgMCAwIDAgMC4xNjAxNzUsMC44OTg5MyAxLjE4MTQzMDQsMS4xNzE3NjIgMCAwIDAgMC4wNjczNiwwLjA5MjgxIGwgNC4yNzYwOTQsNS4zMTcyMzYgYSAxLjE4MTQzMDQsMS4xNzE3NjIgMCAwIDAgMC45MjM2MywwLjQ0MDg1OCBsIDYuODU3NjE4OCwtMC4wMDE1IGEgMS4xODE0MzA0LDEuMTcxNzYyIDAgMCAwIDAuOTIzNjMwOCwtMC40NDAxMSBsIDQuMjc0NTk2NiwtNS4zMTc5ODUgYSAxLjE4MTQzMDQsMS4xNzE3NjIgMCAwIDAgMC4yMjgyODgsLTAuOTkwOTkzIEwgMC41Mzg5NDQzOSw3LjY3NzU3MzggQSAxLjE4MTQzMDQsMS4xNzE3NjIgMCAwIDAgLTAuMTAwMjYxMDEsNi44ODM0MzEzIEwgLTYuMjc5MDAzNywzLjkzMjE1NTUgQSAxLjE4MTQzMDQsMS4xNzE3NjIgMCAwIDAgLTYuODUyMzQzNSwzLjgxNzYzNzIgWiBtIDAuMDAyOTksMC40NTUwNzg5IGEgMS4xMTkxMjU1LDEuMTA5OTY3MSAwIDAgMSAwLjU0MjY1MTcsMC4xMDg1MzAzIGwgNS44NTMxNTE2OSwyLjc5NDg0MjUgQSAxLjExOTEyNTUsMS4xMDk5NjcxIDAgMCAxIDAuMTUxOTc4MTEsNy45MjkwNjQ4IEwgMS41OTgwNTEsMTQuMjEwMzUgYSAxLjExOTEyNTUsMS4xMDk5NjcxIDAgMCAxIC0wLjIxNjMxMjMsMC45MzkzNDggbCAtNC4wNDkzMDMyLDUuMDM3MzA0IGEgMS4xMTkxMjU1LDEuMTA5OTY3MSAwIDAgMSAtMC44NzQ5Nzg5LDAuNDE2OTA2IGwgLTYuNDk2MTAwNiwwLjAwMTUgYSAxLjExOTEyNTUsMS4xMDk5NjcxIDAgMCAxIC0wLjg3NDk3OSwtMC40MTc2NTIgbCAtNC4wNTA4LC01LjAzNjU1NCBhIDEuMTE5MTI1NSwxLjEwOTk2NzEgMCAwIDEgLTAuMDYzNjIsLTAuMDg4MzIgMS4xMTkxMjU1LDEuMTA5OTY3MSAwIDAgMSAtMC4xNTE5NDIsLTAuODUxMDI4IGwgMS40NDM4MjcsLTYuMjgxMjg1MyBhIDEuMTE5MTI1NSwxLjEwOTk2NzEgMCAwIDEgMC42MDU1MjQsLTAuNzUyOTc1OCBsIDUuODUyNDAzNiwtMi43OTYzMzk1IGEgMS4xMTkxMjU1LDEuMTA5OTY3MSAwIDAgMSAwLjQyODg4MTksLTAuMTA4NTMwMyB6IiBpZD0icGF0aDMwNTQtMi05Ii8+JiN4YTsgICAgPC9nPiYjeGE7ICAgIDx0ZXh0IHhtbDpzcGFjZT0icHJlc2VydmUiIHN0eWxlPSJmb250LXN0eWxlOm5vcm1hbDtmb250LXdlaWdodDpub3JtYWw7Zm9udC1zaXplOjEwLjU4MzMzMzAycHg7bGluZS1oZWlnaHQ6Ni42MTQ1ODM0OXB4O2ZvbnQtZmFtaWx5OlNhbnM7bGV0dGVyLXNwYWNpbmc6MHB4O3dvcmQtc3BhY2luZzowcHg7ZmlsbDojZmZmZmZmO2ZpbGwtb3BhY2l0eToxO3N0cm9rZTpub25lO3N0cm9rZS13aWR0aDowLjI2NDU4MzMycHg7c3Ryb2tlLWxpbmVjYXA6YnV0dDtzdHJva2UtbGluZWpvaW46bWl0ZXI7c3Ryb2tlLW9wYWNpdHk6MSIgeD0iOS45Nzk5NzY3IiB5PSIxNi44MTE3NzUiIGlkPSJ0ZXh0MjA2NiI+PHRzcGFuIGlkPSJ0c3BhbjIwNjQiIHg9IjkuOTc5OTc2NyIgeT0iMTYuODExNzc1IiB0ZXh0LWFuY2hvcj0ibWlkZGxlIiBzdHlsZT0iZm9udC1zdHlsZTpub3JtYWw7Zm9udC12YXJpYW50Om5vcm1hbDtmb250LXdlaWdodDpub3JtYWw7Zm9udC1zdHJldGNoOm5vcm1hbDtmb250LXNpemU6Mi44MjIyMjIyM3B4O2ZvbnQtZmFtaWx5OkFyaWFsOy1pbmtzY2FwZS1mb250LXNwZWNpZmljYXRpb246J0FyaWFsLCBOb3JtYWwnO3RleHQtYWxpZ246Y2VudGVyO3dyaXRpbmctbW9kZTpsci10YjtmaWxsOiNmZmZmZmY7ZmlsbC1vcGFjaXR5OjE7c3Ryb2tlLXdpZHRoOjAuMjY0NTgzMzJweCI+c3ZjPC90c3Bhbj48L3RleHQ+JiN4YTsgICAgPGcgdHJhbnNmb3JtPSJ0cmFuc2xhdGUoMC4wOTIzODgwMSwwKSIgaWQ9ImczMzQ1Ij4mI3hhOyAgICAgIDxwYXRoIGlkPSJwYXRoOTY0IiBkPSJtIDQuNDk0OTg5NiwxMS4yNjA4MjYgMi45MDgzMzExLDAgMCwyLjA0MTY2NyAtMi45MDgzMzExLDAgeiIgc3R5bGU9ImZpbGw6I2ZmZmZmZjtmaWxsLXJ1bGU6ZXZlbm9kZDtzdHJva2U6bm9uZTtzdHJva2Utd2lkdGg6MC4yNjQ1ODMzMjtzdHJva2UtbGluZWNhcDpzcXVhcmU7c3Ryb2tlLW1pdGVybGltaXQ6MTAiLz4mI3hhOyAgICAgIDxwYXRoIGlkPSJwYXRoOTY2IiBkPSJtIDguNDYzNzQwNywxMS4yNjA4MjYgMi45MDgzMzAzLDAgMCwyLjA0MTY2NyAtMi45MDgzMzAzLDAgeiIgc3R5bGU9ImZpbGw6I2ZmZmZmZjtmaWxsLXJ1bGU6ZXZlbm9kZDtzdHJva2U6bm9uZTtzdHJva2Utd2lkdGg6MC4yNjQ1ODMzMjtzdHJva2UtbGluZWNhcDpzcXVhcmU7c3Ryb2tlLW1pdGVybGltaXQ6MTAiLz4mI3hhOyAgICAgIDxwYXRoIGlkPSJwYXRoOTY4IiBkPSJtIDEyLjQzMjQ5MSwxMS4yNjA4MjYgMi45MDgzMywwIDAsMi4wNDE2NjcgLTIuOTA4MzMsMCB6IiBzdHlsZT0iZmlsbDojZmZmZmZmO2ZpbGwtcnVsZTpldmVub2RkO3N0cm9rZTpub25lO3N0cm9rZS13aWR0aDowLjI2NDU4MzMyO3N0cm9rZS1saW5lY2FwOnNxdWFyZTtzdHJva2UtbWl0ZXJsaW1pdDoxMCIvPiYjeGE7ICAgICAgPHBhdGggaWQ9InBhdGg5NzAiIGQ9Im0gNy42MTM3NDA3LDUuMjA4MjkyMSA0LjYwODMzMDMsMCAwLDIuMDQxNjY3IC00LjYwODMzMDMsMCB6IiBzdHlsZT0iZmlsbDojZmZmZmZmO2ZpbGwtcnVsZTpldmVub2RkO3N0cm9rZTpub25lO3N0cm9rZS13aWR0aDowLjI2NDU4MzMyO3N0cm9rZS1saW5lY2FwOnNxdWFyZTtzdHJva2UtbWl0ZXJsaW1pdDoxMCIvPiYjeGE7ICAgICAgPHBhdGggaWQ9InBhdGg5NzgiIGQ9Im0gOS45MTc5MDA1LDcuMjQ5OTYwMSAwLDIuMDA1NDQ5IC0zLjk2NjY3MSwwIDAsMi4wMDI4ODU5IiBzdHlsZT0iZmlsbDpub25lO2ZpbGwtcnVsZTpldmVub2RkO3N0cm9rZTojZmZmZmZmO3N0cm9rZS13aWR0aDowLjUyOTE2NjY0O3N0cm9rZS1saW5lY2FwOmJ1dHQ7c3Ryb2tlLWxpbmVqb2luOnJvdW5kO3N0cm9rZS1taXRlcmxpbWl0OjEwO3N0cm9rZS1vcGFjaXR5OjEiLz4mI3hhOyAgICAgIDxwYXRoIGlkPSJwYXRoOTg2IiBkPSJtIDkuOTE3OTAwNSw3LjI0OTk2MDEgMCwyLjAwNTQ0OSAzLjk2NjY3MDUsMCAwLDIuMDAyODg1OSIgc3R5bGU9ImZpbGw6bm9uZTtmaWxsLXJ1bGU6ZXZlbm9kZDtzdHJva2U6I2ZmZmZmZjtzdHJva2Utd2lkdGg6MC41Mjg5OTk5ODtzdHJva2UtbGluZWNhcDpidXR0O3N0cm9rZS1saW5lam9pbjpyb3VuZDtzdHJva2UtbWl0ZXJsaW1pdDoxMDtzdHJva2UtZGFzaGFycmF5Om5vbmU7c3Ryb2tlLW9wYWNpdHk6MSIvPiYjeGE7ICAgICAgPHBhdGggaWQ9InBhdGg5ODIiIGQ9Im0gOS45MDk1NTM4LDcuMjUxMjI1MSAwLDIuMDA1NDQ5IDAuMDE2NywwIDAsMi4wMDI4ODU5IiBzdHlsZT0iZmlsbDpub25lO2ZpbGwtcnVsZTpldmVub2RkO3N0cm9rZTojZmZmZmZmO3N0cm9rZS13aWR0aDowLjUyOTE2NjY0O3N0cm9rZS1saW5lY2FwOmJ1dHQ7c3Ryb2tlLWxpbmVqb2luOnJvdW5kO3N0cm9rZS1taXRlcmxpbWl0OjEwO3N0cm9rZS1vcGFjaXR5OjEiLz4mI3hhOyAgICA8L2c+JiN4YTsgIDwvZz4mI3hhOzwvc3ZnPg==;dashed=1;fontStyle=0" parent="1" vertex="1">
          <mxGeometry x="455" y="273.5" width="30" height="30" as="geometry" />
        </mxCell>
        <mxCell id="20" value="" style="shape=image;verticalLabelPosition=bottom;verticalAlign=top;imageAspect=0;aspect=fixed;image=data:image/svg+xml,PHN2ZyB4bWxucz0iaHR0cDovL3d3dy53My5vcmcvMjAwMC9zdmciIGlkPSJzdmcxMzgyNiIgdmVyc2lvbj0iMS4xIiB2aWV3Qm94PSIwIDAgMTguMDM1MzM0IDE3LjUwMDM3OCIgaGVpZ2h0PSIxNy41MDAzNzhtbSIgd2lkdGg9IjE4LjAzNTMzNG1tIj4mI3hhOyAgPGRlZnMgaWQ9ImRlZnMxMzgyMCIvPiYjeGE7ICAmI3hhOyAgPG1ldGFkYXRhIGlkPSJtZXRhZGF0YTEzODIzIj4mI3hhOyAgICAmI3hhOyAgICAgICYjeGE7ICAgICAgICBpbWFnZS9zdmcreG1sJiN4YTsgICAgICAgICYjeGE7ICAgICAgICAmI3hhOyAgICAgICYjeGE7ICAgICYjeGE7ICA8L21ldGFkYXRhPiYjeGE7ICA8ZyB0cmFuc2Zvcm09InRyYW5zbGF0ZSgtMC45OTI2MjYzOCwtMS4xNzQxODEpIiBpZD0ibGF5ZXIxIj4mI3hhOyAgICA8ZyB0cmFuc2Zvcm09Im1hdHJpeCgxLjAxNDg4ODcsMCwwLDEuMDE0ODg4NywxNi45MDIxNDYsLTIuNjk4NzI2KSIgaWQ9Imc3MCI+JiN4YTsgICAgICA8cGF0aCBzdHlsZT0iZmlsbDojMzI2Y2U1O2ZpbGwtb3BhY2l0eToxO3N0cm9rZTpub25lO3N0cm9rZS13aWR0aDowO3N0cm9rZS1taXRlcmxpbWl0OjQ7c3Ryb2tlLWRhc2hhcnJheTpub25lO3N0cm9rZS1vcGFjaXR5OjEiIGQ9Im0gLTYuODQ5MjAxNSw0LjI3MjQ2NjggYSAxLjExOTEyNTUsMS4xMDk5NjcxIDAgMCAwIC0wLjQyODg4MTgsMC4xMDg1MzAzIGwgLTUuODUyNDAzNywyLjc5NjMzOTQgYSAxLjExOTEyNTUsMS4xMDk5NjcxIDAgMCAwIC0wLjYwNTUyNCwwLjc1Mjk3NTkgbCAtMS40NDM4MjgsNi4yODEyODQ2IGEgMS4xMTkxMjU1LDEuMTA5OTY3MSAwIDAgMCAwLjE1MTk0MywwLjg1MTAyOCAxLjExOTEyNTUsMS4xMDk5NjcxIDAgMCAwIDAuMDYzNjIsMC4wODgzMiBsIDQuMDUwOCw1LjAzNjU1NSBhIDEuMTE5MTI1NSwxLjEwOTk2NzEgMCAwIDAgMC44NzQ5NzksMC40MTc2NTQgbCA2LjQ5NjEwMTEsLTAuMDAxNSBhIDEuMTE5MTI1NSwxLjEwOTk2NzEgMCAwIDAgMC44NzQ5Nzg4LC0wLjQxNjkwNiBMIDEuMzgxODg3MiwxNS4xNDk0NTMgQSAxLjExOTEyNTUsMS4xMDk5NjcxIDAgMCAwIDEuNTk4MTk4NiwxNC4yMTAxMDQgTCAwLjE1MjEyNjU3LDcuOTI4ODE1NCBBIDEuMTE5MTI1NSwxLjEwOTk2NzEgMCAwIDAgLTAuNDUzMzk3OTQsNy4xNzU4Mzk2IEwgLTYuMzA2NTQ5Niw0LjM4MDk5NzEgQSAxLjExOTEyNTUsMS4xMDk5NjcxIDAgMCAwIC02Ljg0OTIwMTUsNC4yNzI0NjY4IFoiIGlkPSJwYXRoMzA1NSIvPiYjeGE7ICAgICAgPHBhdGggdGV4dC1hbmNob3I9InN0YXJ0IiBzdHlsZT0iY29sb3I6IzAwMDAwMDtmb250LXN0eWxlOm5vcm1hbDtmb250LXZhcmlhbnQ6bm9ybWFsO2ZvbnQtd2VpZ2h0Om5vcm1hbDtmb250LXN0cmV0Y2g6bm9ybWFsO2ZvbnQtc2l6ZTptZWRpdW07bGluZS1oZWlnaHQ6bm9ybWFsO2ZvbnQtZmFtaWx5OlNhbnM7LWlua3NjYXBlLWZvbnQtc3BlY2lmaWNhdGlvbjpTYW5zO3RleHQtaW5kZW50OjA7dGV4dC1hbGlnbjpzdGFydDt0ZXh0LWRlY29yYXRpb246bm9uZTt0ZXh0LWRlY29yYXRpb24tbGluZTpub25lO2xldHRlci1zcGFjaW5nOm5vcm1hbDt3b3JkLXNwYWNpbmc6bm9ybWFsO3RleHQtdHJhbnNmb3JtOm5vbmU7d3JpdGluZy1tb2RlOmxyLXRiO2RpcmVjdGlvbjpsdHI7YmFzZWxpbmUtc2hpZnQ6YmFzZWxpbmU7ZGlzcGxheTppbmxpbmU7b3ZlcmZsb3c6dmlzaWJsZTt2aXNpYmlsaXR5OnZpc2libGU7ZmlsbDojZmZmZmZmO2ZpbGwtb3BhY2l0eToxO2ZpbGwtcnVsZTpub256ZXJvO3N0cm9rZTpub25lO3N0cm9rZS13aWR0aDowO3N0cm9rZS1taXRlcmxpbWl0OjQ7c3Ryb2tlLWRhc2hhcnJheTpub25lO21hcmtlcjpub25lO2VuYWJsZS1iYWNrZ3JvdW5kOmFjY3VtdWxhdGUiIGQ9Ik0gLTYuODUyMzQzNSwzLjgxNzYzNzIgQSAxLjE4MTQzMDQsMS4xNzE3NjIgMCAwIDAgLTcuMzA0NDI4NCwzLjkzMjkwNCBsIC02LjE3ODc0MjYsMi45NTEyNzU4IGEgMS4xODE0MzA0LDEuMTcxNzYyIDAgMCAwIC0wLjYzOTIwNiwwLjc5NDg5MSBsIC0xLjUyMzkxNSw2LjYzMDgyODIgYSAxLjE4MTQzMDQsMS4xNzE3NjIgMCAwIDAgMC4xNjAxNzUsMC44OTg5MyAxLjE4MTQzMDQsMS4xNzE3NjIgMCAwIDAgMC4wNjczNiwwLjA5MjgxIGwgNC4yNzYwOTQsNS4zMTcyMzYgYSAxLjE4MTQzMDQsMS4xNzE3NjIgMCAwIDAgMC45MjM2MywwLjQ0MDg1OCBsIDYuODU3NjE4OCwtMC4wMDE1IGEgMS4xODE0MzA0LDEuMTcxNzYyIDAgMCAwIDAuOTIzNjMwOCwtMC40NDAxMSBsIDQuMjc0NTk2NiwtNS4zMTc5ODUgYSAxLjE4MTQzMDQsMS4xNzE3NjIgMCAwIDAgMC4yMjgyODgsLTAuOTkwOTkzIEwgMC41Mzg5NDQzOSw3LjY3NzU3MzggQSAxLjE4MTQzMDQsMS4xNzE3NjIgMCAwIDAgLTAuMTAwMjYxMDEsNi44ODM0MzEzIEwgLTYuMjc5MDAzNywzLjkzMjE1NTUgQSAxLjE4MTQzMDQsMS4xNzE3NjIgMCAwIDAgLTYuODUyMzQzNSwzLjgxNzYzNzIgWiBtIDAuMDAyOTksMC40NTUwNzg5IGEgMS4xMTkxMjU1LDEuMTA5OTY3MSAwIDAgMSAwLjU0MjY1MTcsMC4xMDg1MzAzIGwgNS44NTMxNTE2OSwyLjc5NDg0MjUgQSAxLjExOTEyNTUsMS4xMDk5NjcxIDAgMCAxIDAuMTUxOTc4MTEsNy45MjkwNjQ4IEwgMS41OTgwNTEsMTQuMjEwMzUgYSAxLjExOTEyNTUsMS4xMDk5NjcxIDAgMCAxIC0wLjIxNjMxMjMsMC45MzkzNDggbCAtNC4wNDkzMDMyLDUuMDM3MzA0IGEgMS4xMTkxMjU1LDEuMTA5OTY3MSAwIDAgMSAtMC44NzQ5Nzg5LDAuNDE2OTA2IGwgLTYuNDk2MTAwNiwwLjAwMTUgYSAxLjExOTEyNTUsMS4xMDk5NjcxIDAgMCAxIC0wLjg3NDk3OSwtMC40MTc2NTIgbCAtNC4wNTA4LC01LjAzNjU1NCBhIDEuMTE5MTI1NSwxLjEwOTk2NzEgMCAwIDEgLTAuMDYzNjIsLTAuMDg4MzIgMS4xMTkxMjU1LDEuMTA5OTY3MSAwIDAgMSAtMC4xNTE5NDIsLTAuODUxMDI4IGwgMS40NDM4MjcsLTYuMjgxMjg1MyBhIDEuMTE5MTI1NSwxLjEwOTk2NzEgMCAwIDEgMC42MDU1MjQsLTAuNzUyOTc1OCBsIDUuODUyNDAzNiwtMi43OTYzMzk1IGEgMS4xMTkxMjU1LDEuMTA5OTY3MSAwIDAgMSAwLjQyODg4MTksLTAuMTA4NTMwMyB6IiBpZD0icGF0aDMwNTQtMi05Ii8+JiN4YTsgICAgPC9nPiYjeGE7ICAgIDx0ZXh0IHhtbDpzcGFjZT0icHJlc2VydmUiIHN0eWxlPSJmb250LXN0eWxlOm5vcm1hbDtmb250LXdlaWdodDpub3JtYWw7Zm9udC1zaXplOjEwLjU4MzMzMzAycHg7bGluZS1oZWlnaHQ6Ni42MTQ1ODM0OXB4O2ZvbnQtZmFtaWx5OlNhbnM7bGV0dGVyLXNwYWNpbmc6MHB4O3dvcmQtc3BhY2luZzowcHg7ZmlsbDojZmZmZmZmO2ZpbGwtb3BhY2l0eToxO3N0cm9rZTpub25lO3N0cm9rZS13aWR0aDowLjI2NDU4MzMycHg7c3Ryb2tlLWxpbmVjYXA6YnV0dDtzdHJva2UtbGluZWpvaW46bWl0ZXI7c3Ryb2tlLW9wYWNpdHk6MSIgeD0iMTAuMDE3MTgzIiB5PSIxNi44MTE3NzUiIGlkPSJ0ZXh0MjA2NiI+PHRzcGFuIGlkPSJ0c3BhbjIwNjQiIHg9IjEwLjAxNzE4MyIgeT0iMTYuODExNzc1IiB0ZXh0LWFuY2hvcj0ibWlkZGxlIiBzdHlsZT0iZm9udC1zdHlsZTpub3JtYWw7Zm9udC12YXJpYW50Om5vcm1hbDtmb250LXdlaWdodDpub3JtYWw7Zm9udC1zdHJldGNoOm5vcm1hbDtmb250LXNpemU6Mi44MjIyMjIyM3B4O2ZvbnQtZmFtaWx5OkFyaWFsOy1pbmtzY2FwZS1mb250LXNwZWNpZmljYXRpb246J0FyaWFsLCBOb3JtYWwnO3RleHQtYWxpZ246Y2VudGVyO3dyaXRpbmctbW9kZTpsci10YjtmaWxsOiNmZmZmZmY7ZmlsbC1vcGFjaXR5OjE7c3Ryb2tlLXdpZHRoOjAuMjY0NTgzMzJweCI+cG9kPC90c3Bhbj48L3RleHQ+JiN4YTsgICAgPGcgdHJhbnNmb3JtPSJ0cmFuc2xhdGUoMC4xMjc2NjY2MSwwKSIgaWQ9ImczMzQxIj4mI3hhOyAgICAgIDxwYXRoIGlkPSJwYXRoOTEwIiBkPSJNIDYuMjYxNzkxNCw3LjAzNjA4NiA5Ljg4MjYzMTcsNS45ODYwODcgMTMuNTAzNDYyLDcuMDM2MDg2IDkuODgyNjMxNyw4LjA4NjA4NyBaIiBzdHlsZT0iZmlsbDojZmZmZmZmO2ZpbGwtcnVsZTpldmVub2RkO3N0cm9rZTpub25lO3N0cm9rZS13aWR0aDowLjI2NDU4MzMyO3N0cm9rZS1saW5lY2FwOnNxdWFyZTtzdHJva2UtbWl0ZXJsaW1pdDoxMCIvPiYjeGE7ICAgICAgPHBhdGggaWQ9InBhdGg5MTIiIGQ9Im0gNi4yNjE3OTE0LDcuNDM4MTcgMCwzLjg1Mjc3OCAzLjM3MzYxMDMsMS44Njg3NDkgMC4wMTY3LC00LjcxMzE5MyB6IiBzdHlsZT0iZmlsbDojZmZmZmZmO2ZpbGwtcnVsZTpldmVub2RkO3N0cm9rZTpub25lO3N0cm9rZS13aWR0aDowLjI2NDU4MzMyO3N0cm9rZS1saW5lY2FwOnNxdWFyZTtzdHJva2UtbWl0ZXJsaW1pdDoxMCIvPiYjeGE7ICAgICAgPHBhdGggaWQ9InBhdGg5MTQiIGQ9Im0gMTMuNTAzNDYyLDcuNDM4MTcgMCwzLjg1Mjc3OCAtMy4zNzM2MSwxLjg2ODc0OSAtMC4wMTY3LC00LjcxMzE5MyB6IiBzdHlsZT0iZmlsbDojZmZmZmZmO2ZpbGwtcnVsZTpldmVub2RkO3N0cm9rZTpub25lO3N0cm9rZS13aWR0aDowLjI2NDU4MzMyO3N0cm9rZS1saW5lY2FwOnNxdWFyZTtzdHJva2UtbWl0ZXJsaW1pdDoxMCIvPiYjeGE7ICAgIDwvZz4mI3hhOyAgPC9nPiYjeGE7PC9zdmc+;dashed=1;fontSize=8;" parent="1" vertex="1">
          <mxGeometry x="505" y="273.5" width="30" height="30" as="geometry" />
        </mxCell>
        <mxCell id="26" style="edgeStyle=none;html=1;entryX=1;entryY=0.5;entryDx=0;entryDy=0;fontSize=8;strokeColor=#808080;targetPerimeterSpacing=0;" parent="1" source="22" target="23" edge="1">
          <mxGeometry relative="1" as="geometry" />
        </mxCell>
        <mxCell id="22" value="" style="shape=image;verticalLabelPosition=bottom;verticalAlign=top;imageAspect=0;aspect=fixed;image=data:image/svg+xml,PHN2ZyB4bWxucz0iaHR0cDovL3d3dy53My5vcmcvMjAwMC9zdmciIGlkPSJzdmcxMzgyNiIgdmVyc2lvbj0iMS4xIiB2aWV3Qm94PSIwIDAgMTguMDM1MzM0IDE3LjUwMDM3OCIgaGVpZ2h0PSIxNy41MDAzNzhtbSIgd2lkdGg9IjE4LjAzNTMzNG1tIj4mI3hhOyAgPGRlZnMgaWQ9ImRlZnMxMzgyMCIvPiYjeGE7ICAmI3hhOyAgPG1ldGFkYXRhIGlkPSJtZXRhZGF0YTEzODIzIj4mI3hhOyAgICAmI3hhOyAgICAgICYjeGE7ICAgICAgICBpbWFnZS9zdmcreG1sJiN4YTsgICAgICAgICYjeGE7ICAgICAgICAmI3hhOyAgICAgICYjeGE7ICAgICYjeGE7ICA8L21ldGFkYXRhPiYjeGE7ICA8ZyB0cmFuc2Zvcm09InRyYW5zbGF0ZSgtMC45OTI2MjYzOCwtMS4xNzQxODEpIiBpZD0ibGF5ZXIxIj4mI3hhOyAgICA8ZyB0cmFuc2Zvcm09Im1hdHJpeCgxLjAxNDg4ODcsMCwwLDEuMDE0ODg4NywxNi45MDIxNDYsLTIuNjk4NzI2KSIgaWQ9Imc3MCI+JiN4YTsgICAgICA8cGF0aCBzdHlsZT0iZmlsbDojMzI2Y2U1O2ZpbGwtb3BhY2l0eToxO3N0cm9rZTpub25lO3N0cm9rZS13aWR0aDowO3N0cm9rZS1taXRlcmxpbWl0OjQ7c3Ryb2tlLWRhc2hhcnJheTpub25lO3N0cm9rZS1vcGFjaXR5OjEiIGQ9Im0gLTYuODQ5MjAxNSw0LjI3MjQ2NjggYSAxLjExOTEyNTUsMS4xMDk5NjcxIDAgMCAwIC0wLjQyODg4MTgsMC4xMDg1MzAzIGwgLTUuODUyNDAzNywyLjc5NjMzOTQgYSAxLjExOTEyNTUsMS4xMDk5NjcxIDAgMCAwIC0wLjYwNTUyNCwwLjc1Mjk3NTkgbCAtMS40NDM4MjgsNi4yODEyODQ2IGEgMS4xMTkxMjU1LDEuMTA5OTY3MSAwIDAgMCAwLjE1MTk0MywwLjg1MTAyOCAxLjExOTEyNTUsMS4xMDk5NjcxIDAgMCAwIDAuMDYzNjIsMC4wODgzMiBsIDQuMDUwOCw1LjAzNjU1NSBhIDEuMTE5MTI1NSwxLjEwOTk2NzEgMCAwIDAgMC44NzQ5NzksMC40MTc2NTQgbCA2LjQ5NjEwMTEsLTAuMDAxNSBhIDEuMTE5MTI1NSwxLjEwOTk2NzEgMCAwIDAgMC44NzQ5Nzg4LC0wLjQxNjkwNiBMIDEuMzgxODg3MiwxNS4xNDk0NTMgQSAxLjExOTEyNTUsMS4xMDk5NjcxIDAgMCAwIDEuNTk4MTk4NiwxNC4yMTAxMDQgTCAwLjE1MjEyNjU3LDcuOTI4ODE1NCBBIDEuMTE5MTI1NSwxLjEwOTk2NzEgMCAwIDAgLTAuNDUzMzk3OTQsNy4xNzU4Mzk2IEwgLTYuMzA2NTQ5Niw0LjM4MDk5NzEgQSAxLjExOTEyNTUsMS4xMDk5NjcxIDAgMCAwIC02Ljg0OTIwMTUsNC4yNzI0NjY4IFoiIGlkPSJwYXRoMzA1NSIvPiYjeGE7ICAgICAgPHBhdGggdGV4dC1hbmNob3I9InN0YXJ0IiBzdHlsZT0iY29sb3I6IzAwMDAwMDtmb250LXN0eWxlOm5vcm1hbDtmb250LXZhcmlhbnQ6bm9ybWFsO2ZvbnQtd2VpZ2h0Om5vcm1hbDtmb250LXN0cmV0Y2g6bm9ybWFsO2ZvbnQtc2l6ZTptZWRpdW07bGluZS1oZWlnaHQ6bm9ybWFsO2ZvbnQtZmFtaWx5OlNhbnM7LWlua3NjYXBlLWZvbnQtc3BlY2lmaWNhdGlvbjpTYW5zO3RleHQtaW5kZW50OjA7dGV4dC1hbGlnbjpzdGFydDt0ZXh0LWRlY29yYXRpb246bm9uZTt0ZXh0LWRlY29yYXRpb24tbGluZTpub25lO2xldHRlci1zcGFjaW5nOm5vcm1hbDt3b3JkLXNwYWNpbmc6bm9ybWFsO3RleHQtdHJhbnNmb3JtOm5vbmU7d3JpdGluZy1tb2RlOmxyLXRiO2RpcmVjdGlvbjpsdHI7YmFzZWxpbmUtc2hpZnQ6YmFzZWxpbmU7ZGlzcGxheTppbmxpbmU7b3ZlcmZsb3c6dmlzaWJsZTt2aXNpYmlsaXR5OnZpc2libGU7ZmlsbDojZmZmZmZmO2ZpbGwtb3BhY2l0eToxO2ZpbGwtcnVsZTpub256ZXJvO3N0cm9rZTpub25lO3N0cm9rZS13aWR0aDowO3N0cm9rZS1taXRlcmxpbWl0OjQ7c3Ryb2tlLWRhc2hhcnJheTpub25lO21hcmtlcjpub25lO2VuYWJsZS1iYWNrZ3JvdW5kOmFjY3VtdWxhdGUiIGQ9Ik0gLTYuODUyMzQzNSwzLjgxNzYzNzIgQSAxLjE4MTQzMDQsMS4xNzE3NjIgMCAwIDAgLTcuMzA0NDI4NCwzLjkzMjkwNCBsIC02LjE3ODc0MjYsMi45NTEyNzU4IGEgMS4xODE0MzA0LDEuMTcxNzYyIDAgMCAwIC0wLjYzOTIwNiwwLjc5NDg5MSBsIC0xLjUyMzkxNSw2LjYzMDgyODIgYSAxLjE4MTQzMDQsMS4xNzE3NjIgMCAwIDAgMC4xNjAxNzUsMC44OTg5MyAxLjE4MTQzMDQsMS4xNzE3NjIgMCAwIDAgMC4wNjczNiwwLjA5MjgxIGwgNC4yNzYwOTQsNS4zMTcyMzYgYSAxLjE4MTQzMDQsMS4xNzE3NjIgMCAwIDAgMC45MjM2MywwLjQ0MDg1OCBsIDYuODU3NjE4OCwtMC4wMDE1IGEgMS4xODE0MzA0LDEuMTcxNzYyIDAgMCAwIDAuOTIzNjMwOCwtMC40NDAxMSBsIDQuMjc0NTk2NiwtNS4zMTc5ODUgYSAxLjE4MTQzMDQsMS4xNzE3NjIgMCAwIDAgMC4yMjgyODgsLTAuOTkwOTkzIEwgMC41Mzg5NDQzOSw3LjY3NzU3MzggQSAxLjE4MTQzMDQsMS4xNzE3NjIgMCAwIDAgLTAuMTAwMjYxMDEsNi44ODM0MzEzIEwgLTYuMjc5MDAzNywzLjkzMjE1NTUgQSAxLjE4MTQzMDQsMS4xNzE3NjIgMCAwIDAgLTYuODUyMzQzNSwzLjgxNzYzNzIgWiBtIDAuMDAyOTksMC40NTUwNzg5IGEgMS4xMTkxMjU1LDEuMTA5OTY3MSAwIDAgMSAwLjU0MjY1MTcsMC4xMDg1MzAzIGwgNS44NTMxNTE2OSwyLjc5NDg0MjUgQSAxLjExOTEyNTUsMS4xMDk5NjcxIDAgMCAxIDAuMTUxOTc4MTEsNy45MjkwNjQ4IEwgMS41OTgwNTEsMTQuMjEwMzUgYSAxLjExOTEyNTUsMS4xMDk5NjcxIDAgMCAxIC0wLjIxNjMxMjMsMC45MzkzNDggbCAtNC4wNDkzMDMyLDUuMDM3MzA0IGEgMS4xMTkxMjU1LDEuMTA5OTY3MSAwIDAgMSAtMC44NzQ5Nzg5LDAuNDE2OTA2IGwgLTYuNDk2MTAwNiwwLjAwMTUgYSAxLjExOTEyNTUsMS4xMDk5NjcxIDAgMCAxIC0wLjg3NDk3OSwtMC40MTc2NTIgbCAtNC4wNTA4LC01LjAzNjU1NCBhIDEuMTE5MTI1NSwxLjEwOTk2NzEgMCAwIDEgLTAuMDYzNjIsLTAuMDg4MzIgMS4xMTkxMjU1LDEuMTA5OTY3MSAwIDAgMSAtMC4xNTE5NDIsLTAuODUxMDI4IGwgMS40NDM4MjcsLTYuMjgxMjg1MyBhIDEuMTE5MTI1NSwxLjEwOTk2NzEgMCAwIDEgMC42MDU1MjQsLTAuNzUyOTc1OCBsIDUuODUyNDAzNiwtMi43OTYzMzk1IGEgMS4xMTkxMjU1LDEuMTA5OTY3MSAwIDAgMSAwLjQyODg4MTksLTAuMTA4NTMwMyB6IiBpZD0icGF0aDMwNTQtMi05Ii8+JiN4YTsgICAgPC9nPiYjeGE7ICAgIDx0ZXh0IHhtbDpzcGFjZT0icHJlc2VydmUiIHN0eWxlPSJmb250LXN0eWxlOm5vcm1hbDtmb250LXdlaWdodDpub3JtYWw7Zm9udC1zaXplOjEwLjU4MzMzMzAycHg7bGluZS1oZWlnaHQ6Ni42MTQ1ODM0OXB4O2ZvbnQtZmFtaWx5OlNhbnM7bGV0dGVyLXNwYWNpbmc6MHB4O3dvcmQtc3BhY2luZzowcHg7ZmlsbDojZmZmZmZmO2ZpbGwtb3BhY2l0eToxO3N0cm9rZTpub25lO3N0cm9rZS13aWR0aDowLjI2NDU4MzMycHg7c3Ryb2tlLWxpbmVjYXA6YnV0dDtzdHJva2UtbGluZWpvaW46bWl0ZXI7c3Ryb2tlLW9wYWNpdHk6MSIgeD0iOS45NzQ0NjQ0IiB5PSIxNi44MTE3NzUiIGlkPSJ0ZXh0MjA2NiI+PHRzcGFuIGlkPSJ0c3BhbjIwNjQiIHg9IjkuOTc0NDY0NCIgeT0iMTYuODExNzc1IiB0ZXh0LWFuY2hvcj0ibWlkZGxlIiBzdHlsZT0iZm9udC1zdHlsZTpub3JtYWw7Zm9udC12YXJpYW50Om5vcm1hbDtmb250LXdlaWdodDpub3JtYWw7Zm9udC1zdHJldGNoOm5vcm1hbDtmb250LXNpemU6Mi44MjIyMjIyM3B4O2ZvbnQtZmFtaWx5OkFyaWFsOy1pbmtzY2FwZS1mb250LXNwZWNpZmljYXRpb246J0FyaWFsLCBOb3JtYWwnO3RleHQtYWxpZ246Y2VudGVyO3dyaXRpbmctbW9kZTpsci10YjtmaWxsOiNmZmZmZmY7ZmlsbC1vcGFjaXR5OjE7c3Ryb2tlLXdpZHRoOjAuMjY0NTgzMzJweCI+ZGVwbG95PC90c3Bhbj48L3RleHQ+JiN4YTsgICAgPGcgdHJhbnNmb3JtPSJ0cmFuc2xhdGUoLTAuNjUzODU1NDYsMCkiIGlkPSJnMzM0MCI+JiN4YTsgICAgICA8cGF0aCBpZD0icGF0aDEyMjIiIGQ9Im0gMTAuMjI1MDYyLDEzLjczMTYzMiAwLDAgQyA3Ljc4MjQyMTgsMTMuODQ3MTc3IDUuNzA1MDExNiwxMS45NjgzODYgNS41NzUzNDE3LDkuNTI2NDYzNCA1LjQ0NTY1MTYsNy4wODQ1NDA1IDcuMzEyNDAxOCw0Ljk5NjI5MDUgOS43NTM1MzE4LDQuODUyNDc5NSBjIDIuNDQxMTIwMiwtMC4xNDM4MTEgNC41NDAxNDEyLDEuNzEwODEgNC42OTgwODEyLDQuMTUxMDY4MiBsIC0xLjc1NzA4MSwwLjExMzcyMDggYyAtMC4wOTU0LC0xLjQ3MzgxOCAtMS4zNjMxMSwtMi41OTM5MzUgLTIuODM3NDYwMiwtMi41MDcwOCAtMS40NzQzNCwwLjA4Njg2IC0yLjYwMTc4LDEuMzQ4MDc2MSAtMi41MjM0NiwyLjgyMjg5OTEgMC4wNzgzLDEuNDc0ODIyNCAxLjMzMywyLjYwOTUzODQgMi44MDgyNTAyLDIuNTM5NzUzNCB6IiBzdHlsZT0iZmlsbDojZmZmZmZmO2ZpbGwtcnVsZTpldmVub2RkO3N0cm9rZTpub25lO3N0cm9rZS13aWR0aDowLjI2NDU4MzMyO3N0cm9rZS1saW5lY2FwOnNxdWFyZTtzdHJva2UtbWl0ZXJsaW1pdDoxMCIvPiYjeGE7ICAgICAgPHBhdGggaWQ9InBhdGgxMjI0IiBkPSJtIDExLjEzNTU3NCw5LjAwODgwMTUgMS4zOTc0NSwzLjQyMDUwODUgMy4yMjYzLC0zLjQyMDUwODUgeiIgc3R5bGU9ImZpbGw6I2ZmZmZmZjtmaWxsLXJ1bGU6ZXZlbm9kZDtzdHJva2U6bm9uZTtzdHJva2Utd2lkdGg6MC4yNjQ1ODMzMjtzdHJva2UtbGluZWNhcDpzcXVhcmU7c3Ryb2tlLW1pdGVybGltaXQ6MTAiLz4mI3hhOyAgICA8L2c+JiN4YTsgIDwvZz4mI3hhOzwvc3ZnPg==;dashed=1;fontSize=8;" parent="1" vertex="1">
          <mxGeometry x="605" y="273.5" width="30" height="30" as="geometry" />
        </mxCell>
        <mxCell id="24" style="edgeStyle=none;html=1;exitX=0;exitY=0.5;exitDx=0;exitDy=0;entryX=1;entryY=0.5;entryDx=0;entryDy=0;fontSize=8;strokeColor=#808080;" parent="1" source="23" target="20" edge="1">
          <mxGeometry relative="1" as="geometry" />
        </mxCell>
        <mxCell id="23" value="" style="shape=image;verticalLabelPosition=bottom;verticalAlign=top;imageAspect=0;aspect=fixed;image=data:image/svg+xml,PHN2ZyB4bWxucz0iaHR0cDovL3d3dy53My5vcmcvMjAwMC9zdmciIGlkPSJzdmcxMzgyNiIgdmVyc2lvbj0iMS4xIiB2aWV3Qm94PSIwIDAgMTguMDM1MzM0IDE3LjUwMDM3OCIgaGVpZ2h0PSIxNy41MDAzNzhtbSIgd2lkdGg9IjE4LjAzNTMzNG1tIj4mI3hhOyAgPGRlZnMgaWQ9ImRlZnMxMzgyMCIvPiYjeGE7ICAmI3hhOyAgPG1ldGFkYXRhIGlkPSJtZXRhZGF0YTEzODIzIj4mI3hhOyAgICAmI3hhOyAgICAgICYjeGE7ICAgICAgICBpbWFnZS9zdmcreG1sJiN4YTsgICAgICAgICYjeGE7ICAgICAgICAmI3hhOyAgICAgICYjeGE7ICAgICYjeGE7ICA8L21ldGFkYXRhPiYjeGE7ICA8ZyB0cmFuc2Zvcm09InRyYW5zbGF0ZSgtMC45OTI2MjYzOCwtMS4xNzQxODEpIiBpZD0ibGF5ZXIxIj4mI3hhOyAgICA8ZyB0cmFuc2Zvcm09Im1hdHJpeCgxLjAxNDg4ODcsMCwwLDEuMDE0ODg4NywxNi45MDIxNDYsLTIuNjk4NzI2KSIgaWQ9Imc3MCI+JiN4YTsgICAgICA8cGF0aCBzdHlsZT0iZmlsbDojMzI2Y2U1O2ZpbGwtb3BhY2l0eToxO3N0cm9rZTpub25lO3N0cm9rZS13aWR0aDowO3N0cm9rZS1taXRlcmxpbWl0OjQ7c3Ryb2tlLWRhc2hhcnJheTpub25lO3N0cm9rZS1vcGFjaXR5OjEiIGQ9Im0gLTYuODQ5MjAxNSw0LjI3MjQ2NjggYSAxLjExOTEyNTUsMS4xMDk5NjcxIDAgMCAwIC0wLjQyODg4MTgsMC4xMDg1MzAzIGwgLTUuODUyNDAzNywyLjc5NjMzOTQgYSAxLjExOTEyNTUsMS4xMDk5NjcxIDAgMCAwIC0wLjYwNTUyNCwwLjc1Mjk3NTkgbCAtMS40NDM4MjgsNi4yODEyODQ2IGEgMS4xMTkxMjU1LDEuMTA5OTY3MSAwIDAgMCAwLjE1MTk0MywwLjg1MTAyOCAxLjExOTEyNTUsMS4xMDk5NjcxIDAgMCAwIDAuMDYzNjIsMC4wODgzMiBsIDQuMDUwOCw1LjAzNjU1NSBhIDEuMTE5MTI1NSwxLjEwOTk2NzEgMCAwIDAgMC44NzQ5NzksMC40MTc2NTQgbCA2LjQ5NjEwMTEsLTAuMDAxNSBhIDEuMTE5MTI1NSwxLjEwOTk2NzEgMCAwIDAgMC44NzQ5Nzg4LC0wLjQxNjkwNiBMIDEuMzgxODg3MiwxNS4xNDk0NTMgQSAxLjExOTEyNTUsMS4xMDk5NjcxIDAgMCAwIDEuNTk4MTk4NiwxNC4yMTAxMDQgTCAwLjE1MjEyNjU3LDcuOTI4ODE1NCBBIDEuMTE5MTI1NSwxLjEwOTk2NzEgMCAwIDAgLTAuNDUzMzk3OTQsNy4xNzU4Mzk2IEwgLTYuMzA2NTQ5Niw0LjM4MDk5NzEgQSAxLjExOTEyNTUsMS4xMDk5NjcxIDAgMCAwIC02Ljg0OTIwMTUsNC4yNzI0NjY4IFoiIGlkPSJwYXRoMzA1NSIvPiYjeGE7ICAgICAgPHBhdGggdGV4dC1hbmNob3I9InN0YXJ0IiBzdHlsZT0iY29sb3I6IzAwMDAwMDtmb250LXN0eWxlOm5vcm1hbDtmb250LXZhcmlhbnQ6bm9ybWFsO2ZvbnQtd2VpZ2h0Om5vcm1hbDtmb250LXN0cmV0Y2g6bm9ybWFsO2ZvbnQtc2l6ZTptZWRpdW07bGluZS1oZWlnaHQ6bm9ybWFsO2ZvbnQtZmFtaWx5OlNhbnM7LWlua3NjYXBlLWZvbnQtc3BlY2lmaWNhdGlvbjpTYW5zO3RleHQtaW5kZW50OjA7dGV4dC1hbGlnbjpzdGFydDt0ZXh0LWRlY29yYXRpb246bm9uZTt0ZXh0LWRlY29yYXRpb24tbGluZTpub25lO2xldHRlci1zcGFjaW5nOm5vcm1hbDt3b3JkLXNwYWNpbmc6bm9ybWFsO3RleHQtdHJhbnNmb3JtOm5vbmU7d3JpdGluZy1tb2RlOmxyLXRiO2RpcmVjdGlvbjpsdHI7YmFzZWxpbmUtc2hpZnQ6YmFzZWxpbmU7ZGlzcGxheTppbmxpbmU7b3ZlcmZsb3c6dmlzaWJsZTt2aXNpYmlsaXR5OnZpc2libGU7ZmlsbDojZmZmZmZmO2ZpbGwtb3BhY2l0eToxO2ZpbGwtcnVsZTpub256ZXJvO3N0cm9rZTpub25lO3N0cm9rZS13aWR0aDowO3N0cm9rZS1taXRlcmxpbWl0OjQ7c3Ryb2tlLWRhc2hhcnJheTpub25lO21hcmtlcjpub25lO2VuYWJsZS1iYWNrZ3JvdW5kOmFjY3VtdWxhdGUiIGQ9Ik0gLTYuODUyMzQzNSwzLjgxNzYzNzIgQSAxLjE4MTQzMDQsMS4xNzE3NjIgMCAwIDAgLTcuMzA0NDI4NCwzLjkzMjkwNCBsIC02LjE3ODc0MjYsMi45NTEyNzU4IGEgMS4xODE0MzA0LDEuMTcxNzYyIDAgMCAwIC0wLjYzOTIwNiwwLjc5NDg5MSBsIC0xLjUyMzkxNSw2LjYzMDgyODIgYSAxLjE4MTQzMDQsMS4xNzE3NjIgMCAwIDAgMC4xNjAxNzUsMC44OTg5MyAxLjE4MTQzMDQsMS4xNzE3NjIgMCAwIDAgMC4wNjczNiwwLjA5MjgxIGwgNC4yNzYwOTQsNS4zMTcyMzYgYSAxLjE4MTQzMDQsMS4xNzE3NjIgMCAwIDAgMC45MjM2MywwLjQ0MDg1OCBsIDYuODU3NjE4OCwtMC4wMDE1IGEgMS4xODE0MzA0LDEuMTcxNzYyIDAgMCAwIDAuOTIzNjMwOCwtMC40NDAxMSBsIDQuMjc0NTk2NiwtNS4zMTc5ODUgYSAxLjE4MTQzMDQsMS4xNzE3NjIgMCAwIDAgMC4yMjgyODgsLTAuOTkwOTkzIEwgMC41Mzg5NDQzOSw3LjY3NzU3MzggQSAxLjE4MTQzMDQsMS4xNzE3NjIgMCAwIDAgLTAuMTAwMjYxMDEsNi44ODM0MzEzIEwgLTYuMjc5MDAzNywzLjkzMjE1NTUgQSAxLjE4MTQzMDQsMS4xNzE3NjIgMCAwIDAgLTYuODUyMzQzNSwzLjgxNzYzNzIgWiBtIDAuMDAyOTksMC40NTUwNzg5IGEgMS4xMTkxMjU1LDEuMTA5OTY3MSAwIDAgMSAwLjU0MjY1MTcsMC4xMDg1MzAzIGwgNS44NTMxNTE2OSwyLjc5NDg0MjUgQSAxLjExOTEyNTUsMS4xMDk5NjcxIDAgMCAxIDAuMTUxOTc4MTEsNy45MjkwNjQ4IEwgMS41OTgwNTEsMTQuMjEwMzUgYSAxLjExOTEyNTUsMS4xMDk5NjcxIDAgMCAxIC0wLjIxNjMxMjMsMC45MzkzNDggbCAtNC4wNDkzMDMyLDUuMDM3MzA0IGEgMS4xMTkxMjU1LDEuMTA5OTY3MSAwIDAgMSAtMC44NzQ5Nzg5LDAuNDE2OTA2IGwgLTYuNDk2MTAwNiwwLjAwMTUgYSAxLjExOTEyNTUsMS4xMDk5NjcxIDAgMCAxIC0wLjg3NDk3OSwtMC40MTc2NTIgbCAtNC4wNTA4LC01LjAzNjU1NCBhIDEuMTE5MTI1NSwxLjEwOTk2NzEgMCAwIDEgLTAuMDYzNjIsLTAuMDg4MzIgMS4xMTkxMjU1LDEuMTA5OTY3MSAwIDAgMSAtMC4xNTE5NDIsLTAuODUxMDI4IGwgMS40NDM4MjcsLTYuMjgxMjg1MyBhIDEuMTE5MTI1NSwxLjEwOTk2NzEgMCAwIDEgMC42MDU1MjQsLTAuNzUyOTc1OCBsIDUuODUyNDAzNiwtMi43OTYzMzk1IGEgMS4xMTkxMjU1LDEuMTA5OTY3MSAwIDAgMSAwLjQyODg4MTksLTAuMTA4NTMwMyB6IiBpZD0icGF0aDMwNTQtMi05Ii8+JiN4YTsgICAgPC9nPiYjeGE7ICAgIDx0ZXh0IHhtbDpzcGFjZT0icHJlc2VydmUiIHN0eWxlPSJmb250LXN0eWxlOm5vcm1hbDtmb250LXdlaWdodDpub3JtYWw7Zm9udC1zaXplOjEwLjU4MzMzMzAycHg7bGluZS1oZWlnaHQ6Ni42MTQ1ODM0OXB4O2ZvbnQtZmFtaWx5OlNhbnM7bGV0dGVyLXNwYWNpbmc6MHB4O3dvcmQtc3BhY2luZzowcHg7ZmlsbDojZmZmZmZmO2ZpbGwtb3BhY2l0eToxO3N0cm9rZTpub25lO3N0cm9rZS13aWR0aDowLjI2NDU4MzMycHg7c3Ryb2tlLWxpbmVjYXA6YnV0dDtzdHJva2UtbGluZWpvaW46bWl0ZXI7c3Ryb2tlLW9wYWNpdHk6MSIgeD0iOS45NzMwODY0IiB5PSIxNi44MTE3NzUiIGlkPSJ0ZXh0MjA2NiI+PHRzcGFuIGlkPSJ0c3BhbjIwNjQiIHg9IjkuOTczMDg2NCIgeT0iMTYuODExNzc1IiB0ZXh0LWFuY2hvcj0ibWlkZGxlIiBzdHlsZT0iZm9udC1zdHlsZTpub3JtYWw7Zm9udC12YXJpYW50Om5vcm1hbDtmb250LXdlaWdodDpub3JtYWw7Zm9udC1zdHJldGNoOm5vcm1hbDtmb250LXNpemU6Mi44MjIyMjIyM3B4O2ZvbnQtZmFtaWx5OkFyaWFsOy1pbmtzY2FwZS1mb250LXNwZWNpZmljYXRpb246J0FyaWFsLCBOb3JtYWwnO3RleHQtYWxpZ246Y2VudGVyO3dyaXRpbmctbW9kZTpsci10YjtmaWxsOiNmZmZmZmY7ZmlsbC1vcGFjaXR5OjE7c3Ryb2tlLXdpZHRoOjAuMjY0NTgzMzJweCI+cnM8L3RzcGFuPjwvdGV4dD4mI3hhOyAgICA8ZyB0cmFuc2Zvcm09InRyYW5zbGF0ZSgwLjE2Mjk4MTA3LDApIiBpZD0iZzMzNDIiPiYjeGE7ICAgICAgPHBhdGggaWQ9InBhdGgxMTU4IiBkPSJtIDguMTIzNjA5LDUuNTUyNDA4NCA2LjUyNDk5LDAgMCw0LjU4MzMzNDYgLTYuNTI0OTksMCB6IiBzdHlsZT0iZmlsbDojMzI2Y2U1O2ZpbGwtb3BhY2l0eToxO2ZpbGwtcnVsZTpldmVub2RkO3N0cm9rZTojZmZmZmZmO3N0cm9rZS13aWR0aDowLjUyODk5OTk4O3N0cm9rZS1saW5lY2FwOnNxdWFyZTtzdHJva2UtbGluZWpvaW46cm91bmQ7c3Ryb2tlLW1pdGVybGltaXQ6MTA7c3Ryb2tlLWRhc2hhcnJheToxLjU4NzAwMDAxLCAxLjU4NzAwMDAxO3N0cm9rZS1kYXNob2Zmc2V0OjMuNjY1OTcwMDk7c3Ryb2tlLW9wYWNpdHk6MSIvPiYjeGE7ICAgICAgPHBhdGggaWQ9InBhdGgxMTYyIiBkPSJtIDYuNTg0ODU4OCw2Ljk2MzcxOTQgNi41MjQ5OTAyLDAgMCw0LjU4MzMzNDYgLTYuNTI0OTkwMiwwIHoiIHN0eWxlPSJmaWxsOiMzMjZjZTU7ZmlsbC1vcGFjaXR5OjE7ZmlsbC1ydWxlOmV2ZW5vZGQ7c3Ryb2tlOiNmZmZmZmY7c3Ryb2tlLXdpZHRoOjAuNTI5MTQ1ODQ7c3Ryb2tlLWxpbmVjYXA6c3F1YXJlO3N0cm9rZS1saW5lam9pbjpyb3VuZDtzdHJva2UtbWl0ZXJsaW1pdDoxMDtzdHJva2UtZGFzaGFycmF5OjEuNTg3NDM3NTYsIDEuNTg3NDM3NTY7c3Ryb2tlLWRhc2hvZmZzZXQ6My44Nzg2Mzg5ODtzdHJva2Utb3BhY2l0eToxIi8+JiN4YTsgICAgICA8cGF0aCBpZD0icGF0aDExNjQiIGQ9Im0gNS4wNDYxMDg4LDguMzc1MDMxNCA2LjUyNTAwMDIsMCAwLDQuNTgzMzM0NiAtNi41MjUwMDAyLDAgeiIgc3R5bGU9ImZpbGw6I2ZmZmZmZjtmaWxsLXJ1bGU6ZXZlbm9kZDtzdHJva2U6bm9uZTtzdHJva2Utd2lkdGg6MC4yNjQ1ODMzMjtzdHJva2UtbGluZWNhcDpzcXVhcmU7c3Ryb2tlLW1pdGVybGltaXQ6MTAiLz4mI3hhOyAgICAgIDxwYXRoIGlkPSJwYXRoMTE2NiIgZD0ibSA1LjA0NjEwODgsOC4zNzUwMzE0IDYuNTI1MDAwMiwwIDAsNC41ODMzMzQ2IC02LjUyNTAwMDIsMCB6IiBzdHlsZT0iZmlsbDpub25lO2ZpbGwtcnVsZTpldmVub2RkO3N0cm9rZTojZmZmZmZmO3N0cm9rZS13aWR0aDowLjUyOTE2NjY0O3N0cm9rZS1saW5lY2FwOmJ1dHQ7c3Ryb2tlLWxpbmVqb2luOnJvdW5kO3N0cm9rZS1taXRlcmxpbWl0OjEwO3N0cm9rZS1vcGFjaXR5OjEiLz4mI3hhOyAgICA8L2c+JiN4YTsgIDwvZz4mI3hhOzwvc3ZnPg==;dashed=1;fontSize=8;" parent="1" vertex="1">
          <mxGeometry x="555" y="273.5" width="30" height="30" as="geometry" />
        </mxCell>
        <mxCell id="Mi3nhXwhfbfwphBiqheP-26" value="" style="rounded=0;whiteSpace=wrap;html=1;dashed=1;" parent="1" vertex="1">
          <mxGeometry x="425" y="479" width="230" height="90" as="geometry" />
        </mxCell>
        <mxCell id="Mi3nhXwhfbfwphBiqheP-27" value="&lt;b&gt;Database utility&lt;/b&gt;" style="text;html=1;strokeColor=none;fillColor=none;align=center;verticalAlign=middle;whiteSpace=wrap;rounded=0;dashed=1;fontSize=8;fontFamily=Open Sans;" parent="1" vertex="1">
          <mxGeometry x="425" y="479" width="230" height="10" as="geometry" />
        </mxCell>
        <mxCell id="Mi3nhXwhfbfwphBiqheP-28" value="&amp;lt;name:&amp;nbsp;pgweb&amp;gt;" style="text;html=1;strokeColor=none;fillColor=none;align=center;verticalAlign=middle;whiteSpace=wrap;rounded=0;dashed=1;fontSize=7;fontStyle=2;fontFamily=Open Sans;" parent="1" vertex="1">
          <mxGeometry x="425" y="489" width="230" height="10" as="geometry" />
        </mxCell>
        <mxCell id="Mi3nhXwhfbfwphBiqheP-30" style="edgeStyle=none;html=1;fontSize=8;strokeColor=#808080;" parent="1" source="Mi3nhXwhfbfwphBiqheP-31" target="Mi3nhXwhfbfwphBiqheP-32" edge="1">
          <mxGeometry relative="1" as="geometry" />
        </mxCell>
        <mxCell id="Mi3nhXwhfbfwphBiqheP-31" value="" style="shape=image;verticalLabelPosition=bottom;verticalAlign=top;imageAspect=0;aspect=fixed;image=data:image/svg+xml,PHN2ZyB4bWxucz0iaHR0cDovL3d3dy53My5vcmcvMjAwMC9zdmciIGlkPSJzdmcxMzgyNiIgdmVyc2lvbj0iMS4xIiB2aWV3Qm94PSIwIDAgMTguMDM1MzM0IDE3LjUwMDM3OCIgaGVpZ2h0PSIxNy41MDAzNzhtbSIgd2lkdGg9IjE4LjAzNTMzNG1tIj4mI3hhOyAgPGRlZnMgaWQ9ImRlZnMxMzgyMCIvPiYjeGE7ICAmI3hhOyAgPG1ldGFkYXRhIGlkPSJtZXRhZGF0YTEzODIzIj4mI3hhOyAgICAmI3hhOyAgICAgICYjeGE7ICAgICAgICBpbWFnZS9zdmcreG1sJiN4YTsgICAgICAgICYjeGE7ICAgICAgICAmI3hhOyAgICAgICYjeGE7ICAgICYjeGE7ICA8L21ldGFkYXRhPiYjeGE7ICA8ZyB0cmFuc2Zvcm09InRyYW5zbGF0ZSgtMC45OTI2MjYzOCwtMS4xNzQxODEpIiBpZD0ibGF5ZXIxIj4mI3hhOyAgICA8ZyB0cmFuc2Zvcm09Im1hdHJpeCgxLjAxNDg4ODcsMCwwLDEuMDE0ODg4NywxNi45MDIxNDYsLTIuNjk4NzI2KSIgaWQ9Imc3MCI+JiN4YTsgICAgICA8cGF0aCBzdHlsZT0iZmlsbDojMzI2Y2U1O2ZpbGwtb3BhY2l0eToxO3N0cm9rZTpub25lO3N0cm9rZS13aWR0aDowO3N0cm9rZS1taXRlcmxpbWl0OjQ7c3Ryb2tlLWRhc2hhcnJheTpub25lO3N0cm9rZS1vcGFjaXR5OjEiIGQ9Im0gLTYuODQ5MjAxNSw0LjI3MjQ2NjggYSAxLjExOTEyNTUsMS4xMDk5NjcxIDAgMCAwIC0wLjQyODg4MTgsMC4xMDg1MzAzIGwgLTUuODUyNDAzNywyLjc5NjMzOTQgYSAxLjExOTEyNTUsMS4xMDk5NjcxIDAgMCAwIC0wLjYwNTUyNCwwLjc1Mjk3NTkgbCAtMS40NDM4MjgsNi4yODEyODQ2IGEgMS4xMTkxMjU1LDEuMTA5OTY3MSAwIDAgMCAwLjE1MTk0MywwLjg1MTAyOCAxLjExOTEyNTUsMS4xMDk5NjcxIDAgMCAwIDAuMDYzNjIsMC4wODgzMiBsIDQuMDUwOCw1LjAzNjU1NSBhIDEuMTE5MTI1NSwxLjEwOTk2NzEgMCAwIDAgMC44NzQ5NzksMC40MTc2NTQgbCA2LjQ5NjEwMTEsLTAuMDAxNSBhIDEuMTE5MTI1NSwxLjEwOTk2NzEgMCAwIDAgMC44NzQ5Nzg4LC0wLjQxNjkwNiBMIDEuMzgxODg3MiwxNS4xNDk0NTMgQSAxLjExOTEyNTUsMS4xMDk5NjcxIDAgMCAwIDEuNTk4MTk4NiwxNC4yMTAxMDQgTCAwLjE1MjEyNjU3LDcuOTI4ODE1NCBBIDEuMTE5MTI1NSwxLjEwOTk2NzEgMCAwIDAgLTAuNDUzMzk3OTQsNy4xNzU4Mzk2IEwgLTYuMzA2NTQ5Niw0LjM4MDk5NzEgQSAxLjExOTEyNTUsMS4xMDk5NjcxIDAgMCAwIC02Ljg0OTIwMTUsNC4yNzI0NjY4IFoiIGlkPSJwYXRoMzA1NSIvPiYjeGE7ICAgICAgPHBhdGggdGV4dC1hbmNob3I9InN0YXJ0IiBzdHlsZT0iY29sb3I6IzAwMDAwMDtmb250LXN0eWxlOm5vcm1hbDtmb250LXZhcmlhbnQ6bm9ybWFsO2ZvbnQtd2VpZ2h0Om5vcm1hbDtmb250LXN0cmV0Y2g6bm9ybWFsO2ZvbnQtc2l6ZTptZWRpdW07bGluZS1oZWlnaHQ6bm9ybWFsO2ZvbnQtZmFtaWx5OlNhbnM7LWlua3NjYXBlLWZvbnQtc3BlY2lmaWNhdGlvbjpTYW5zO3RleHQtaW5kZW50OjA7dGV4dC1hbGlnbjpzdGFydDt0ZXh0LWRlY29yYXRpb246bm9uZTt0ZXh0LWRlY29yYXRpb24tbGluZTpub25lO2xldHRlci1zcGFjaW5nOm5vcm1hbDt3b3JkLXNwYWNpbmc6bm9ybWFsO3RleHQtdHJhbnNmb3JtOm5vbmU7d3JpdGluZy1tb2RlOmxyLXRiO2RpcmVjdGlvbjpsdHI7YmFzZWxpbmUtc2hpZnQ6YmFzZWxpbmU7ZGlzcGxheTppbmxpbmU7b3ZlcmZsb3c6dmlzaWJsZTt2aXNpYmlsaXR5OnZpc2libGU7ZmlsbDojZmZmZmZmO2ZpbGwtb3BhY2l0eToxO2ZpbGwtcnVsZTpub256ZXJvO3N0cm9rZTpub25lO3N0cm9rZS13aWR0aDowO3N0cm9rZS1taXRlcmxpbWl0OjQ7c3Ryb2tlLWRhc2hhcnJheTpub25lO21hcmtlcjpub25lO2VuYWJsZS1iYWNrZ3JvdW5kOmFjY3VtdWxhdGUiIGQ9Ik0gLTYuODUyMzQzNSwzLjgxNzYzNzIgQSAxLjE4MTQzMDQsMS4xNzE3NjIgMCAwIDAgLTcuMzA0NDI4NCwzLjkzMjkwNCBsIC02LjE3ODc0MjYsMi45NTEyNzU4IGEgMS4xODE0MzA0LDEuMTcxNzYyIDAgMCAwIC0wLjYzOTIwNiwwLjc5NDg5MSBsIC0xLjUyMzkxNSw2LjYzMDgyODIgYSAxLjE4MTQzMDQsMS4xNzE3NjIgMCAwIDAgMC4xNjAxNzUsMC44OTg5MyAxLjE4MTQzMDQsMS4xNzE3NjIgMCAwIDAgMC4wNjczNiwwLjA5MjgxIGwgNC4yNzYwOTQsNS4zMTcyMzYgYSAxLjE4MTQzMDQsMS4xNzE3NjIgMCAwIDAgMC45MjM2MywwLjQ0MDg1OCBsIDYuODU3NjE4OCwtMC4wMDE1IGEgMS4xODE0MzA0LDEuMTcxNzYyIDAgMCAwIDAuOTIzNjMwOCwtMC40NDAxMSBsIDQuMjc0NTk2NiwtNS4zMTc5ODUgYSAxLjE4MTQzMDQsMS4xNzE3NjIgMCAwIDAgMC4yMjgyODgsLTAuOTkwOTkzIEwgMC41Mzg5NDQzOSw3LjY3NzU3MzggQSAxLjE4MTQzMDQsMS4xNzE3NjIgMCAwIDAgLTAuMTAwMjYxMDEsNi44ODM0MzEzIEwgLTYuMjc5MDAzNywzLjkzMjE1NTUgQSAxLjE4MTQzMDQsMS4xNzE3NjIgMCAwIDAgLTYuODUyMzQzNSwzLjgxNzYzNzIgWiBtIDAuMDAyOTksMC40NTUwNzg5IGEgMS4xMTkxMjU1LDEuMTA5OTY3MSAwIDAgMSAwLjU0MjY1MTcsMC4xMDg1MzAzIGwgNS44NTMxNTE2OSwyLjc5NDg0MjUgQSAxLjExOTEyNTUsMS4xMDk5NjcxIDAgMCAxIDAuMTUxOTc4MTEsNy45MjkwNjQ4IEwgMS41OTgwNTEsMTQuMjEwMzUgYSAxLjExOTEyNTUsMS4xMDk5NjcxIDAgMCAxIC0wLjIxNjMxMjMsMC45MzkzNDggbCAtNC4wNDkzMDMyLDUuMDM3MzA0IGEgMS4xMTkxMjU1LDEuMTA5OTY3MSAwIDAgMSAtMC44NzQ5Nzg5LDAuNDE2OTA2IGwgLTYuNDk2MTAwNiwwLjAwMTUgYSAxLjExOTEyNTUsMS4xMDk5NjcxIDAgMCAxIC0wLjg3NDk3OSwtMC40MTc2NTIgbCAtNC4wNTA4LC01LjAzNjU1NCBhIDEuMTE5MTI1NSwxLjEwOTk2NzEgMCAwIDEgLTAuMDYzNjIsLTAuMDg4MzIgMS4xMTkxMjU1LDEuMTA5OTY3MSAwIDAgMSAtMC4xNTE5NDIsLTAuODUxMDI4IGwgMS40NDM4MjcsLTYuMjgxMjg1MyBhIDEuMTE5MTI1NSwxLjEwOTk2NzEgMCAwIDEgMC42MDU1MjQsLTAuNzUyOTc1OCBsIDUuODUyNDAzNiwtMi43OTYzMzk1IGEgMS4xMTkxMjU1LDEuMTA5OTY3MSAwIDAgMSAwLjQyODg4MTksLTAuMTA4NTMwMyB6IiBpZD0icGF0aDMwNTQtMi05Ii8+JiN4YTsgICAgPC9nPiYjeGE7ICAgIDx0ZXh0IHhtbDpzcGFjZT0icHJlc2VydmUiIHN0eWxlPSJmb250LXN0eWxlOm5vcm1hbDtmb250LXdlaWdodDpub3JtYWw7Zm9udC1zaXplOjEwLjU4MzMzMzAycHg7bGluZS1oZWlnaHQ6Ni42MTQ1ODM0OXB4O2ZvbnQtZmFtaWx5OlNhbnM7bGV0dGVyLXNwYWNpbmc6MHB4O3dvcmQtc3BhY2luZzowcHg7ZmlsbDojZmZmZmZmO2ZpbGwtb3BhY2l0eToxO3N0cm9rZTpub25lO3N0cm9rZS13aWR0aDowLjI2NDU4MzMycHg7c3Ryb2tlLWxpbmVjYXA6YnV0dDtzdHJva2UtbGluZWpvaW46bWl0ZXI7c3Ryb2tlLW9wYWNpdHk6MSIgeD0iOS45Nzk5NzY3IiB5PSIxNi44MTE3NzUiIGlkPSJ0ZXh0MjA2NiI+PHRzcGFuIGlkPSJ0c3BhbjIwNjQiIHg9IjkuOTc5OTc2NyIgeT0iMTYuODExNzc1IiB0ZXh0LWFuY2hvcj0ibWlkZGxlIiBzdHlsZT0iZm9udC1zdHlsZTpub3JtYWw7Zm9udC12YXJpYW50Om5vcm1hbDtmb250LXdlaWdodDpub3JtYWw7Zm9udC1zdHJldGNoOm5vcm1hbDtmb250LXNpemU6Mi44MjIyMjIyM3B4O2ZvbnQtZmFtaWx5OkFyaWFsOy1pbmtzY2FwZS1mb250LXNwZWNpZmljYXRpb246J0FyaWFsLCBOb3JtYWwnO3RleHQtYWxpZ246Y2VudGVyO3dyaXRpbmctbW9kZTpsci10YjtmaWxsOiNmZmZmZmY7ZmlsbC1vcGFjaXR5OjE7c3Ryb2tlLXdpZHRoOjAuMjY0NTgzMzJweCI+c3ZjPC90c3Bhbj48L3RleHQ+JiN4YTsgICAgPGcgdHJhbnNmb3JtPSJ0cmFuc2xhdGUoMC4wOTIzODgwMSwwKSIgaWQ9ImczMzQ1Ij4mI3hhOyAgICAgIDxwYXRoIGlkPSJwYXRoOTY0IiBkPSJtIDQuNDk0OTg5NiwxMS4yNjA4MjYgMi45MDgzMzExLDAgMCwyLjA0MTY2NyAtMi45MDgzMzExLDAgeiIgc3R5bGU9ImZpbGw6I2ZmZmZmZjtmaWxsLXJ1bGU6ZXZlbm9kZDtzdHJva2U6bm9uZTtzdHJva2Utd2lkdGg6MC4yNjQ1ODMzMjtzdHJva2UtbGluZWNhcDpzcXVhcmU7c3Ryb2tlLW1pdGVybGltaXQ6MTAiLz4mI3hhOyAgICAgIDxwYXRoIGlkPSJwYXRoOTY2IiBkPSJtIDguNDYzNzQwNywxMS4yNjA4MjYgMi45MDgzMzAzLDAgMCwyLjA0MTY2NyAtMi45MDgzMzAzLDAgeiIgc3R5bGU9ImZpbGw6I2ZmZmZmZjtmaWxsLXJ1bGU6ZXZlbm9kZDtzdHJva2U6bm9uZTtzdHJva2Utd2lkdGg6MC4yNjQ1ODMzMjtzdHJva2UtbGluZWNhcDpzcXVhcmU7c3Ryb2tlLW1pdGVybGltaXQ6MTAiLz4mI3hhOyAgICAgIDxwYXRoIGlkPSJwYXRoOTY4IiBkPSJtIDEyLjQzMjQ5MSwxMS4yNjA4MjYgMi45MDgzMywwIDAsMi4wNDE2NjcgLTIuOTA4MzMsMCB6IiBzdHlsZT0iZmlsbDojZmZmZmZmO2ZpbGwtcnVsZTpldmVub2RkO3N0cm9rZTpub25lO3N0cm9rZS13aWR0aDowLjI2NDU4MzMyO3N0cm9rZS1saW5lY2FwOnNxdWFyZTtzdHJva2UtbWl0ZXJsaW1pdDoxMCIvPiYjeGE7ICAgICAgPHBhdGggaWQ9InBhdGg5NzAiIGQ9Im0gNy42MTM3NDA3LDUuMjA4MjkyMSA0LjYwODMzMDMsMCAwLDIuMDQxNjY3IC00LjYwODMzMDMsMCB6IiBzdHlsZT0iZmlsbDojZmZmZmZmO2ZpbGwtcnVsZTpldmVub2RkO3N0cm9rZTpub25lO3N0cm9rZS13aWR0aDowLjI2NDU4MzMyO3N0cm9rZS1saW5lY2FwOnNxdWFyZTtzdHJva2UtbWl0ZXJsaW1pdDoxMCIvPiYjeGE7ICAgICAgPHBhdGggaWQ9InBhdGg5NzgiIGQ9Im0gOS45MTc5MDA1LDcuMjQ5OTYwMSAwLDIuMDA1NDQ5IC0zLjk2NjY3MSwwIDAsMi4wMDI4ODU5IiBzdHlsZT0iZmlsbDpub25lO2ZpbGwtcnVsZTpldmVub2RkO3N0cm9rZTojZmZmZmZmO3N0cm9rZS13aWR0aDowLjUyOTE2NjY0O3N0cm9rZS1saW5lY2FwOmJ1dHQ7c3Ryb2tlLWxpbmVqb2luOnJvdW5kO3N0cm9rZS1taXRlcmxpbWl0OjEwO3N0cm9rZS1vcGFjaXR5OjEiLz4mI3hhOyAgICAgIDxwYXRoIGlkPSJwYXRoOTg2IiBkPSJtIDkuOTE3OTAwNSw3LjI0OTk2MDEgMCwyLjAwNTQ0OSAzLjk2NjY3MDUsMCAwLDIuMDAyODg1OSIgc3R5bGU9ImZpbGw6bm9uZTtmaWxsLXJ1bGU6ZXZlbm9kZDtzdHJva2U6I2ZmZmZmZjtzdHJva2Utd2lkdGg6MC41Mjg5OTk5ODtzdHJva2UtbGluZWNhcDpidXR0O3N0cm9rZS1saW5lam9pbjpyb3VuZDtzdHJva2UtbWl0ZXJsaW1pdDoxMDtzdHJva2UtZGFzaGFycmF5Om5vbmU7c3Ryb2tlLW9wYWNpdHk6MSIvPiYjeGE7ICAgICAgPHBhdGggaWQ9InBhdGg5ODIiIGQ9Im0gOS45MDk1NTM4LDcuMjUxMjI1MSAwLDIuMDA1NDQ5IDAuMDE2NywwIDAsMi4wMDI4ODU5IiBzdHlsZT0iZmlsbDpub25lO2ZpbGwtcnVsZTpldmVub2RkO3N0cm9rZTojZmZmZmZmO3N0cm9rZS13aWR0aDowLjUyOTE2NjY0O3N0cm9rZS1saW5lY2FwOmJ1dHQ7c3Ryb2tlLWxpbmVqb2luOnJvdW5kO3N0cm9rZS1taXRlcmxpbWl0OjEwO3N0cm9rZS1vcGFjaXR5OjEiLz4mI3hhOyAgICA8L2c+JiN4YTsgIDwvZz4mI3hhOzwvc3ZnPg==;dashed=1;fontStyle=0" parent="1" vertex="1">
          <mxGeometry x="455" y="513.5" width="30" height="30" as="geometry" />
        </mxCell>
        <mxCell id="Mi3nhXwhfbfwphBiqheP-32" value="" style="shape=image;verticalLabelPosition=bottom;verticalAlign=top;imageAspect=0;aspect=fixed;image=data:image/svg+xml,PHN2ZyB4bWxucz0iaHR0cDovL3d3dy53My5vcmcvMjAwMC9zdmciIGlkPSJzdmcxMzgyNiIgdmVyc2lvbj0iMS4xIiB2aWV3Qm94PSIwIDAgMTguMDM1MzM0IDE3LjUwMDM3OCIgaGVpZ2h0PSIxNy41MDAzNzhtbSIgd2lkdGg9IjE4LjAzNTMzNG1tIj4mI3hhOyAgPGRlZnMgaWQ9ImRlZnMxMzgyMCIvPiYjeGE7ICAmI3hhOyAgPG1ldGFkYXRhIGlkPSJtZXRhZGF0YTEzODIzIj4mI3hhOyAgICAmI3hhOyAgICAgICYjeGE7ICAgICAgICBpbWFnZS9zdmcreG1sJiN4YTsgICAgICAgICYjeGE7ICAgICAgICAmI3hhOyAgICAgICYjeGE7ICAgICYjeGE7ICA8L21ldGFkYXRhPiYjeGE7ICA8ZyB0cmFuc2Zvcm09InRyYW5zbGF0ZSgtMC45OTI2MjYzOCwtMS4xNzQxODEpIiBpZD0ibGF5ZXIxIj4mI3hhOyAgICA8ZyB0cmFuc2Zvcm09Im1hdHJpeCgxLjAxNDg4ODcsMCwwLDEuMDE0ODg4NywxNi45MDIxNDYsLTIuNjk4NzI2KSIgaWQ9Imc3MCI+JiN4YTsgICAgICA8cGF0aCBzdHlsZT0iZmlsbDojMzI2Y2U1O2ZpbGwtb3BhY2l0eToxO3N0cm9rZTpub25lO3N0cm9rZS13aWR0aDowO3N0cm9rZS1taXRlcmxpbWl0OjQ7c3Ryb2tlLWRhc2hhcnJheTpub25lO3N0cm9rZS1vcGFjaXR5OjEiIGQ9Im0gLTYuODQ5MjAxNSw0LjI3MjQ2NjggYSAxLjExOTEyNTUsMS4xMDk5NjcxIDAgMCAwIC0wLjQyODg4MTgsMC4xMDg1MzAzIGwgLTUuODUyNDAzNywyLjc5NjMzOTQgYSAxLjExOTEyNTUsMS4xMDk5NjcxIDAgMCAwIC0wLjYwNTUyNCwwLjc1Mjk3NTkgbCAtMS40NDM4MjgsNi4yODEyODQ2IGEgMS4xMTkxMjU1LDEuMTA5OTY3MSAwIDAgMCAwLjE1MTk0MywwLjg1MTAyOCAxLjExOTEyNTUsMS4xMDk5NjcxIDAgMCAwIDAuMDYzNjIsMC4wODgzMiBsIDQuMDUwOCw1LjAzNjU1NSBhIDEuMTE5MTI1NSwxLjEwOTk2NzEgMCAwIDAgMC44NzQ5NzksMC40MTc2NTQgbCA2LjQ5NjEwMTEsLTAuMDAxNSBhIDEuMTE5MTI1NSwxLjEwOTk2NzEgMCAwIDAgMC44NzQ5Nzg4LC0wLjQxNjkwNiBMIDEuMzgxODg3MiwxNS4xNDk0NTMgQSAxLjExOTEyNTUsMS4xMDk5NjcxIDAgMCAwIDEuNTk4MTk4NiwxNC4yMTAxMDQgTCAwLjE1MjEyNjU3LDcuOTI4ODE1NCBBIDEuMTE5MTI1NSwxLjEwOTk2NzEgMCAwIDAgLTAuNDUzMzk3OTQsNy4xNzU4Mzk2IEwgLTYuMzA2NTQ5Niw0LjM4MDk5NzEgQSAxLjExOTEyNTUsMS4xMDk5NjcxIDAgMCAwIC02Ljg0OTIwMTUsNC4yNzI0NjY4IFoiIGlkPSJwYXRoMzA1NSIvPiYjeGE7ICAgICAgPHBhdGggdGV4dC1hbmNob3I9InN0YXJ0IiBzdHlsZT0iY29sb3I6IzAwMDAwMDtmb250LXN0eWxlOm5vcm1hbDtmb250LXZhcmlhbnQ6bm9ybWFsO2ZvbnQtd2VpZ2h0Om5vcm1hbDtmb250LXN0cmV0Y2g6bm9ybWFsO2ZvbnQtc2l6ZTptZWRpdW07bGluZS1oZWlnaHQ6bm9ybWFsO2ZvbnQtZmFtaWx5OlNhbnM7LWlua3NjYXBlLWZvbnQtc3BlY2lmaWNhdGlvbjpTYW5zO3RleHQtaW5kZW50OjA7dGV4dC1hbGlnbjpzdGFydDt0ZXh0LWRlY29yYXRpb246bm9uZTt0ZXh0LWRlY29yYXRpb24tbGluZTpub25lO2xldHRlci1zcGFjaW5nOm5vcm1hbDt3b3JkLXNwYWNpbmc6bm9ybWFsO3RleHQtdHJhbnNmb3JtOm5vbmU7d3JpdGluZy1tb2RlOmxyLXRiO2RpcmVjdGlvbjpsdHI7YmFzZWxpbmUtc2hpZnQ6YmFzZWxpbmU7ZGlzcGxheTppbmxpbmU7b3ZlcmZsb3c6dmlzaWJsZTt2aXNpYmlsaXR5OnZpc2libGU7ZmlsbDojZmZmZmZmO2ZpbGwtb3BhY2l0eToxO2ZpbGwtcnVsZTpub256ZXJvO3N0cm9rZTpub25lO3N0cm9rZS13aWR0aDowO3N0cm9rZS1taXRlcmxpbWl0OjQ7c3Ryb2tlLWRhc2hhcnJheTpub25lO21hcmtlcjpub25lO2VuYWJsZS1iYWNrZ3JvdW5kOmFjY3VtdWxhdGUiIGQ9Ik0gLTYuODUyMzQzNSwzLjgxNzYzNzIgQSAxLjE4MTQzMDQsMS4xNzE3NjIgMCAwIDAgLTcuMzA0NDI4NCwzLjkzMjkwNCBsIC02LjE3ODc0MjYsMi45NTEyNzU4IGEgMS4xODE0MzA0LDEuMTcxNzYyIDAgMCAwIC0wLjYzOTIwNiwwLjc5NDg5MSBsIC0xLjUyMzkxNSw2LjYzMDgyODIgYSAxLjE4MTQzMDQsMS4xNzE3NjIgMCAwIDAgMC4xNjAxNzUsMC44OTg5MyAxLjE4MTQzMDQsMS4xNzE3NjIgMCAwIDAgMC4wNjczNiwwLjA5MjgxIGwgNC4yNzYwOTQsNS4zMTcyMzYgYSAxLjE4MTQzMDQsMS4xNzE3NjIgMCAwIDAgMC45MjM2MywwLjQ0MDg1OCBsIDYuODU3NjE4OCwtMC4wMDE1IGEgMS4xODE0MzA0LDEuMTcxNzYyIDAgMCAwIDAuOTIzNjMwOCwtMC40NDAxMSBsIDQuMjc0NTk2NiwtNS4zMTc5ODUgYSAxLjE4MTQzMDQsMS4xNzE3NjIgMCAwIDAgMC4yMjgyODgsLTAuOTkwOTkzIEwgMC41Mzg5NDQzOSw3LjY3NzU3MzggQSAxLjE4MTQzMDQsMS4xNzE3NjIgMCAwIDAgLTAuMTAwMjYxMDEsNi44ODM0MzEzIEwgLTYuMjc5MDAzNywzLjkzMjE1NTUgQSAxLjE4MTQzMDQsMS4xNzE3NjIgMCAwIDAgLTYuODUyMzQzNSwzLjgxNzYzNzIgWiBtIDAuMDAyOTksMC40NTUwNzg5IGEgMS4xMTkxMjU1LDEuMTA5OTY3MSAwIDAgMSAwLjU0MjY1MTcsMC4xMDg1MzAzIGwgNS44NTMxNTE2OSwyLjc5NDg0MjUgQSAxLjExOTEyNTUsMS4xMDk5NjcxIDAgMCAxIDAuMTUxOTc4MTEsNy45MjkwNjQ4IEwgMS41OTgwNTEsMTQuMjEwMzUgYSAxLjExOTEyNTUsMS4xMDk5NjcxIDAgMCAxIC0wLjIxNjMxMjMsMC45MzkzNDggbCAtNC4wNDkzMDMyLDUuMDM3MzA0IGEgMS4xMTkxMjU1LDEuMTA5OTY3MSAwIDAgMSAtMC44NzQ5Nzg5LDAuNDE2OTA2IGwgLTYuNDk2MTAwNiwwLjAwMTUgYSAxLjExOTEyNTUsMS4xMDk5NjcxIDAgMCAxIC0wLjg3NDk3OSwtMC40MTc2NTIgbCAtNC4wNTA4LC01LjAzNjU1NCBhIDEuMTE5MTI1NSwxLjEwOTk2NzEgMCAwIDEgLTAuMDYzNjIsLTAuMDg4MzIgMS4xMTkxMjU1LDEuMTA5OTY3MSAwIDAgMSAtMC4xNTE5NDIsLTAuODUxMDI4IGwgMS40NDM4MjcsLTYuMjgxMjg1MyBhIDEuMTE5MTI1NSwxLjEwOTk2NzEgMCAwIDEgMC42MDU1MjQsLTAuNzUyOTc1OCBsIDUuODUyNDAzNiwtMi43OTYzMzk1IGEgMS4xMTkxMjU1LDEuMTA5OTY3MSAwIDAgMSAwLjQyODg4MTksLTAuMTA4NTMwMyB6IiBpZD0icGF0aDMwNTQtMi05Ii8+JiN4YTsgICAgPC9nPiYjeGE7ICAgIDx0ZXh0IHhtbDpzcGFjZT0icHJlc2VydmUiIHN0eWxlPSJmb250LXN0eWxlOm5vcm1hbDtmb250LXdlaWdodDpub3JtYWw7Zm9udC1zaXplOjEwLjU4MzMzMzAycHg7bGluZS1oZWlnaHQ6Ni42MTQ1ODM0OXB4O2ZvbnQtZmFtaWx5OlNhbnM7bGV0dGVyLXNwYWNpbmc6MHB4O3dvcmQtc3BhY2luZzowcHg7ZmlsbDojZmZmZmZmO2ZpbGwtb3BhY2l0eToxO3N0cm9rZTpub25lO3N0cm9rZS13aWR0aDowLjI2NDU4MzMycHg7c3Ryb2tlLWxpbmVjYXA6YnV0dDtzdHJva2UtbGluZWpvaW46bWl0ZXI7c3Ryb2tlLW9wYWNpdHk6MSIgeD0iMTAuMDE3MTgzIiB5PSIxNi44MTE3NzUiIGlkPSJ0ZXh0MjA2NiI+PHRzcGFuIGlkPSJ0c3BhbjIwNjQiIHg9IjEwLjAxNzE4MyIgeT0iMTYuODExNzc1IiB0ZXh0LWFuY2hvcj0ibWlkZGxlIiBzdHlsZT0iZm9udC1zdHlsZTpub3JtYWw7Zm9udC12YXJpYW50Om5vcm1hbDtmb250LXdlaWdodDpub3JtYWw7Zm9udC1zdHJldGNoOm5vcm1hbDtmb250LXNpemU6Mi44MjIyMjIyM3B4O2ZvbnQtZmFtaWx5OkFyaWFsOy1pbmtzY2FwZS1mb250LXNwZWNpZmljYXRpb246J0FyaWFsLCBOb3JtYWwnO3RleHQtYWxpZ246Y2VudGVyO3dyaXRpbmctbW9kZTpsci10YjtmaWxsOiNmZmZmZmY7ZmlsbC1vcGFjaXR5OjE7c3Ryb2tlLXdpZHRoOjAuMjY0NTgzMzJweCI+cG9kPC90c3Bhbj48L3RleHQ+JiN4YTsgICAgPGcgdHJhbnNmb3JtPSJ0cmFuc2xhdGUoMC4xMjc2NjY2MSwwKSIgaWQ9ImczMzQxIj4mI3hhOyAgICAgIDxwYXRoIGlkPSJwYXRoOTEwIiBkPSJNIDYuMjYxNzkxNCw3LjAzNjA4NiA5Ljg4MjYzMTcsNS45ODYwODcgMTMuNTAzNDYyLDcuMDM2MDg2IDkuODgyNjMxNyw4LjA4NjA4NyBaIiBzdHlsZT0iZmlsbDojZmZmZmZmO2ZpbGwtcnVsZTpldmVub2RkO3N0cm9rZTpub25lO3N0cm9rZS13aWR0aDowLjI2NDU4MzMyO3N0cm9rZS1saW5lY2FwOnNxdWFyZTtzdHJva2UtbWl0ZXJsaW1pdDoxMCIvPiYjeGE7ICAgICAgPHBhdGggaWQ9InBhdGg5MTIiIGQ9Im0gNi4yNjE3OTE0LDcuNDM4MTcgMCwzLjg1Mjc3OCAzLjM3MzYxMDMsMS44Njg3NDkgMC4wMTY3LC00LjcxMzE5MyB6IiBzdHlsZT0iZmlsbDojZmZmZmZmO2ZpbGwtcnVsZTpldmVub2RkO3N0cm9rZTpub25lO3N0cm9rZS13aWR0aDowLjI2NDU4MzMyO3N0cm9rZS1saW5lY2FwOnNxdWFyZTtzdHJva2UtbWl0ZXJsaW1pdDoxMCIvPiYjeGE7ICAgICAgPHBhdGggaWQ9InBhdGg5MTQiIGQ9Im0gMTMuNTAzNDYyLDcuNDM4MTcgMCwzLjg1Mjc3OCAtMy4zNzM2MSwxLjg2ODc0OSAtMC4wMTY3LC00LjcxMzE5MyB6IiBzdHlsZT0iZmlsbDojZmZmZmZmO2ZpbGwtcnVsZTpldmVub2RkO3N0cm9rZTpub25lO3N0cm9rZS13aWR0aDowLjI2NDU4MzMyO3N0cm9rZS1saW5lY2FwOnNxdWFyZTtzdHJva2UtbWl0ZXJsaW1pdDoxMCIvPiYjeGE7ICAgIDwvZz4mI3hhOyAgPC9nPiYjeGE7PC9zdmc+;dashed=1;fontSize=8;" parent="1" vertex="1">
          <mxGeometry x="505" y="513.5" width="30" height="30" as="geometry" />
        </mxCell>
        <mxCell id="Mi3nhXwhfbfwphBiqheP-33" style="edgeStyle=none;html=1;entryX=1;entryY=0.5;entryDx=0;entryDy=0;fontSize=8;strokeColor=#808080;" parent="1" source="Mi3nhXwhfbfwphBiqheP-34" target="Mi3nhXwhfbfwphBiqheP-36" edge="1">
          <mxGeometry relative="1" as="geometry" />
        </mxCell>
        <mxCell id="Mi3nhXwhfbfwphBiqheP-34" value="" style="shape=image;verticalLabelPosition=bottom;verticalAlign=top;imageAspect=0;aspect=fixed;image=data:image/svg+xml,PHN2ZyB4bWxucz0iaHR0cDovL3d3dy53My5vcmcvMjAwMC9zdmciIGlkPSJzdmcxMzgyNiIgdmVyc2lvbj0iMS4xIiB2aWV3Qm94PSIwIDAgMTguMDM1MzM0IDE3LjUwMDM3OCIgaGVpZ2h0PSIxNy41MDAzNzhtbSIgd2lkdGg9IjE4LjAzNTMzNG1tIj4mI3hhOyAgPGRlZnMgaWQ9ImRlZnMxMzgyMCIvPiYjeGE7ICAmI3hhOyAgPG1ldGFkYXRhIGlkPSJtZXRhZGF0YTEzODIzIj4mI3hhOyAgICAmI3hhOyAgICAgICYjeGE7ICAgICAgICBpbWFnZS9zdmcreG1sJiN4YTsgICAgICAgICYjeGE7ICAgICAgICAmI3hhOyAgICAgICYjeGE7ICAgICYjeGE7ICA8L21ldGFkYXRhPiYjeGE7ICA8ZyB0cmFuc2Zvcm09InRyYW5zbGF0ZSgtMC45OTI2MjYzOCwtMS4xNzQxODEpIiBpZD0ibGF5ZXIxIj4mI3hhOyAgICA8ZyB0cmFuc2Zvcm09Im1hdHJpeCgxLjAxNDg4ODcsMCwwLDEuMDE0ODg4NywxNi45MDIxNDYsLTIuNjk4NzI2KSIgaWQ9Imc3MCI+JiN4YTsgICAgICA8cGF0aCBzdHlsZT0iZmlsbDojMzI2Y2U1O2ZpbGwtb3BhY2l0eToxO3N0cm9rZTpub25lO3N0cm9rZS13aWR0aDowO3N0cm9rZS1taXRlcmxpbWl0OjQ7c3Ryb2tlLWRhc2hhcnJheTpub25lO3N0cm9rZS1vcGFjaXR5OjEiIGQ9Im0gLTYuODQ5MjAxNSw0LjI3MjQ2NjggYSAxLjExOTEyNTUsMS4xMDk5NjcxIDAgMCAwIC0wLjQyODg4MTgsMC4xMDg1MzAzIGwgLTUuODUyNDAzNywyLjc5NjMzOTQgYSAxLjExOTEyNTUsMS4xMDk5NjcxIDAgMCAwIC0wLjYwNTUyNCwwLjc1Mjk3NTkgbCAtMS40NDM4MjgsNi4yODEyODQ2IGEgMS4xMTkxMjU1LDEuMTA5OTY3MSAwIDAgMCAwLjE1MTk0MywwLjg1MTAyOCAxLjExOTEyNTUsMS4xMDk5NjcxIDAgMCAwIDAuMDYzNjIsMC4wODgzMiBsIDQuMDUwOCw1LjAzNjU1NSBhIDEuMTE5MTI1NSwxLjEwOTk2NzEgMCAwIDAgMC44NzQ5NzksMC40MTc2NTQgbCA2LjQ5NjEwMTEsLTAuMDAxNSBhIDEuMTE5MTI1NSwxLjEwOTk2NzEgMCAwIDAgMC44NzQ5Nzg4LC0wLjQxNjkwNiBMIDEuMzgxODg3MiwxNS4xNDk0NTMgQSAxLjExOTEyNTUsMS4xMDk5NjcxIDAgMCAwIDEuNTk4MTk4NiwxNC4yMTAxMDQgTCAwLjE1MjEyNjU3LDcuOTI4ODE1NCBBIDEuMTE5MTI1NSwxLjEwOTk2NzEgMCAwIDAgLTAuNDUzMzk3OTQsNy4xNzU4Mzk2IEwgLTYuMzA2NTQ5Niw0LjM4MDk5NzEgQSAxLjExOTEyNTUsMS4xMDk5NjcxIDAgMCAwIC02Ljg0OTIwMTUsNC4yNzI0NjY4IFoiIGlkPSJwYXRoMzA1NSIvPiYjeGE7ICAgICAgPHBhdGggdGV4dC1hbmNob3I9InN0YXJ0IiBzdHlsZT0iY29sb3I6IzAwMDAwMDtmb250LXN0eWxlOm5vcm1hbDtmb250LXZhcmlhbnQ6bm9ybWFsO2ZvbnQtd2VpZ2h0Om5vcm1hbDtmb250LXN0cmV0Y2g6bm9ybWFsO2ZvbnQtc2l6ZTptZWRpdW07bGluZS1oZWlnaHQ6bm9ybWFsO2ZvbnQtZmFtaWx5OlNhbnM7LWlua3NjYXBlLWZvbnQtc3BlY2lmaWNhdGlvbjpTYW5zO3RleHQtaW5kZW50OjA7dGV4dC1hbGlnbjpzdGFydDt0ZXh0LWRlY29yYXRpb246bm9uZTt0ZXh0LWRlY29yYXRpb24tbGluZTpub25lO2xldHRlci1zcGFjaW5nOm5vcm1hbDt3b3JkLXNwYWNpbmc6bm9ybWFsO3RleHQtdHJhbnNmb3JtOm5vbmU7d3JpdGluZy1tb2RlOmxyLXRiO2RpcmVjdGlvbjpsdHI7YmFzZWxpbmUtc2hpZnQ6YmFzZWxpbmU7ZGlzcGxheTppbmxpbmU7b3ZlcmZsb3c6dmlzaWJsZTt2aXNpYmlsaXR5OnZpc2libGU7ZmlsbDojZmZmZmZmO2ZpbGwtb3BhY2l0eToxO2ZpbGwtcnVsZTpub256ZXJvO3N0cm9rZTpub25lO3N0cm9rZS13aWR0aDowO3N0cm9rZS1taXRlcmxpbWl0OjQ7c3Ryb2tlLWRhc2hhcnJheTpub25lO21hcmtlcjpub25lO2VuYWJsZS1iYWNrZ3JvdW5kOmFjY3VtdWxhdGUiIGQ9Ik0gLTYuODUyMzQzNSwzLjgxNzYzNzIgQSAxLjE4MTQzMDQsMS4xNzE3NjIgMCAwIDAgLTcuMzA0NDI4NCwzLjkzMjkwNCBsIC02LjE3ODc0MjYsMi45NTEyNzU4IGEgMS4xODE0MzA0LDEuMTcxNzYyIDAgMCAwIC0wLjYzOTIwNiwwLjc5NDg5MSBsIC0xLjUyMzkxNSw2LjYzMDgyODIgYSAxLjE4MTQzMDQsMS4xNzE3NjIgMCAwIDAgMC4xNjAxNzUsMC44OTg5MyAxLjE4MTQzMDQsMS4xNzE3NjIgMCAwIDAgMC4wNjczNiwwLjA5MjgxIGwgNC4yNzYwOTQsNS4zMTcyMzYgYSAxLjE4MTQzMDQsMS4xNzE3NjIgMCAwIDAgMC45MjM2MywwLjQ0MDg1OCBsIDYuODU3NjE4OCwtMC4wMDE1IGEgMS4xODE0MzA0LDEuMTcxNzYyIDAgMCAwIDAuOTIzNjMwOCwtMC40NDAxMSBsIDQuMjc0NTk2NiwtNS4zMTc5ODUgYSAxLjE4MTQzMDQsMS4xNzE3NjIgMCAwIDAgMC4yMjgyODgsLTAuOTkwOTkzIEwgMC41Mzg5NDQzOSw3LjY3NzU3MzggQSAxLjE4MTQzMDQsMS4xNzE3NjIgMCAwIDAgLTAuMTAwMjYxMDEsNi44ODM0MzEzIEwgLTYuMjc5MDAzNywzLjkzMjE1NTUgQSAxLjE4MTQzMDQsMS4xNzE3NjIgMCAwIDAgLTYuODUyMzQzNSwzLjgxNzYzNzIgWiBtIDAuMDAyOTksMC40NTUwNzg5IGEgMS4xMTkxMjU1LDEuMTA5OTY3MSAwIDAgMSAwLjU0MjY1MTcsMC4xMDg1MzAzIGwgNS44NTMxNTE2OSwyLjc5NDg0MjUgQSAxLjExOTEyNTUsMS4xMDk5NjcxIDAgMCAxIDAuMTUxOTc4MTEsNy45MjkwNjQ4IEwgMS41OTgwNTEsMTQuMjEwMzUgYSAxLjExOTEyNTUsMS4xMDk5NjcxIDAgMCAxIC0wLjIxNjMxMjMsMC45MzkzNDggbCAtNC4wNDkzMDMyLDUuMDM3MzA0IGEgMS4xMTkxMjU1LDEuMTA5OTY3MSAwIDAgMSAtMC44NzQ5Nzg5LDAuNDE2OTA2IGwgLTYuNDk2MTAwNiwwLjAwMTUgYSAxLjExOTEyNTUsMS4xMDk5NjcxIDAgMCAxIC0wLjg3NDk3OSwtMC40MTc2NTIgbCAtNC4wNTA4LC01LjAzNjU1NCBhIDEuMTE5MTI1NSwxLjEwOTk2NzEgMCAwIDEgLTAuMDYzNjIsLTAuMDg4MzIgMS4xMTkxMjU1LDEuMTA5OTY3MSAwIDAgMSAtMC4xNTE5NDIsLTAuODUxMDI4IGwgMS40NDM4MjcsLTYuMjgxMjg1MyBhIDEuMTE5MTI1NSwxLjEwOTk2NzEgMCAwIDEgMC42MDU1MjQsLTAuNzUyOTc1OCBsIDUuODUyNDAzNiwtMi43OTYzMzk1IGEgMS4xMTkxMjU1LDEuMTA5OTY3MSAwIDAgMSAwLjQyODg4MTksLTAuMTA4NTMwMyB6IiBpZD0icGF0aDMwNTQtMi05Ii8+JiN4YTsgICAgPC9nPiYjeGE7ICAgIDx0ZXh0IHhtbDpzcGFjZT0icHJlc2VydmUiIHN0eWxlPSJmb250LXN0eWxlOm5vcm1hbDtmb250LXdlaWdodDpub3JtYWw7Zm9udC1zaXplOjEwLjU4MzMzMzAycHg7bGluZS1oZWlnaHQ6Ni42MTQ1ODM0OXB4O2ZvbnQtZmFtaWx5OlNhbnM7bGV0dGVyLXNwYWNpbmc6MHB4O3dvcmQtc3BhY2luZzowcHg7ZmlsbDojZmZmZmZmO2ZpbGwtb3BhY2l0eToxO3N0cm9rZTpub25lO3N0cm9rZS13aWR0aDowLjI2NDU4MzMycHg7c3Ryb2tlLWxpbmVjYXA6YnV0dDtzdHJva2UtbGluZWpvaW46bWl0ZXI7c3Ryb2tlLW9wYWNpdHk6MSIgeD0iOS45NzQ0NjQ0IiB5PSIxNi44MTE3NzUiIGlkPSJ0ZXh0MjA2NiI+PHRzcGFuIGlkPSJ0c3BhbjIwNjQiIHg9IjkuOTc0NDY0NCIgeT0iMTYuODExNzc1IiB0ZXh0LWFuY2hvcj0ibWlkZGxlIiBzdHlsZT0iZm9udC1zdHlsZTpub3JtYWw7Zm9udC12YXJpYW50Om5vcm1hbDtmb250LXdlaWdodDpub3JtYWw7Zm9udC1zdHJldGNoOm5vcm1hbDtmb250LXNpemU6Mi44MjIyMjIyM3B4O2ZvbnQtZmFtaWx5OkFyaWFsOy1pbmtzY2FwZS1mb250LXNwZWNpZmljYXRpb246J0FyaWFsLCBOb3JtYWwnO3RleHQtYWxpZ246Y2VudGVyO3dyaXRpbmctbW9kZTpsci10YjtmaWxsOiNmZmZmZmY7ZmlsbC1vcGFjaXR5OjE7c3Ryb2tlLXdpZHRoOjAuMjY0NTgzMzJweCI+ZGVwbG95PC90c3Bhbj48L3RleHQ+JiN4YTsgICAgPGcgdHJhbnNmb3JtPSJ0cmFuc2xhdGUoLTAuNjUzODU1NDYsMCkiIGlkPSJnMzM0MCI+JiN4YTsgICAgICA8cGF0aCBpZD0icGF0aDEyMjIiIGQ9Im0gMTAuMjI1MDYyLDEzLjczMTYzMiAwLDAgQyA3Ljc4MjQyMTgsMTMuODQ3MTc3IDUuNzA1MDExNiwxMS45NjgzODYgNS41NzUzNDE3LDkuNTI2NDYzNCA1LjQ0NTY1MTYsNy4wODQ1NDA1IDcuMzEyNDAxOCw0Ljk5NjI5MDUgOS43NTM1MzE4LDQuODUyNDc5NSBjIDIuNDQxMTIwMiwtMC4xNDM4MTEgNC41NDAxNDEyLDEuNzEwODEgNC42OTgwODEyLDQuMTUxMDY4MiBsIC0xLjc1NzA4MSwwLjExMzcyMDggYyAtMC4wOTU0LC0xLjQ3MzgxOCAtMS4zNjMxMSwtMi41OTM5MzUgLTIuODM3NDYwMiwtMi41MDcwOCAtMS40NzQzNCwwLjA4Njg2IC0yLjYwMTc4LDEuMzQ4MDc2MSAtMi41MjM0NiwyLjgyMjg5OTEgMC4wNzgzLDEuNDc0ODIyNCAxLjMzMywyLjYwOTUzODQgMi44MDgyNTAyLDIuNTM5NzUzNCB6IiBzdHlsZT0iZmlsbDojZmZmZmZmO2ZpbGwtcnVsZTpldmVub2RkO3N0cm9rZTpub25lO3N0cm9rZS13aWR0aDowLjI2NDU4MzMyO3N0cm9rZS1saW5lY2FwOnNxdWFyZTtzdHJva2UtbWl0ZXJsaW1pdDoxMCIvPiYjeGE7ICAgICAgPHBhdGggaWQ9InBhdGgxMjI0IiBkPSJtIDExLjEzNTU3NCw5LjAwODgwMTUgMS4zOTc0NSwzLjQyMDUwODUgMy4yMjYzLC0zLjQyMDUwODUgeiIgc3R5bGU9ImZpbGw6I2ZmZmZmZjtmaWxsLXJ1bGU6ZXZlbm9kZDtzdHJva2U6bm9uZTtzdHJva2Utd2lkdGg6MC4yNjQ1ODMzMjtzdHJva2UtbGluZWNhcDpzcXVhcmU7c3Ryb2tlLW1pdGVybGltaXQ6MTAiLz4mI3hhOyAgICA8L2c+JiN4YTsgIDwvZz4mI3hhOzwvc3ZnPg==;dashed=1;fontSize=8;" parent="1" vertex="1">
          <mxGeometry x="605" y="513.5" width="30" height="30" as="geometry" />
        </mxCell>
        <mxCell id="Mi3nhXwhfbfwphBiqheP-35" style="edgeStyle=none;html=1;exitX=0;exitY=0.5;exitDx=0;exitDy=0;entryX=1;entryY=0.5;entryDx=0;entryDy=0;fontSize=8;strokeColor=#808080;" parent="1" source="Mi3nhXwhfbfwphBiqheP-36" target="Mi3nhXwhfbfwphBiqheP-32" edge="1">
          <mxGeometry relative="1" as="geometry" />
        </mxCell>
        <mxCell id="Mi3nhXwhfbfwphBiqheP-36" value="" style="shape=image;verticalLabelPosition=bottom;verticalAlign=top;imageAspect=0;aspect=fixed;image=data:image/svg+xml,PHN2ZyB4bWxucz0iaHR0cDovL3d3dy53My5vcmcvMjAwMC9zdmciIGlkPSJzdmcxMzgyNiIgdmVyc2lvbj0iMS4xIiB2aWV3Qm94PSIwIDAgMTguMDM1MzM0IDE3LjUwMDM3OCIgaGVpZ2h0PSIxNy41MDAzNzhtbSIgd2lkdGg9IjE4LjAzNTMzNG1tIj4mI3hhOyAgPGRlZnMgaWQ9ImRlZnMxMzgyMCIvPiYjeGE7ICAmI3hhOyAgPG1ldGFkYXRhIGlkPSJtZXRhZGF0YTEzODIzIj4mI3hhOyAgICAmI3hhOyAgICAgICYjeGE7ICAgICAgICBpbWFnZS9zdmcreG1sJiN4YTsgICAgICAgICYjeGE7ICAgICAgICAmI3hhOyAgICAgICYjeGE7ICAgICYjeGE7ICA8L21ldGFkYXRhPiYjeGE7ICA8ZyB0cmFuc2Zvcm09InRyYW5zbGF0ZSgtMC45OTI2MjYzOCwtMS4xNzQxODEpIiBpZD0ibGF5ZXIxIj4mI3hhOyAgICA8ZyB0cmFuc2Zvcm09Im1hdHJpeCgxLjAxNDg4ODcsMCwwLDEuMDE0ODg4NywxNi45MDIxNDYsLTIuNjk4NzI2KSIgaWQ9Imc3MCI+JiN4YTsgICAgICA8cGF0aCBzdHlsZT0iZmlsbDojMzI2Y2U1O2ZpbGwtb3BhY2l0eToxO3N0cm9rZTpub25lO3N0cm9rZS13aWR0aDowO3N0cm9rZS1taXRlcmxpbWl0OjQ7c3Ryb2tlLWRhc2hhcnJheTpub25lO3N0cm9rZS1vcGFjaXR5OjEiIGQ9Im0gLTYuODQ5MjAxNSw0LjI3MjQ2NjggYSAxLjExOTEyNTUsMS4xMDk5NjcxIDAgMCAwIC0wLjQyODg4MTgsMC4xMDg1MzAzIGwgLTUuODUyNDAzNywyLjc5NjMzOTQgYSAxLjExOTEyNTUsMS4xMDk5NjcxIDAgMCAwIC0wLjYwNTUyNCwwLjc1Mjk3NTkgbCAtMS40NDM4MjgsNi4yODEyODQ2IGEgMS4xMTkxMjU1LDEuMTA5OTY3MSAwIDAgMCAwLjE1MTk0MywwLjg1MTAyOCAxLjExOTEyNTUsMS4xMDk5NjcxIDAgMCAwIDAuMDYzNjIsMC4wODgzMiBsIDQuMDUwOCw1LjAzNjU1NSBhIDEuMTE5MTI1NSwxLjEwOTk2NzEgMCAwIDAgMC44NzQ5NzksMC40MTc2NTQgbCA2LjQ5NjEwMTEsLTAuMDAxNSBhIDEuMTE5MTI1NSwxLjEwOTk2NzEgMCAwIDAgMC44NzQ5Nzg4LC0wLjQxNjkwNiBMIDEuMzgxODg3MiwxNS4xNDk0NTMgQSAxLjExOTEyNTUsMS4xMDk5NjcxIDAgMCAwIDEuNTk4MTk4NiwxNC4yMTAxMDQgTCAwLjE1MjEyNjU3LDcuOTI4ODE1NCBBIDEuMTE5MTI1NSwxLjEwOTk2NzEgMCAwIDAgLTAuNDUzMzk3OTQsNy4xNzU4Mzk2IEwgLTYuMzA2NTQ5Niw0LjM4MDk5NzEgQSAxLjExOTEyNTUsMS4xMDk5NjcxIDAgMCAwIC02Ljg0OTIwMTUsNC4yNzI0NjY4IFoiIGlkPSJwYXRoMzA1NSIvPiYjeGE7ICAgICAgPHBhdGggdGV4dC1hbmNob3I9InN0YXJ0IiBzdHlsZT0iY29sb3I6IzAwMDAwMDtmb250LXN0eWxlOm5vcm1hbDtmb250LXZhcmlhbnQ6bm9ybWFsO2ZvbnQtd2VpZ2h0Om5vcm1hbDtmb250LXN0cmV0Y2g6bm9ybWFsO2ZvbnQtc2l6ZTptZWRpdW07bGluZS1oZWlnaHQ6bm9ybWFsO2ZvbnQtZmFtaWx5OlNhbnM7LWlua3NjYXBlLWZvbnQtc3BlY2lmaWNhdGlvbjpTYW5zO3RleHQtaW5kZW50OjA7dGV4dC1hbGlnbjpzdGFydDt0ZXh0LWRlY29yYXRpb246bm9uZTt0ZXh0LWRlY29yYXRpb24tbGluZTpub25lO2xldHRlci1zcGFjaW5nOm5vcm1hbDt3b3JkLXNwYWNpbmc6bm9ybWFsO3RleHQtdHJhbnNmb3JtOm5vbmU7d3JpdGluZy1tb2RlOmxyLXRiO2RpcmVjdGlvbjpsdHI7YmFzZWxpbmUtc2hpZnQ6YmFzZWxpbmU7ZGlzcGxheTppbmxpbmU7b3ZlcmZsb3c6dmlzaWJsZTt2aXNpYmlsaXR5OnZpc2libGU7ZmlsbDojZmZmZmZmO2ZpbGwtb3BhY2l0eToxO2ZpbGwtcnVsZTpub256ZXJvO3N0cm9rZTpub25lO3N0cm9rZS13aWR0aDowO3N0cm9rZS1taXRlcmxpbWl0OjQ7c3Ryb2tlLWRhc2hhcnJheTpub25lO21hcmtlcjpub25lO2VuYWJsZS1iYWNrZ3JvdW5kOmFjY3VtdWxhdGUiIGQ9Ik0gLTYuODUyMzQzNSwzLjgxNzYzNzIgQSAxLjE4MTQzMDQsMS4xNzE3NjIgMCAwIDAgLTcuMzA0NDI4NCwzLjkzMjkwNCBsIC02LjE3ODc0MjYsMi45NTEyNzU4IGEgMS4xODE0MzA0LDEuMTcxNzYyIDAgMCAwIC0wLjYzOTIwNiwwLjc5NDg5MSBsIC0xLjUyMzkxNSw2LjYzMDgyODIgYSAxLjE4MTQzMDQsMS4xNzE3NjIgMCAwIDAgMC4xNjAxNzUsMC44OTg5MyAxLjE4MTQzMDQsMS4xNzE3NjIgMCAwIDAgMC4wNjczNiwwLjA5MjgxIGwgNC4yNzYwOTQsNS4zMTcyMzYgYSAxLjE4MTQzMDQsMS4xNzE3NjIgMCAwIDAgMC45MjM2MywwLjQ0MDg1OCBsIDYuODU3NjE4OCwtMC4wMDE1IGEgMS4xODE0MzA0LDEuMTcxNzYyIDAgMCAwIDAuOTIzNjMwOCwtMC40NDAxMSBsIDQuMjc0NTk2NiwtNS4zMTc5ODUgYSAxLjE4MTQzMDQsMS4xNzE3NjIgMCAwIDAgMC4yMjgyODgsLTAuOTkwOTkzIEwgMC41Mzg5NDQzOSw3LjY3NzU3MzggQSAxLjE4MTQzMDQsMS4xNzE3NjIgMCAwIDAgLTAuMTAwMjYxMDEsNi44ODM0MzEzIEwgLTYuMjc5MDAzNywzLjkzMjE1NTUgQSAxLjE4MTQzMDQsMS4xNzE3NjIgMCAwIDAgLTYuODUyMzQzNSwzLjgxNzYzNzIgWiBtIDAuMDAyOTksMC40NTUwNzg5IGEgMS4xMTkxMjU1LDEuMTA5OTY3MSAwIDAgMSAwLjU0MjY1MTcsMC4xMDg1MzAzIGwgNS44NTMxNTE2OSwyLjc5NDg0MjUgQSAxLjExOTEyNTUsMS4xMDk5NjcxIDAgMCAxIDAuMTUxOTc4MTEsNy45MjkwNjQ4IEwgMS41OTgwNTEsMTQuMjEwMzUgYSAxLjExOTEyNTUsMS4xMDk5NjcxIDAgMCAxIC0wLjIxNjMxMjMsMC45MzkzNDggbCAtNC4wNDkzMDMyLDUuMDM3MzA0IGEgMS4xMTkxMjU1LDEuMTA5OTY3MSAwIDAgMSAtMC44NzQ5Nzg5LDAuNDE2OTA2IGwgLTYuNDk2MTAwNiwwLjAwMTUgYSAxLjExOTEyNTUsMS4xMDk5NjcxIDAgMCAxIC0wLjg3NDk3OSwtMC40MTc2NTIgbCAtNC4wNTA4LC01LjAzNjU1NCBhIDEuMTE5MTI1NSwxLjEwOTk2NzEgMCAwIDEgLTAuMDYzNjIsLTAuMDg4MzIgMS4xMTkxMjU1LDEuMTA5OTY3MSAwIDAgMSAtMC4xNTE5NDIsLTAuODUxMDI4IGwgMS40NDM4MjcsLTYuMjgxMjg1MyBhIDEuMTE5MTI1NSwxLjEwOTk2NzEgMCAwIDEgMC42MDU1MjQsLTAuNzUyOTc1OCBsIDUuODUyNDAzNiwtMi43OTYzMzk1IGEgMS4xMTkxMjU1LDEuMTA5OTY3MSAwIDAgMSAwLjQyODg4MTksLTAuMTA4NTMwMyB6IiBpZD0icGF0aDMwNTQtMi05Ii8+JiN4YTsgICAgPC9nPiYjeGE7ICAgIDx0ZXh0IHhtbDpzcGFjZT0icHJlc2VydmUiIHN0eWxlPSJmb250LXN0eWxlOm5vcm1hbDtmb250LXdlaWdodDpub3JtYWw7Zm9udC1zaXplOjEwLjU4MzMzMzAycHg7bGluZS1oZWlnaHQ6Ni42MTQ1ODM0OXB4O2ZvbnQtZmFtaWx5OlNhbnM7bGV0dGVyLXNwYWNpbmc6MHB4O3dvcmQtc3BhY2luZzowcHg7ZmlsbDojZmZmZmZmO2ZpbGwtb3BhY2l0eToxO3N0cm9rZTpub25lO3N0cm9rZS13aWR0aDowLjI2NDU4MzMycHg7c3Ryb2tlLWxpbmVjYXA6YnV0dDtzdHJva2UtbGluZWpvaW46bWl0ZXI7c3Ryb2tlLW9wYWNpdHk6MSIgeD0iOS45NzMwODY0IiB5PSIxNi44MTE3NzUiIGlkPSJ0ZXh0MjA2NiI+PHRzcGFuIGlkPSJ0c3BhbjIwNjQiIHg9IjkuOTczMDg2NCIgeT0iMTYuODExNzc1IiB0ZXh0LWFuY2hvcj0ibWlkZGxlIiBzdHlsZT0iZm9udC1zdHlsZTpub3JtYWw7Zm9udC12YXJpYW50Om5vcm1hbDtmb250LXdlaWdodDpub3JtYWw7Zm9udC1zdHJldGNoOm5vcm1hbDtmb250LXNpemU6Mi44MjIyMjIyM3B4O2ZvbnQtZmFtaWx5OkFyaWFsOy1pbmtzY2FwZS1mb250LXNwZWNpZmljYXRpb246J0FyaWFsLCBOb3JtYWwnO3RleHQtYWxpZ246Y2VudGVyO3dyaXRpbmctbW9kZTpsci10YjtmaWxsOiNmZmZmZmY7ZmlsbC1vcGFjaXR5OjE7c3Ryb2tlLXdpZHRoOjAuMjY0NTgzMzJweCI+cnM8L3RzcGFuPjwvdGV4dD4mI3hhOyAgICA8ZyB0cmFuc2Zvcm09InRyYW5zbGF0ZSgwLjE2Mjk4MTA3LDApIiBpZD0iZzMzNDIiPiYjeGE7ICAgICAgPHBhdGggaWQ9InBhdGgxMTU4IiBkPSJtIDguMTIzNjA5LDUuNTUyNDA4NCA2LjUyNDk5LDAgMCw0LjU4MzMzNDYgLTYuNTI0OTksMCB6IiBzdHlsZT0iZmlsbDojMzI2Y2U1O2ZpbGwtb3BhY2l0eToxO2ZpbGwtcnVsZTpldmVub2RkO3N0cm9rZTojZmZmZmZmO3N0cm9rZS13aWR0aDowLjUyODk5OTk4O3N0cm9rZS1saW5lY2FwOnNxdWFyZTtzdHJva2UtbGluZWpvaW46cm91bmQ7c3Ryb2tlLW1pdGVybGltaXQ6MTA7c3Ryb2tlLWRhc2hhcnJheToxLjU4NzAwMDAxLCAxLjU4NzAwMDAxO3N0cm9rZS1kYXNob2Zmc2V0OjMuNjY1OTcwMDk7c3Ryb2tlLW9wYWNpdHk6MSIvPiYjeGE7ICAgICAgPHBhdGggaWQ9InBhdGgxMTYyIiBkPSJtIDYuNTg0ODU4OCw2Ljk2MzcxOTQgNi41MjQ5OTAyLDAgMCw0LjU4MzMzNDYgLTYuNTI0OTkwMiwwIHoiIHN0eWxlPSJmaWxsOiMzMjZjZTU7ZmlsbC1vcGFjaXR5OjE7ZmlsbC1ydWxlOmV2ZW5vZGQ7c3Ryb2tlOiNmZmZmZmY7c3Ryb2tlLXdpZHRoOjAuNTI5MTQ1ODQ7c3Ryb2tlLWxpbmVjYXA6c3F1YXJlO3N0cm9rZS1saW5lam9pbjpyb3VuZDtzdHJva2UtbWl0ZXJsaW1pdDoxMDtzdHJva2UtZGFzaGFycmF5OjEuNTg3NDM3NTYsIDEuNTg3NDM3NTY7c3Ryb2tlLWRhc2hvZmZzZXQ6My44Nzg2Mzg5ODtzdHJva2Utb3BhY2l0eToxIi8+JiN4YTsgICAgICA8cGF0aCBpZD0icGF0aDExNjQiIGQ9Im0gNS4wNDYxMDg4LDguMzc1MDMxNCA2LjUyNTAwMDIsMCAwLDQuNTgzMzM0NiAtNi41MjUwMDAyLDAgeiIgc3R5bGU9ImZpbGw6I2ZmZmZmZjtmaWxsLXJ1bGU6ZXZlbm9kZDtzdHJva2U6bm9uZTtzdHJva2Utd2lkdGg6MC4yNjQ1ODMzMjtzdHJva2UtbGluZWNhcDpzcXVhcmU7c3Ryb2tlLW1pdGVybGltaXQ6MTAiLz4mI3hhOyAgICAgIDxwYXRoIGlkPSJwYXRoMTE2NiIgZD0ibSA1LjA0NjEwODgsOC4zNzUwMzE0IDYuNTI1MDAwMiwwIDAsNC41ODMzMzQ2IC02LjUyNTAwMDIsMCB6IiBzdHlsZT0iZmlsbDpub25lO2ZpbGwtcnVsZTpldmVub2RkO3N0cm9rZTojZmZmZmZmO3N0cm9rZS13aWR0aDowLjUyOTE2NjY0O3N0cm9rZS1saW5lY2FwOmJ1dHQ7c3Ryb2tlLWxpbmVqb2luOnJvdW5kO3N0cm9rZS1taXRlcmxpbWl0OjEwO3N0cm9rZS1vcGFjaXR5OjEiLz4mI3hhOyAgICA8L2c+JiN4YTsgIDwvZz4mI3hhOzwvc3ZnPg==;dashed=1;fontSize=8;" parent="1" vertex="1">
          <mxGeometry x="555" y="513.5" width="30" height="30" as="geometry" />
        </mxCell>
        <mxCell id="Mi3nhXwhfbfwphBiqheP-37" style="edgeStyle=orthogonalEdgeStyle;rounded=0;orthogonalLoop=1;jettySize=auto;html=1;entryX=0;entryY=0.5;entryDx=0;entryDy=0;strokeColor=#FFB570;exitX=1;exitY=0.75;exitDx=0;exitDy=0;" parent="1" source="8" target="Mi3nhXwhfbfwphBiqheP-31" edge="1">
          <mxGeometry relative="1" as="geometry">
            <mxPoint x="375" y="549" as="targetPoint" />
          </mxGeometry>
        </mxCell>
        <mxCell id="Mi3nhXwhfbfwphBiqheP-38" value="&lt;font style=&quot;font-size: 8px;&quot;&gt;/_pgweb&lt;/font&gt;" style="edgeLabel;html=1;align=center;verticalAlign=middle;resizable=0;points=[];fontFamily=Open Sans;fontSize=8;" parent="Mi3nhXwhfbfwphBiqheP-37" vertex="1" connectable="0">
          <mxGeometry x="0.4129" y="1" relative="1" as="geometry">
            <mxPoint y="-73" as="offset" />
          </mxGeometry>
        </mxCell>
        <mxCell id="Mi3nhXwhfbfwphBiqheP-39" value="" style="rounded=0;whiteSpace=wrap;html=1;dashed=1;" parent="1" vertex="1">
          <mxGeometry x="695" y="349" width="240" height="110" as="geometry" />
        </mxCell>
        <mxCell id="Mi3nhXwhfbfwphBiqheP-40" value="&lt;b&gt;Database&lt;/b&gt;" style="text;html=1;strokeColor=none;fillColor=none;align=center;verticalAlign=middle;whiteSpace=wrap;rounded=0;dashed=1;fontSize=8;fontFamily=Open Sans;" parent="1" vertex="1">
          <mxGeometry x="695" y="349" width="240" height="10" as="geometry" />
        </mxCell>
        <mxCell id="Mi3nhXwhfbfwphBiqheP-41" value="&amp;lt;name:&amp;nbsp;postgres&amp;gt;" style="text;html=1;strokeColor=none;fillColor=none;align=center;verticalAlign=middle;whiteSpace=wrap;rounded=0;dashed=1;fontSize=7;fontStyle=2;fontFamily=Open Sans;" parent="1" vertex="1">
          <mxGeometry x="695" y="359" width="240" height="10" as="geometry" />
        </mxCell>
        <mxCell id="Mi3nhXwhfbfwphBiqheP-42" style="edgeStyle=none;html=1;fontSize=8;strokeColor=#808080;" parent="1" source="Mi3nhXwhfbfwphBiqheP-43" target="Mi3nhXwhfbfwphBiqheP-44" edge="1">
          <mxGeometry relative="1" as="geometry" />
        </mxCell>
        <mxCell id="Mi3nhXwhfbfwphBiqheP-43" value="" style="shape=image;verticalLabelPosition=bottom;verticalAlign=top;imageAspect=0;aspect=fixed;image=data:image/svg+xml,PHN2ZyB4bWxucz0iaHR0cDovL3d3dy53My5vcmcvMjAwMC9zdmciIGlkPSJzdmcxMzgyNiIgdmVyc2lvbj0iMS4xIiB2aWV3Qm94PSIwIDAgMTguMDM1MzM0IDE3LjUwMDM3OCIgaGVpZ2h0PSIxNy41MDAzNzhtbSIgd2lkdGg9IjE4LjAzNTMzNG1tIj4mI3hhOyAgPGRlZnMgaWQ9ImRlZnMxMzgyMCIvPiYjeGE7ICAmI3hhOyAgPG1ldGFkYXRhIGlkPSJtZXRhZGF0YTEzODIzIj4mI3hhOyAgICAmI3hhOyAgICAgICYjeGE7ICAgICAgICBpbWFnZS9zdmcreG1sJiN4YTsgICAgICAgICYjeGE7ICAgICAgICAmI3hhOyAgICAgICYjeGE7ICAgICYjeGE7ICA8L21ldGFkYXRhPiYjeGE7ICA8ZyB0cmFuc2Zvcm09InRyYW5zbGF0ZSgtMC45OTI2MjYzOCwtMS4xNzQxODEpIiBpZD0ibGF5ZXIxIj4mI3hhOyAgICA8ZyB0cmFuc2Zvcm09Im1hdHJpeCgxLjAxNDg4ODcsMCwwLDEuMDE0ODg4NywxNi45MDIxNDYsLTIuNjk4NzI2KSIgaWQ9Imc3MCI+JiN4YTsgICAgICA8cGF0aCBzdHlsZT0iZmlsbDojMzI2Y2U1O2ZpbGwtb3BhY2l0eToxO3N0cm9rZTpub25lO3N0cm9rZS13aWR0aDowO3N0cm9rZS1taXRlcmxpbWl0OjQ7c3Ryb2tlLWRhc2hhcnJheTpub25lO3N0cm9rZS1vcGFjaXR5OjEiIGQ9Im0gLTYuODQ5MjAxNSw0LjI3MjQ2NjggYSAxLjExOTEyNTUsMS4xMDk5NjcxIDAgMCAwIC0wLjQyODg4MTgsMC4xMDg1MzAzIGwgLTUuODUyNDAzNywyLjc5NjMzOTQgYSAxLjExOTEyNTUsMS4xMDk5NjcxIDAgMCAwIC0wLjYwNTUyNCwwLjc1Mjk3NTkgbCAtMS40NDM4MjgsNi4yODEyODQ2IGEgMS4xMTkxMjU1LDEuMTA5OTY3MSAwIDAgMCAwLjE1MTk0MywwLjg1MTAyOCAxLjExOTEyNTUsMS4xMDk5NjcxIDAgMCAwIDAuMDYzNjIsMC4wODgzMiBsIDQuMDUwOCw1LjAzNjU1NSBhIDEuMTE5MTI1NSwxLjEwOTk2NzEgMCAwIDAgMC44NzQ5NzksMC40MTc2NTQgbCA2LjQ5NjEwMTEsLTAuMDAxNSBhIDEuMTE5MTI1NSwxLjEwOTk2NzEgMCAwIDAgMC44NzQ5Nzg4LC0wLjQxNjkwNiBMIDEuMzgxODg3MiwxNS4xNDk0NTMgQSAxLjExOTEyNTUsMS4xMDk5NjcxIDAgMCAwIDEuNTk4MTk4NiwxNC4yMTAxMDQgTCAwLjE1MjEyNjU3LDcuOTI4ODE1NCBBIDEuMTE5MTI1NSwxLjEwOTk2NzEgMCAwIDAgLTAuNDUzMzk3OTQsNy4xNzU4Mzk2IEwgLTYuMzA2NTQ5Niw0LjM4MDk5NzEgQSAxLjExOTEyNTUsMS4xMDk5NjcxIDAgMCAwIC02Ljg0OTIwMTUsNC4yNzI0NjY4IFoiIGlkPSJwYXRoMzA1NSIvPiYjeGE7ICAgICAgPHBhdGggdGV4dC1hbmNob3I9InN0YXJ0IiBzdHlsZT0iY29sb3I6IzAwMDAwMDtmb250LXN0eWxlOm5vcm1hbDtmb250LXZhcmlhbnQ6bm9ybWFsO2ZvbnQtd2VpZ2h0Om5vcm1hbDtmb250LXN0cmV0Y2g6bm9ybWFsO2ZvbnQtc2l6ZTptZWRpdW07bGluZS1oZWlnaHQ6bm9ybWFsO2ZvbnQtZmFtaWx5OlNhbnM7LWlua3NjYXBlLWZvbnQtc3BlY2lmaWNhdGlvbjpTYW5zO3RleHQtaW5kZW50OjA7dGV4dC1hbGlnbjpzdGFydDt0ZXh0LWRlY29yYXRpb246bm9uZTt0ZXh0LWRlY29yYXRpb24tbGluZTpub25lO2xldHRlci1zcGFjaW5nOm5vcm1hbDt3b3JkLXNwYWNpbmc6bm9ybWFsO3RleHQtdHJhbnNmb3JtOm5vbmU7d3JpdGluZy1tb2RlOmxyLXRiO2RpcmVjdGlvbjpsdHI7YmFzZWxpbmUtc2hpZnQ6YmFzZWxpbmU7ZGlzcGxheTppbmxpbmU7b3ZlcmZsb3c6dmlzaWJsZTt2aXNpYmlsaXR5OnZpc2libGU7ZmlsbDojZmZmZmZmO2ZpbGwtb3BhY2l0eToxO2ZpbGwtcnVsZTpub256ZXJvO3N0cm9rZTpub25lO3N0cm9rZS13aWR0aDowO3N0cm9rZS1taXRlcmxpbWl0OjQ7c3Ryb2tlLWRhc2hhcnJheTpub25lO21hcmtlcjpub25lO2VuYWJsZS1iYWNrZ3JvdW5kOmFjY3VtdWxhdGUiIGQ9Ik0gLTYuODUyMzQzNSwzLjgxNzYzNzIgQSAxLjE4MTQzMDQsMS4xNzE3NjIgMCAwIDAgLTcuMzA0NDI4NCwzLjkzMjkwNCBsIC02LjE3ODc0MjYsMi45NTEyNzU4IGEgMS4xODE0MzA0LDEuMTcxNzYyIDAgMCAwIC0wLjYzOTIwNiwwLjc5NDg5MSBsIC0xLjUyMzkxNSw2LjYzMDgyODIgYSAxLjE4MTQzMDQsMS4xNzE3NjIgMCAwIDAgMC4xNjAxNzUsMC44OTg5MyAxLjE4MTQzMDQsMS4xNzE3NjIgMCAwIDAgMC4wNjczNiwwLjA5MjgxIGwgNC4yNzYwOTQsNS4zMTcyMzYgYSAxLjE4MTQzMDQsMS4xNzE3NjIgMCAwIDAgMC45MjM2MywwLjQ0MDg1OCBsIDYuODU3NjE4OCwtMC4wMDE1IGEgMS4xODE0MzA0LDEuMTcxNzYyIDAgMCAwIDAuOTIzNjMwOCwtMC40NDAxMSBsIDQuMjc0NTk2NiwtNS4zMTc5ODUgYSAxLjE4MTQzMDQsMS4xNzE3NjIgMCAwIDAgMC4yMjgyODgsLTAuOTkwOTkzIEwgMC41Mzg5NDQzOSw3LjY3NzU3MzggQSAxLjE4MTQzMDQsMS4xNzE3NjIgMCAwIDAgLTAuMTAwMjYxMDEsNi44ODM0MzEzIEwgLTYuMjc5MDAzNywzLjkzMjE1NTUgQSAxLjE4MTQzMDQsMS4xNzE3NjIgMCAwIDAgLTYuODUyMzQzNSwzLjgxNzYzNzIgWiBtIDAuMDAyOTksMC40NTUwNzg5IGEgMS4xMTkxMjU1LDEuMTA5OTY3MSAwIDAgMSAwLjU0MjY1MTcsMC4xMDg1MzAzIGwgNS44NTMxNTE2OSwyLjc5NDg0MjUgQSAxLjExOTEyNTUsMS4xMDk5NjcxIDAgMCAxIDAuMTUxOTc4MTEsNy45MjkwNjQ4IEwgMS41OTgwNTEsMTQuMjEwMzUgYSAxLjExOTEyNTUsMS4xMDk5NjcxIDAgMCAxIC0wLjIxNjMxMjMsMC45MzkzNDggbCAtNC4wNDkzMDMyLDUuMDM3MzA0IGEgMS4xMTkxMjU1LDEuMTA5OTY3MSAwIDAgMSAtMC44NzQ5Nzg5LDAuNDE2OTA2IGwgLTYuNDk2MTAwNiwwLjAwMTUgYSAxLjExOTEyNTUsMS4xMDk5NjcxIDAgMCAxIC0wLjg3NDk3OSwtMC40MTc2NTIgbCAtNC4wNTA4LC01LjAzNjU1NCBhIDEuMTE5MTI1NSwxLjEwOTk2NzEgMCAwIDEgLTAuMDYzNjIsLTAuMDg4MzIgMS4xMTkxMjU1LDEuMTA5OTY3MSAwIDAgMSAtMC4xNTE5NDIsLTAuODUxMDI4IGwgMS40NDM4MjcsLTYuMjgxMjg1MyBhIDEuMTE5MTI1NSwxLjEwOTk2NzEgMCAwIDEgMC42MDU1MjQsLTAuNzUyOTc1OCBsIDUuODUyNDAzNiwtMi43OTYzMzk1IGEgMS4xMTkxMjU1LDEuMTA5OTY3MSAwIDAgMSAwLjQyODg4MTksLTAuMTA4NTMwMyB6IiBpZD0icGF0aDMwNTQtMi05Ii8+JiN4YTsgICAgPC9nPiYjeGE7ICAgIDx0ZXh0IHhtbDpzcGFjZT0icHJlc2VydmUiIHN0eWxlPSJmb250LXN0eWxlOm5vcm1hbDtmb250LXdlaWdodDpub3JtYWw7Zm9udC1zaXplOjEwLjU4MzMzMzAycHg7bGluZS1oZWlnaHQ6Ni42MTQ1ODM0OXB4O2ZvbnQtZmFtaWx5OlNhbnM7bGV0dGVyLXNwYWNpbmc6MHB4O3dvcmQtc3BhY2luZzowcHg7ZmlsbDojZmZmZmZmO2ZpbGwtb3BhY2l0eToxO3N0cm9rZTpub25lO3N0cm9rZS13aWR0aDowLjI2NDU4MzMycHg7c3Ryb2tlLWxpbmVjYXA6YnV0dDtzdHJva2UtbGluZWpvaW46bWl0ZXI7c3Ryb2tlLW9wYWNpdHk6MSIgeD0iOS45Nzk5NzY3IiB5PSIxNi44MTE3NzUiIGlkPSJ0ZXh0MjA2NiI+PHRzcGFuIGlkPSJ0c3BhbjIwNjQiIHg9IjkuOTc5OTc2NyIgeT0iMTYuODExNzc1IiB0ZXh0LWFuY2hvcj0ibWlkZGxlIiBzdHlsZT0iZm9udC1zdHlsZTpub3JtYWw7Zm9udC12YXJpYW50Om5vcm1hbDtmb250LXdlaWdodDpub3JtYWw7Zm9udC1zdHJldGNoOm5vcm1hbDtmb250LXNpemU6Mi44MjIyMjIyM3B4O2ZvbnQtZmFtaWx5OkFyaWFsOy1pbmtzY2FwZS1mb250LXNwZWNpZmljYXRpb246J0FyaWFsLCBOb3JtYWwnO3RleHQtYWxpZ246Y2VudGVyO3dyaXRpbmctbW9kZTpsci10YjtmaWxsOiNmZmZmZmY7ZmlsbC1vcGFjaXR5OjE7c3Ryb2tlLXdpZHRoOjAuMjY0NTgzMzJweCI+c3ZjPC90c3Bhbj48L3RleHQ+JiN4YTsgICAgPGcgdHJhbnNmb3JtPSJ0cmFuc2xhdGUoMC4wOTIzODgwMSwwKSIgaWQ9ImczMzQ1Ij4mI3hhOyAgICAgIDxwYXRoIGlkPSJwYXRoOTY0IiBkPSJtIDQuNDk0OTg5NiwxMS4yNjA4MjYgMi45MDgzMzExLDAgMCwyLjA0MTY2NyAtMi45MDgzMzExLDAgeiIgc3R5bGU9ImZpbGw6I2ZmZmZmZjtmaWxsLXJ1bGU6ZXZlbm9kZDtzdHJva2U6bm9uZTtzdHJva2Utd2lkdGg6MC4yNjQ1ODMzMjtzdHJva2UtbGluZWNhcDpzcXVhcmU7c3Ryb2tlLW1pdGVybGltaXQ6MTAiLz4mI3hhOyAgICAgIDxwYXRoIGlkPSJwYXRoOTY2IiBkPSJtIDguNDYzNzQwNywxMS4yNjA4MjYgMi45MDgzMzAzLDAgMCwyLjA0MTY2NyAtMi45MDgzMzAzLDAgeiIgc3R5bGU9ImZpbGw6I2ZmZmZmZjtmaWxsLXJ1bGU6ZXZlbm9kZDtzdHJva2U6bm9uZTtzdHJva2Utd2lkdGg6MC4yNjQ1ODMzMjtzdHJva2UtbGluZWNhcDpzcXVhcmU7c3Ryb2tlLW1pdGVybGltaXQ6MTAiLz4mI3hhOyAgICAgIDxwYXRoIGlkPSJwYXRoOTY4IiBkPSJtIDEyLjQzMjQ5MSwxMS4yNjA4MjYgMi45MDgzMywwIDAsMi4wNDE2NjcgLTIuOTA4MzMsMCB6IiBzdHlsZT0iZmlsbDojZmZmZmZmO2ZpbGwtcnVsZTpldmVub2RkO3N0cm9rZTpub25lO3N0cm9rZS13aWR0aDowLjI2NDU4MzMyO3N0cm9rZS1saW5lY2FwOnNxdWFyZTtzdHJva2UtbWl0ZXJsaW1pdDoxMCIvPiYjeGE7ICAgICAgPHBhdGggaWQ9InBhdGg5NzAiIGQ9Im0gNy42MTM3NDA3LDUuMjA4MjkyMSA0LjYwODMzMDMsMCAwLDIuMDQxNjY3IC00LjYwODMzMDMsMCB6IiBzdHlsZT0iZmlsbDojZmZmZmZmO2ZpbGwtcnVsZTpldmVub2RkO3N0cm9rZTpub25lO3N0cm9rZS13aWR0aDowLjI2NDU4MzMyO3N0cm9rZS1saW5lY2FwOnNxdWFyZTtzdHJva2UtbWl0ZXJsaW1pdDoxMCIvPiYjeGE7ICAgICAgPHBhdGggaWQ9InBhdGg5NzgiIGQ9Im0gOS45MTc5MDA1LDcuMjQ5OTYwMSAwLDIuMDA1NDQ5IC0zLjk2NjY3MSwwIDAsMi4wMDI4ODU5IiBzdHlsZT0iZmlsbDpub25lO2ZpbGwtcnVsZTpldmVub2RkO3N0cm9rZTojZmZmZmZmO3N0cm9rZS13aWR0aDowLjUyOTE2NjY0O3N0cm9rZS1saW5lY2FwOmJ1dHQ7c3Ryb2tlLWxpbmVqb2luOnJvdW5kO3N0cm9rZS1taXRlcmxpbWl0OjEwO3N0cm9rZS1vcGFjaXR5OjEiLz4mI3hhOyAgICAgIDxwYXRoIGlkPSJwYXRoOTg2IiBkPSJtIDkuOTE3OTAwNSw3LjI0OTk2MDEgMCwyLjAwNTQ0OSAzLjk2NjY3MDUsMCAwLDIuMDAyODg1OSIgc3R5bGU9ImZpbGw6bm9uZTtmaWxsLXJ1bGU6ZXZlbm9kZDtzdHJva2U6I2ZmZmZmZjtzdHJva2Utd2lkdGg6MC41Mjg5OTk5ODtzdHJva2UtbGluZWNhcDpidXR0O3N0cm9rZS1saW5lam9pbjpyb3VuZDtzdHJva2UtbWl0ZXJsaW1pdDoxMDtzdHJva2UtZGFzaGFycmF5Om5vbmU7c3Ryb2tlLW9wYWNpdHk6MSIvPiYjeGE7ICAgICAgPHBhdGggaWQ9InBhdGg5ODIiIGQ9Im0gOS45MDk1NTM4LDcuMjUxMjI1MSAwLDIuMDA1NDQ5IDAuMDE2NywwIDAsMi4wMDI4ODU5IiBzdHlsZT0iZmlsbDpub25lO2ZpbGwtcnVsZTpldmVub2RkO3N0cm9rZTojZmZmZmZmO3N0cm9rZS13aWR0aDowLjUyOTE2NjY0O3N0cm9rZS1saW5lY2FwOmJ1dHQ7c3Ryb2tlLWxpbmVqb2luOnJvdW5kO3N0cm9rZS1taXRlcmxpbWl0OjEwO3N0cm9rZS1vcGFjaXR5OjEiLz4mI3hhOyAgICA8L2c+JiN4YTsgIDwvZz4mI3hhOzwvc3ZnPg==;dashed=1;fontStyle=0" parent="1" vertex="1">
          <mxGeometry x="735" y="383.5" width="30" height="30" as="geometry" />
        </mxCell>
        <mxCell id="Mi3nhXwhfbfwphBiqheP-44" value="" style="shape=image;verticalLabelPosition=bottom;verticalAlign=top;imageAspect=0;aspect=fixed;image=data:image/svg+xml,PHN2ZyB4bWxucz0iaHR0cDovL3d3dy53My5vcmcvMjAwMC9zdmciIGlkPSJzdmcxMzgyNiIgdmVyc2lvbj0iMS4xIiB2aWV3Qm94PSIwIDAgMTguMDM1MzM0IDE3LjUwMDM3OCIgaGVpZ2h0PSIxNy41MDAzNzhtbSIgd2lkdGg9IjE4LjAzNTMzNG1tIj4mI3hhOyAgPGRlZnMgaWQ9ImRlZnMxMzgyMCIvPiYjeGE7ICAmI3hhOyAgPG1ldGFkYXRhIGlkPSJtZXRhZGF0YTEzODIzIj4mI3hhOyAgICAmI3hhOyAgICAgICYjeGE7ICAgICAgICBpbWFnZS9zdmcreG1sJiN4YTsgICAgICAgICYjeGE7ICAgICAgICAmI3hhOyAgICAgICYjeGE7ICAgICYjeGE7ICA8L21ldGFkYXRhPiYjeGE7ICA8ZyB0cmFuc2Zvcm09InRyYW5zbGF0ZSgtMC45OTI2MjYzOCwtMS4xNzQxODEpIiBpZD0ibGF5ZXIxIj4mI3hhOyAgICA8ZyB0cmFuc2Zvcm09Im1hdHJpeCgxLjAxNDg4ODcsMCwwLDEuMDE0ODg4NywxNi45MDIxNDYsLTIuNjk4NzI2KSIgaWQ9Imc3MCI+JiN4YTsgICAgICA8cGF0aCBzdHlsZT0iZmlsbDojMzI2Y2U1O2ZpbGwtb3BhY2l0eToxO3N0cm9rZTpub25lO3N0cm9rZS13aWR0aDowO3N0cm9rZS1taXRlcmxpbWl0OjQ7c3Ryb2tlLWRhc2hhcnJheTpub25lO3N0cm9rZS1vcGFjaXR5OjEiIGQ9Im0gLTYuODQ5MjAxNSw0LjI3MjQ2NjggYSAxLjExOTEyNTUsMS4xMDk5NjcxIDAgMCAwIC0wLjQyODg4MTgsMC4xMDg1MzAzIGwgLTUuODUyNDAzNywyLjc5NjMzOTQgYSAxLjExOTEyNTUsMS4xMDk5NjcxIDAgMCAwIC0wLjYwNTUyNCwwLjc1Mjk3NTkgbCAtMS40NDM4MjgsNi4yODEyODQ2IGEgMS4xMTkxMjU1LDEuMTA5OTY3MSAwIDAgMCAwLjE1MTk0MywwLjg1MTAyOCAxLjExOTEyNTUsMS4xMDk5NjcxIDAgMCAwIDAuMDYzNjIsMC4wODgzMiBsIDQuMDUwOCw1LjAzNjU1NSBhIDEuMTE5MTI1NSwxLjEwOTk2NzEgMCAwIDAgMC44NzQ5NzksMC40MTc2NTQgbCA2LjQ5NjEwMTEsLTAuMDAxNSBhIDEuMTE5MTI1NSwxLjEwOTk2NzEgMCAwIDAgMC44NzQ5Nzg4LC0wLjQxNjkwNiBMIDEuMzgxODg3MiwxNS4xNDk0NTMgQSAxLjExOTEyNTUsMS4xMDk5NjcxIDAgMCAwIDEuNTk4MTk4NiwxNC4yMTAxMDQgTCAwLjE1MjEyNjU3LDcuOTI4ODE1NCBBIDEuMTE5MTI1NSwxLjEwOTk2NzEgMCAwIDAgLTAuNDUzMzk3OTQsNy4xNzU4Mzk2IEwgLTYuMzA2NTQ5Niw0LjM4MDk5NzEgQSAxLjExOTEyNTUsMS4xMDk5NjcxIDAgMCAwIC02Ljg0OTIwMTUsNC4yNzI0NjY4IFoiIGlkPSJwYXRoMzA1NSIvPiYjeGE7ICAgICAgPHBhdGggdGV4dC1hbmNob3I9InN0YXJ0IiBzdHlsZT0iY29sb3I6IzAwMDAwMDtmb250LXN0eWxlOm5vcm1hbDtmb250LXZhcmlhbnQ6bm9ybWFsO2ZvbnQtd2VpZ2h0Om5vcm1hbDtmb250LXN0cmV0Y2g6bm9ybWFsO2ZvbnQtc2l6ZTptZWRpdW07bGluZS1oZWlnaHQ6bm9ybWFsO2ZvbnQtZmFtaWx5OlNhbnM7LWlua3NjYXBlLWZvbnQtc3BlY2lmaWNhdGlvbjpTYW5zO3RleHQtaW5kZW50OjA7dGV4dC1hbGlnbjpzdGFydDt0ZXh0LWRlY29yYXRpb246bm9uZTt0ZXh0LWRlY29yYXRpb24tbGluZTpub25lO2xldHRlci1zcGFjaW5nOm5vcm1hbDt3b3JkLXNwYWNpbmc6bm9ybWFsO3RleHQtdHJhbnNmb3JtOm5vbmU7d3JpdGluZy1tb2RlOmxyLXRiO2RpcmVjdGlvbjpsdHI7YmFzZWxpbmUtc2hpZnQ6YmFzZWxpbmU7ZGlzcGxheTppbmxpbmU7b3ZlcmZsb3c6dmlzaWJsZTt2aXNpYmlsaXR5OnZpc2libGU7ZmlsbDojZmZmZmZmO2ZpbGwtb3BhY2l0eToxO2ZpbGwtcnVsZTpub256ZXJvO3N0cm9rZTpub25lO3N0cm9rZS13aWR0aDowO3N0cm9rZS1taXRlcmxpbWl0OjQ7c3Ryb2tlLWRhc2hhcnJheTpub25lO21hcmtlcjpub25lO2VuYWJsZS1iYWNrZ3JvdW5kOmFjY3VtdWxhdGUiIGQ9Ik0gLTYuODUyMzQzNSwzLjgxNzYzNzIgQSAxLjE4MTQzMDQsMS4xNzE3NjIgMCAwIDAgLTcuMzA0NDI4NCwzLjkzMjkwNCBsIC02LjE3ODc0MjYsMi45NTEyNzU4IGEgMS4xODE0MzA0LDEuMTcxNzYyIDAgMCAwIC0wLjYzOTIwNiwwLjc5NDg5MSBsIC0xLjUyMzkxNSw2LjYzMDgyODIgYSAxLjE4MTQzMDQsMS4xNzE3NjIgMCAwIDAgMC4xNjAxNzUsMC44OTg5MyAxLjE4MTQzMDQsMS4xNzE3NjIgMCAwIDAgMC4wNjczNiwwLjA5MjgxIGwgNC4yNzYwOTQsNS4zMTcyMzYgYSAxLjE4MTQzMDQsMS4xNzE3NjIgMCAwIDAgMC45MjM2MywwLjQ0MDg1OCBsIDYuODU3NjE4OCwtMC4wMDE1IGEgMS4xODE0MzA0LDEuMTcxNzYyIDAgMCAwIDAuOTIzNjMwOCwtMC40NDAxMSBsIDQuMjc0NTk2NiwtNS4zMTc5ODUgYSAxLjE4MTQzMDQsMS4xNzE3NjIgMCAwIDAgMC4yMjgyODgsLTAuOTkwOTkzIEwgMC41Mzg5NDQzOSw3LjY3NzU3MzggQSAxLjE4MTQzMDQsMS4xNzE3NjIgMCAwIDAgLTAuMTAwMjYxMDEsNi44ODM0MzEzIEwgLTYuMjc5MDAzNywzLjkzMjE1NTUgQSAxLjE4MTQzMDQsMS4xNzE3NjIgMCAwIDAgLTYuODUyMzQzNSwzLjgxNzYzNzIgWiBtIDAuMDAyOTksMC40NTUwNzg5IGEgMS4xMTkxMjU1LDEuMTA5OTY3MSAwIDAgMSAwLjU0MjY1MTcsMC4xMDg1MzAzIGwgNS44NTMxNTE2OSwyLjc5NDg0MjUgQSAxLjExOTEyNTUsMS4xMDk5NjcxIDAgMCAxIDAuMTUxOTc4MTEsNy45MjkwNjQ4IEwgMS41OTgwNTEsMTQuMjEwMzUgYSAxLjExOTEyNTUsMS4xMDk5NjcxIDAgMCAxIC0wLjIxNjMxMjMsMC45MzkzNDggbCAtNC4wNDkzMDMyLDUuMDM3MzA0IGEgMS4xMTkxMjU1LDEuMTA5OTY3MSAwIDAgMSAtMC44NzQ5Nzg5LDAuNDE2OTA2IGwgLTYuNDk2MTAwNiwwLjAwMTUgYSAxLjExOTEyNTUsMS4xMDk5NjcxIDAgMCAxIC0wLjg3NDk3OSwtMC40MTc2NTIgbCAtNC4wNTA4LC01LjAzNjU1NCBhIDEuMTE5MTI1NSwxLjEwOTk2NzEgMCAwIDEgLTAuMDYzNjIsLTAuMDg4MzIgMS4xMTkxMjU1LDEuMTA5OTY3MSAwIDAgMSAtMC4xNTE5NDIsLTAuODUxMDI4IGwgMS40NDM4MjcsLTYuMjgxMjg1MyBhIDEuMTE5MTI1NSwxLjEwOTk2NzEgMCAwIDEgMC42MDU1MjQsLTAuNzUyOTc1OCBsIDUuODUyNDAzNiwtMi43OTYzMzk1IGEgMS4xMTkxMjU1LDEuMTA5OTY3MSAwIDAgMSAwLjQyODg4MTksLTAuMTA4NTMwMyB6IiBpZD0icGF0aDMwNTQtMi05Ii8+JiN4YTsgICAgPC9nPiYjeGE7ICAgIDx0ZXh0IHhtbDpzcGFjZT0icHJlc2VydmUiIHN0eWxlPSJmb250LXN0eWxlOm5vcm1hbDtmb250LXdlaWdodDpub3JtYWw7Zm9udC1zaXplOjEwLjU4MzMzMzAycHg7bGluZS1oZWlnaHQ6Ni42MTQ1ODM0OXB4O2ZvbnQtZmFtaWx5OlNhbnM7bGV0dGVyLXNwYWNpbmc6MHB4O3dvcmQtc3BhY2luZzowcHg7ZmlsbDojZmZmZmZmO2ZpbGwtb3BhY2l0eToxO3N0cm9rZTpub25lO3N0cm9rZS13aWR0aDowLjI2NDU4MzMycHg7c3Ryb2tlLWxpbmVjYXA6YnV0dDtzdHJva2UtbGluZWpvaW46bWl0ZXI7c3Ryb2tlLW9wYWNpdHk6MSIgeD0iMTAuMDE3MTgzIiB5PSIxNi44MTE3NzUiIGlkPSJ0ZXh0MjA2NiI+PHRzcGFuIGlkPSJ0c3BhbjIwNjQiIHg9IjEwLjAxNzE4MyIgeT0iMTYuODExNzc1IiB0ZXh0LWFuY2hvcj0ibWlkZGxlIiBzdHlsZT0iZm9udC1zdHlsZTpub3JtYWw7Zm9udC12YXJpYW50Om5vcm1hbDtmb250LXdlaWdodDpub3JtYWw7Zm9udC1zdHJldGNoOm5vcm1hbDtmb250LXNpemU6Mi44MjIyMjIyM3B4O2ZvbnQtZmFtaWx5OkFyaWFsOy1pbmtzY2FwZS1mb250LXNwZWNpZmljYXRpb246J0FyaWFsLCBOb3JtYWwnO3RleHQtYWxpZ246Y2VudGVyO3dyaXRpbmctbW9kZTpsci10YjtmaWxsOiNmZmZmZmY7ZmlsbC1vcGFjaXR5OjE7c3Ryb2tlLXdpZHRoOjAuMjY0NTgzMzJweCI+cG9kPC90c3Bhbj48L3RleHQ+JiN4YTsgICAgPGcgdHJhbnNmb3JtPSJ0cmFuc2xhdGUoMC4xMjc2NjY2MSwwKSIgaWQ9ImczMzQxIj4mI3hhOyAgICAgIDxwYXRoIGlkPSJwYXRoOTEwIiBkPSJNIDYuMjYxNzkxNCw3LjAzNjA4NiA5Ljg4MjYzMTcsNS45ODYwODcgMTMuNTAzNDYyLDcuMDM2MDg2IDkuODgyNjMxNyw4LjA4NjA4NyBaIiBzdHlsZT0iZmlsbDojZmZmZmZmO2ZpbGwtcnVsZTpldmVub2RkO3N0cm9rZTpub25lO3N0cm9rZS13aWR0aDowLjI2NDU4MzMyO3N0cm9rZS1saW5lY2FwOnNxdWFyZTtzdHJva2UtbWl0ZXJsaW1pdDoxMCIvPiYjeGE7ICAgICAgPHBhdGggaWQ9InBhdGg5MTIiIGQ9Im0gNi4yNjE3OTE0LDcuNDM4MTcgMCwzLjg1Mjc3OCAzLjM3MzYxMDMsMS44Njg3NDkgMC4wMTY3LC00LjcxMzE5MyB6IiBzdHlsZT0iZmlsbDojZmZmZmZmO2ZpbGwtcnVsZTpldmVub2RkO3N0cm9rZTpub25lO3N0cm9rZS13aWR0aDowLjI2NDU4MzMyO3N0cm9rZS1saW5lY2FwOnNxdWFyZTtzdHJva2UtbWl0ZXJsaW1pdDoxMCIvPiYjeGE7ICAgICAgPHBhdGggaWQ9InBhdGg5MTQiIGQ9Im0gMTMuNTAzNDYyLDcuNDM4MTcgMCwzLjg1Mjc3OCAtMy4zNzM2MSwxLjg2ODc0OSAtMC4wMTY3LC00LjcxMzE5MyB6IiBzdHlsZT0iZmlsbDojZmZmZmZmO2ZpbGwtcnVsZTpldmVub2RkO3N0cm9rZTpub25lO3N0cm9rZS13aWR0aDowLjI2NDU4MzMyO3N0cm9rZS1saW5lY2FwOnNxdWFyZTtzdHJva2UtbWl0ZXJsaW1pdDoxMCIvPiYjeGE7ICAgIDwvZz4mI3hhOyAgPC9nPiYjeGE7PC9zdmc+;dashed=1;fontSize=8;" parent="1" vertex="1">
          <mxGeometry x="785" y="383.5" width="30" height="30" as="geometry" />
        </mxCell>
        <mxCell id="Mi3nhXwhfbfwphBiqheP-45" style="edgeStyle=none;html=1;entryX=1;entryY=0.5;entryDx=0;entryDy=0;fontSize=8;strokeColor=#808080;" parent="1" source="Mi3nhXwhfbfwphBiqheP-46" target="Mi3nhXwhfbfwphBiqheP-48" edge="1">
          <mxGeometry relative="1" as="geometry" />
        </mxCell>
        <mxCell id="Mi3nhXwhfbfwphBiqheP-46" value="" style="shape=image;verticalLabelPosition=bottom;verticalAlign=top;imageAspect=0;aspect=fixed;image=data:image/svg+xml,PHN2ZyB4bWxucz0iaHR0cDovL3d3dy53My5vcmcvMjAwMC9zdmciIGlkPSJzdmcxMzgyNiIgdmVyc2lvbj0iMS4xIiB2aWV3Qm94PSIwIDAgMTguMDM1MzM0IDE3LjUwMDM3OCIgaGVpZ2h0PSIxNy41MDAzNzhtbSIgd2lkdGg9IjE4LjAzNTMzNG1tIj4mI3hhOyAgPGRlZnMgaWQ9ImRlZnMxMzgyMCIvPiYjeGE7ICAmI3hhOyAgPG1ldGFkYXRhIGlkPSJtZXRhZGF0YTEzODIzIj4mI3hhOyAgICAmI3hhOyAgICAgICYjeGE7ICAgICAgICBpbWFnZS9zdmcreG1sJiN4YTsgICAgICAgICYjeGE7ICAgICAgICAmI3hhOyAgICAgICYjeGE7ICAgICYjeGE7ICA8L21ldGFkYXRhPiYjeGE7ICA8ZyB0cmFuc2Zvcm09InRyYW5zbGF0ZSgtMC45OTI2MjYzOCwtMS4xNzQxODEpIiBpZD0ibGF5ZXIxIj4mI3hhOyAgICA8ZyB0cmFuc2Zvcm09Im1hdHJpeCgxLjAxNDg4ODcsMCwwLDEuMDE0ODg4NywxNi45MDIxNDYsLTIuNjk4NzI2KSIgaWQ9Imc3MCI+JiN4YTsgICAgICA8cGF0aCBzdHlsZT0iZmlsbDojMzI2Y2U1O2ZpbGwtb3BhY2l0eToxO3N0cm9rZTpub25lO3N0cm9rZS13aWR0aDowO3N0cm9rZS1taXRlcmxpbWl0OjQ7c3Ryb2tlLWRhc2hhcnJheTpub25lO3N0cm9rZS1vcGFjaXR5OjEiIGQ9Im0gLTYuODQ5MjAxNSw0LjI3MjQ2NjggYSAxLjExOTEyNTUsMS4xMDk5NjcxIDAgMCAwIC0wLjQyODg4MTgsMC4xMDg1MzAzIGwgLTUuODUyNDAzNywyLjc5NjMzOTQgYSAxLjExOTEyNTUsMS4xMDk5NjcxIDAgMCAwIC0wLjYwNTUyNCwwLjc1Mjk3NTkgbCAtMS40NDM4MjgsNi4yODEyODQ2IGEgMS4xMTkxMjU1LDEuMTA5OTY3MSAwIDAgMCAwLjE1MTk0MywwLjg1MTAyOCAxLjExOTEyNTUsMS4xMDk5NjcxIDAgMCAwIDAuMDYzNjIsMC4wODgzMiBsIDQuMDUwOCw1LjAzNjU1NSBhIDEuMTE5MTI1NSwxLjEwOTk2NzEgMCAwIDAgMC44NzQ5NzksMC40MTc2NTQgbCA2LjQ5NjEwMTEsLTAuMDAxNSBhIDEuMTE5MTI1NSwxLjEwOTk2NzEgMCAwIDAgMC44NzQ5Nzg4LC0wLjQxNjkwNiBMIDEuMzgxODg3MiwxNS4xNDk0NTMgQSAxLjExOTEyNTUsMS4xMDk5NjcxIDAgMCAwIDEuNTk4MTk4NiwxNC4yMTAxMDQgTCAwLjE1MjEyNjU3LDcuOTI4ODE1NCBBIDEuMTE5MTI1NSwxLjEwOTk2NzEgMCAwIDAgLTAuNDUzMzk3OTQsNy4xNzU4Mzk2IEwgLTYuMzA2NTQ5Niw0LjM4MDk5NzEgQSAxLjExOTEyNTUsMS4xMDk5NjcxIDAgMCAwIC02Ljg0OTIwMTUsNC4yNzI0NjY4IFoiIGlkPSJwYXRoMzA1NSIvPiYjeGE7ICAgICAgPHBhdGggdGV4dC1hbmNob3I9InN0YXJ0IiBzdHlsZT0iY29sb3I6IzAwMDAwMDtmb250LXN0eWxlOm5vcm1hbDtmb250LXZhcmlhbnQ6bm9ybWFsO2ZvbnQtd2VpZ2h0Om5vcm1hbDtmb250LXN0cmV0Y2g6bm9ybWFsO2ZvbnQtc2l6ZTptZWRpdW07bGluZS1oZWlnaHQ6bm9ybWFsO2ZvbnQtZmFtaWx5OlNhbnM7LWlua3NjYXBlLWZvbnQtc3BlY2lmaWNhdGlvbjpTYW5zO3RleHQtaW5kZW50OjA7dGV4dC1hbGlnbjpzdGFydDt0ZXh0LWRlY29yYXRpb246bm9uZTt0ZXh0LWRlY29yYXRpb24tbGluZTpub25lO2xldHRlci1zcGFjaW5nOm5vcm1hbDt3b3JkLXNwYWNpbmc6bm9ybWFsO3RleHQtdHJhbnNmb3JtOm5vbmU7d3JpdGluZy1tb2RlOmxyLXRiO2RpcmVjdGlvbjpsdHI7YmFzZWxpbmUtc2hpZnQ6YmFzZWxpbmU7ZGlzcGxheTppbmxpbmU7b3ZlcmZsb3c6dmlzaWJsZTt2aXNpYmlsaXR5OnZpc2libGU7ZmlsbDojZmZmZmZmO2ZpbGwtb3BhY2l0eToxO2ZpbGwtcnVsZTpub256ZXJvO3N0cm9rZTpub25lO3N0cm9rZS13aWR0aDowO3N0cm9rZS1taXRlcmxpbWl0OjQ7c3Ryb2tlLWRhc2hhcnJheTpub25lO21hcmtlcjpub25lO2VuYWJsZS1iYWNrZ3JvdW5kOmFjY3VtdWxhdGUiIGQ9Ik0gLTYuODUyMzQzNSwzLjgxNzYzNzIgQSAxLjE4MTQzMDQsMS4xNzE3NjIgMCAwIDAgLTcuMzA0NDI4NCwzLjkzMjkwNCBsIC02LjE3ODc0MjYsMi45NTEyNzU4IGEgMS4xODE0MzA0LDEuMTcxNzYyIDAgMCAwIC0wLjYzOTIwNiwwLjc5NDg5MSBsIC0xLjUyMzkxNSw2LjYzMDgyODIgYSAxLjE4MTQzMDQsMS4xNzE3NjIgMCAwIDAgMC4xNjAxNzUsMC44OTg5MyAxLjE4MTQzMDQsMS4xNzE3NjIgMCAwIDAgMC4wNjczNiwwLjA5MjgxIGwgNC4yNzYwOTQsNS4zMTcyMzYgYSAxLjE4MTQzMDQsMS4xNzE3NjIgMCAwIDAgMC45MjM2MywwLjQ0MDg1OCBsIDYuODU3NjE4OCwtMC4wMDE1IGEgMS4xODE0MzA0LDEuMTcxNzYyIDAgMCAwIDAuOTIzNjMwOCwtMC40NDAxMSBsIDQuMjc0NTk2NiwtNS4zMTc5ODUgYSAxLjE4MTQzMDQsMS4xNzE3NjIgMCAwIDAgMC4yMjgyODgsLTAuOTkwOTkzIEwgMC41Mzg5NDQzOSw3LjY3NzU3MzggQSAxLjE4MTQzMDQsMS4xNzE3NjIgMCAwIDAgLTAuMTAwMjYxMDEsNi44ODM0MzEzIEwgLTYuMjc5MDAzNywzLjkzMjE1NTUgQSAxLjE4MTQzMDQsMS4xNzE3NjIgMCAwIDAgLTYuODUyMzQzNSwzLjgxNzYzNzIgWiBtIDAuMDAyOTksMC40NTUwNzg5IGEgMS4xMTkxMjU1LDEuMTA5OTY3MSAwIDAgMSAwLjU0MjY1MTcsMC4xMDg1MzAzIGwgNS44NTMxNTE2OSwyLjc5NDg0MjUgQSAxLjExOTEyNTUsMS4xMDk5NjcxIDAgMCAxIDAuMTUxOTc4MTEsNy45MjkwNjQ4IEwgMS41OTgwNTEsMTQuMjEwMzUgYSAxLjExOTEyNTUsMS4xMDk5NjcxIDAgMCAxIC0wLjIxNjMxMjMsMC45MzkzNDggbCAtNC4wNDkzMDMyLDUuMDM3MzA0IGEgMS4xMTkxMjU1LDEuMTA5OTY3MSAwIDAgMSAtMC44NzQ5Nzg5LDAuNDE2OTA2IGwgLTYuNDk2MTAwNiwwLjAwMTUgYSAxLjExOTEyNTUsMS4xMDk5NjcxIDAgMCAxIC0wLjg3NDk3OSwtMC40MTc2NTIgbCAtNC4wNTA4LC01LjAzNjU1NCBhIDEuMTE5MTI1NSwxLjEwOTk2NzEgMCAwIDEgLTAuMDYzNjIsLTAuMDg4MzIgMS4xMTkxMjU1LDEuMTA5OTY3MSAwIDAgMSAtMC4xNTE5NDIsLTAuODUxMDI4IGwgMS40NDM4MjcsLTYuMjgxMjg1MyBhIDEuMTE5MTI1NSwxLjEwOTk2NzEgMCAwIDEgMC42MDU1MjQsLTAuNzUyOTc1OCBsIDUuODUyNDAzNiwtMi43OTYzMzk1IGEgMS4xMTkxMjU1LDEuMTA5OTY3MSAwIDAgMSAwLjQyODg4MTksLTAuMTA4NTMwMyB6IiBpZD0icGF0aDMwNTQtMi05Ii8+JiN4YTsgICAgPC9nPiYjeGE7ICAgIDx0ZXh0IHhtbDpzcGFjZT0icHJlc2VydmUiIHN0eWxlPSJmb250LXN0eWxlOm5vcm1hbDtmb250LXdlaWdodDpub3JtYWw7Zm9udC1zaXplOjEwLjU4MzMzMzAycHg7bGluZS1oZWlnaHQ6Ni42MTQ1ODM0OXB4O2ZvbnQtZmFtaWx5OlNhbnM7bGV0dGVyLXNwYWNpbmc6MHB4O3dvcmQtc3BhY2luZzowcHg7ZmlsbDojZmZmZmZmO2ZpbGwtb3BhY2l0eToxO3N0cm9rZTpub25lO3N0cm9rZS13aWR0aDowLjI2NDU4MzMycHg7c3Ryb2tlLWxpbmVjYXA6YnV0dDtzdHJva2UtbGluZWpvaW46bWl0ZXI7c3Ryb2tlLW9wYWNpdHk6MSIgeD0iOS45NzQ0NjQ0IiB5PSIxNi44MTE3NzUiIGlkPSJ0ZXh0MjA2NiI+PHRzcGFuIGlkPSJ0c3BhbjIwNjQiIHg9IjkuOTc0NDY0NCIgeT0iMTYuODExNzc1IiB0ZXh0LWFuY2hvcj0ibWlkZGxlIiBzdHlsZT0iZm9udC1zdHlsZTpub3JtYWw7Zm9udC12YXJpYW50Om5vcm1hbDtmb250LXdlaWdodDpub3JtYWw7Zm9udC1zdHJldGNoOm5vcm1hbDtmb250LXNpemU6Mi44MjIyMjIyM3B4O2ZvbnQtZmFtaWx5OkFyaWFsOy1pbmtzY2FwZS1mb250LXNwZWNpZmljYXRpb246J0FyaWFsLCBOb3JtYWwnO3RleHQtYWxpZ246Y2VudGVyO3dyaXRpbmctbW9kZTpsci10YjtmaWxsOiNmZmZmZmY7ZmlsbC1vcGFjaXR5OjE7c3Ryb2tlLXdpZHRoOjAuMjY0NTgzMzJweCI+ZGVwbG95PC90c3Bhbj48L3RleHQ+JiN4YTsgICAgPGcgdHJhbnNmb3JtPSJ0cmFuc2xhdGUoLTAuNjUzODU1NDYsMCkiIGlkPSJnMzM0MCI+JiN4YTsgICAgICA8cGF0aCBpZD0icGF0aDEyMjIiIGQ9Im0gMTAuMjI1MDYyLDEzLjczMTYzMiAwLDAgQyA3Ljc4MjQyMTgsMTMuODQ3MTc3IDUuNzA1MDExNiwxMS45NjgzODYgNS41NzUzNDE3LDkuNTI2NDYzNCA1LjQ0NTY1MTYsNy4wODQ1NDA1IDcuMzEyNDAxOCw0Ljk5NjI5MDUgOS43NTM1MzE4LDQuODUyNDc5NSBjIDIuNDQxMTIwMiwtMC4xNDM4MTEgNC41NDAxNDEyLDEuNzEwODEgNC42OTgwODEyLDQuMTUxMDY4MiBsIC0xLjc1NzA4MSwwLjExMzcyMDggYyAtMC4wOTU0LC0xLjQ3MzgxOCAtMS4zNjMxMSwtMi41OTM5MzUgLTIuODM3NDYwMiwtMi41MDcwOCAtMS40NzQzNCwwLjA4Njg2IC0yLjYwMTc4LDEuMzQ4MDc2MSAtMi41MjM0NiwyLjgyMjg5OTEgMC4wNzgzLDEuNDc0ODIyNCAxLjMzMywyLjYwOTUzODQgMi44MDgyNTAyLDIuNTM5NzUzNCB6IiBzdHlsZT0iZmlsbDojZmZmZmZmO2ZpbGwtcnVsZTpldmVub2RkO3N0cm9rZTpub25lO3N0cm9rZS13aWR0aDowLjI2NDU4MzMyO3N0cm9rZS1saW5lY2FwOnNxdWFyZTtzdHJva2UtbWl0ZXJsaW1pdDoxMCIvPiYjeGE7ICAgICAgPHBhdGggaWQ9InBhdGgxMjI0IiBkPSJtIDExLjEzNTU3NCw5LjAwODgwMTUgMS4zOTc0NSwzLjQyMDUwODUgMy4yMjYzLC0zLjQyMDUwODUgeiIgc3R5bGU9ImZpbGw6I2ZmZmZmZjtmaWxsLXJ1bGU6ZXZlbm9kZDtzdHJva2U6bm9uZTtzdHJva2Utd2lkdGg6MC4yNjQ1ODMzMjtzdHJva2UtbGluZWNhcDpzcXVhcmU7c3Ryb2tlLW1pdGVybGltaXQ6MTAiLz4mI3hhOyAgICA8L2c+JiN4YTsgIDwvZz4mI3hhOzwvc3ZnPg==;dashed=1;fontSize=8;" parent="1" vertex="1">
          <mxGeometry x="885" y="383.5" width="30" height="30" as="geometry" />
        </mxCell>
        <mxCell id="Mi3nhXwhfbfwphBiqheP-47" style="edgeStyle=none;html=1;exitX=0;exitY=0.5;exitDx=0;exitDy=0;entryX=1;entryY=0.5;entryDx=0;entryDy=0;fontSize=8;strokeColor=#808080;" parent="1" source="Mi3nhXwhfbfwphBiqheP-48" target="Mi3nhXwhfbfwphBiqheP-44" edge="1">
          <mxGeometry relative="1" as="geometry" />
        </mxCell>
        <mxCell id="Mi3nhXwhfbfwphBiqheP-48" value="" style="shape=image;verticalLabelPosition=bottom;verticalAlign=top;imageAspect=0;aspect=fixed;image=data:image/svg+xml,PHN2ZyB4bWxucz0iaHR0cDovL3d3dy53My5vcmcvMjAwMC9zdmciIGlkPSJzdmcxMzgyNiIgdmVyc2lvbj0iMS4xIiB2aWV3Qm94PSIwIDAgMTguMDM1MzM0IDE3LjUwMDM3OCIgaGVpZ2h0PSIxNy41MDAzNzhtbSIgd2lkdGg9IjE4LjAzNTMzNG1tIj4mI3hhOyAgPGRlZnMgaWQ9ImRlZnMxMzgyMCIvPiYjeGE7ICAmI3hhOyAgPG1ldGFkYXRhIGlkPSJtZXRhZGF0YTEzODIzIj4mI3hhOyAgICAmI3hhOyAgICAgICYjeGE7ICAgICAgICBpbWFnZS9zdmcreG1sJiN4YTsgICAgICAgICYjeGE7ICAgICAgICAmI3hhOyAgICAgICYjeGE7ICAgICYjeGE7ICA8L21ldGFkYXRhPiYjeGE7ICA8ZyB0cmFuc2Zvcm09InRyYW5zbGF0ZSgtMC45OTI2MjYzOCwtMS4xNzQxODEpIiBpZD0ibGF5ZXIxIj4mI3hhOyAgICA8ZyB0cmFuc2Zvcm09Im1hdHJpeCgxLjAxNDg4ODcsMCwwLDEuMDE0ODg4NywxNi45MDIxNDYsLTIuNjk4NzI2KSIgaWQ9Imc3MCI+JiN4YTsgICAgICA8cGF0aCBzdHlsZT0iZmlsbDojMzI2Y2U1O2ZpbGwtb3BhY2l0eToxO3N0cm9rZTpub25lO3N0cm9rZS13aWR0aDowO3N0cm9rZS1taXRlcmxpbWl0OjQ7c3Ryb2tlLWRhc2hhcnJheTpub25lO3N0cm9rZS1vcGFjaXR5OjEiIGQ9Im0gLTYuODQ5MjAxNSw0LjI3MjQ2NjggYSAxLjExOTEyNTUsMS4xMDk5NjcxIDAgMCAwIC0wLjQyODg4MTgsMC4xMDg1MzAzIGwgLTUuODUyNDAzNywyLjc5NjMzOTQgYSAxLjExOTEyNTUsMS4xMDk5NjcxIDAgMCAwIC0wLjYwNTUyNCwwLjc1Mjk3NTkgbCAtMS40NDM4MjgsNi4yODEyODQ2IGEgMS4xMTkxMjU1LDEuMTA5OTY3MSAwIDAgMCAwLjE1MTk0MywwLjg1MTAyOCAxLjExOTEyNTUsMS4xMDk5NjcxIDAgMCAwIDAuMDYzNjIsMC4wODgzMiBsIDQuMDUwOCw1LjAzNjU1NSBhIDEuMTE5MTI1NSwxLjEwOTk2NzEgMCAwIDAgMC44NzQ5NzksMC40MTc2NTQgbCA2LjQ5NjEwMTEsLTAuMDAxNSBhIDEuMTE5MTI1NSwxLjEwOTk2NzEgMCAwIDAgMC44NzQ5Nzg4LC0wLjQxNjkwNiBMIDEuMzgxODg3MiwxNS4xNDk0NTMgQSAxLjExOTEyNTUsMS4xMDk5NjcxIDAgMCAwIDEuNTk4MTk4NiwxNC4yMTAxMDQgTCAwLjE1MjEyNjU3LDcuOTI4ODE1NCBBIDEuMTE5MTI1NSwxLjEwOTk2NzEgMCAwIDAgLTAuNDUzMzk3OTQsNy4xNzU4Mzk2IEwgLTYuMzA2NTQ5Niw0LjM4MDk5NzEgQSAxLjExOTEyNTUsMS4xMDk5NjcxIDAgMCAwIC02Ljg0OTIwMTUsNC4yNzI0NjY4IFoiIGlkPSJwYXRoMzA1NSIvPiYjeGE7ICAgICAgPHBhdGggdGV4dC1hbmNob3I9InN0YXJ0IiBzdHlsZT0iY29sb3I6IzAwMDAwMDtmb250LXN0eWxlOm5vcm1hbDtmb250LXZhcmlhbnQ6bm9ybWFsO2ZvbnQtd2VpZ2h0Om5vcm1hbDtmb250LXN0cmV0Y2g6bm9ybWFsO2ZvbnQtc2l6ZTptZWRpdW07bGluZS1oZWlnaHQ6bm9ybWFsO2ZvbnQtZmFtaWx5OlNhbnM7LWlua3NjYXBlLWZvbnQtc3BlY2lmaWNhdGlvbjpTYW5zO3RleHQtaW5kZW50OjA7dGV4dC1hbGlnbjpzdGFydDt0ZXh0LWRlY29yYXRpb246bm9uZTt0ZXh0LWRlY29yYXRpb24tbGluZTpub25lO2xldHRlci1zcGFjaW5nOm5vcm1hbDt3b3JkLXNwYWNpbmc6bm9ybWFsO3RleHQtdHJhbnNmb3JtOm5vbmU7d3JpdGluZy1tb2RlOmxyLXRiO2RpcmVjdGlvbjpsdHI7YmFzZWxpbmUtc2hpZnQ6YmFzZWxpbmU7ZGlzcGxheTppbmxpbmU7b3ZlcmZsb3c6dmlzaWJsZTt2aXNpYmlsaXR5OnZpc2libGU7ZmlsbDojZmZmZmZmO2ZpbGwtb3BhY2l0eToxO2ZpbGwtcnVsZTpub256ZXJvO3N0cm9rZTpub25lO3N0cm9rZS13aWR0aDowO3N0cm9rZS1taXRlcmxpbWl0OjQ7c3Ryb2tlLWRhc2hhcnJheTpub25lO21hcmtlcjpub25lO2VuYWJsZS1iYWNrZ3JvdW5kOmFjY3VtdWxhdGUiIGQ9Ik0gLTYuODUyMzQzNSwzLjgxNzYzNzIgQSAxLjE4MTQzMDQsMS4xNzE3NjIgMCAwIDAgLTcuMzA0NDI4NCwzLjkzMjkwNCBsIC02LjE3ODc0MjYsMi45NTEyNzU4IGEgMS4xODE0MzA0LDEuMTcxNzYyIDAgMCAwIC0wLjYzOTIwNiwwLjc5NDg5MSBsIC0xLjUyMzkxNSw2LjYzMDgyODIgYSAxLjE4MTQzMDQsMS4xNzE3NjIgMCAwIDAgMC4xNjAxNzUsMC44OTg5MyAxLjE4MTQzMDQsMS4xNzE3NjIgMCAwIDAgMC4wNjczNiwwLjA5MjgxIGwgNC4yNzYwOTQsNS4zMTcyMzYgYSAxLjE4MTQzMDQsMS4xNzE3NjIgMCAwIDAgMC45MjM2MywwLjQ0MDg1OCBsIDYuODU3NjE4OCwtMC4wMDE1IGEgMS4xODE0MzA0LDEuMTcxNzYyIDAgMCAwIDAuOTIzNjMwOCwtMC40NDAxMSBsIDQuMjc0NTk2NiwtNS4zMTc5ODUgYSAxLjE4MTQzMDQsMS4xNzE3NjIgMCAwIDAgMC4yMjgyODgsLTAuOTkwOTkzIEwgMC41Mzg5NDQzOSw3LjY3NzU3MzggQSAxLjE4MTQzMDQsMS4xNzE3NjIgMCAwIDAgLTAuMTAwMjYxMDEsNi44ODM0MzEzIEwgLTYuMjc5MDAzNywzLjkzMjE1NTUgQSAxLjE4MTQzMDQsMS4xNzE3NjIgMCAwIDAgLTYuODUyMzQzNSwzLjgxNzYzNzIgWiBtIDAuMDAyOTksMC40NTUwNzg5IGEgMS4xMTkxMjU1LDEuMTA5OTY3MSAwIDAgMSAwLjU0MjY1MTcsMC4xMDg1MzAzIGwgNS44NTMxNTE2OSwyLjc5NDg0MjUgQSAxLjExOTEyNTUsMS4xMDk5NjcxIDAgMCAxIDAuMTUxOTc4MTEsNy45MjkwNjQ4IEwgMS41OTgwNTEsMTQuMjEwMzUgYSAxLjExOTEyNTUsMS4xMDk5NjcxIDAgMCAxIC0wLjIxNjMxMjMsMC45MzkzNDggbCAtNC4wNDkzMDMyLDUuMDM3MzA0IGEgMS4xMTkxMjU1LDEuMTA5OTY3MSAwIDAgMSAtMC44NzQ5Nzg5LDAuNDE2OTA2IGwgLTYuNDk2MTAwNiwwLjAwMTUgYSAxLjExOTEyNTUsMS4xMDk5NjcxIDAgMCAxIC0wLjg3NDk3OSwtMC40MTc2NTIgbCAtNC4wNTA4LC01LjAzNjU1NCBhIDEuMTE5MTI1NSwxLjEwOTk2NzEgMCAwIDEgLTAuMDYzNjIsLTAuMDg4MzIgMS4xMTkxMjU1LDEuMTA5OTY3MSAwIDAgMSAtMC4xNTE5NDIsLTAuODUxMDI4IGwgMS40NDM4MjcsLTYuMjgxMjg1MyBhIDEuMTE5MTI1NSwxLjEwOTk2NzEgMCAwIDEgMC42MDU1MjQsLTAuNzUyOTc1OCBsIDUuODUyNDAzNiwtMi43OTYzMzk1IGEgMS4xMTkxMjU1LDEuMTA5OTY3MSAwIDAgMSAwLjQyODg4MTksLTAuMTA4NTMwMyB6IiBpZD0icGF0aDMwNTQtMi05Ii8+JiN4YTsgICAgPC9nPiYjeGE7ICAgIDx0ZXh0IHhtbDpzcGFjZT0icHJlc2VydmUiIHN0eWxlPSJmb250LXN0eWxlOm5vcm1hbDtmb250LXdlaWdodDpub3JtYWw7Zm9udC1zaXplOjEwLjU4MzMzMzAycHg7bGluZS1oZWlnaHQ6Ni42MTQ1ODM0OXB4O2ZvbnQtZmFtaWx5OlNhbnM7bGV0dGVyLXNwYWNpbmc6MHB4O3dvcmQtc3BhY2luZzowcHg7ZmlsbDojZmZmZmZmO2ZpbGwtb3BhY2l0eToxO3N0cm9rZTpub25lO3N0cm9rZS13aWR0aDowLjI2NDU4MzMycHg7c3Ryb2tlLWxpbmVjYXA6YnV0dDtzdHJva2UtbGluZWpvaW46bWl0ZXI7c3Ryb2tlLW9wYWNpdHk6MSIgeD0iOS45NzMwODY0IiB5PSIxNi44MTE3NzUiIGlkPSJ0ZXh0MjA2NiI+PHRzcGFuIGlkPSJ0c3BhbjIwNjQiIHg9IjkuOTczMDg2NCIgeT0iMTYuODExNzc1IiB0ZXh0LWFuY2hvcj0ibWlkZGxlIiBzdHlsZT0iZm9udC1zdHlsZTpub3JtYWw7Zm9udC12YXJpYW50Om5vcm1hbDtmb250LXdlaWdodDpub3JtYWw7Zm9udC1zdHJldGNoOm5vcm1hbDtmb250LXNpemU6Mi44MjIyMjIyM3B4O2ZvbnQtZmFtaWx5OkFyaWFsOy1pbmtzY2FwZS1mb250LXNwZWNpZmljYXRpb246J0FyaWFsLCBOb3JtYWwnO3RleHQtYWxpZ246Y2VudGVyO3dyaXRpbmctbW9kZTpsci10YjtmaWxsOiNmZmZmZmY7ZmlsbC1vcGFjaXR5OjE7c3Ryb2tlLXdpZHRoOjAuMjY0NTgzMzJweCI+cnM8L3RzcGFuPjwvdGV4dD4mI3hhOyAgICA8ZyB0cmFuc2Zvcm09InRyYW5zbGF0ZSgwLjE2Mjk4MTA3LDApIiBpZD0iZzMzNDIiPiYjeGE7ICAgICAgPHBhdGggaWQ9InBhdGgxMTU4IiBkPSJtIDguMTIzNjA5LDUuNTUyNDA4NCA2LjUyNDk5LDAgMCw0LjU4MzMzNDYgLTYuNTI0OTksMCB6IiBzdHlsZT0iZmlsbDojMzI2Y2U1O2ZpbGwtb3BhY2l0eToxO2ZpbGwtcnVsZTpldmVub2RkO3N0cm9rZTojZmZmZmZmO3N0cm9rZS13aWR0aDowLjUyODk5OTk4O3N0cm9rZS1saW5lY2FwOnNxdWFyZTtzdHJva2UtbGluZWpvaW46cm91bmQ7c3Ryb2tlLW1pdGVybGltaXQ6MTA7c3Ryb2tlLWRhc2hhcnJheToxLjU4NzAwMDAxLCAxLjU4NzAwMDAxO3N0cm9rZS1kYXNob2Zmc2V0OjMuNjY1OTcwMDk7c3Ryb2tlLW9wYWNpdHk6MSIvPiYjeGE7ICAgICAgPHBhdGggaWQ9InBhdGgxMTYyIiBkPSJtIDYuNTg0ODU4OCw2Ljk2MzcxOTQgNi41MjQ5OTAyLDAgMCw0LjU4MzMzNDYgLTYuNTI0OTkwMiwwIHoiIHN0eWxlPSJmaWxsOiMzMjZjZTU7ZmlsbC1vcGFjaXR5OjE7ZmlsbC1ydWxlOmV2ZW5vZGQ7c3Ryb2tlOiNmZmZmZmY7c3Ryb2tlLXdpZHRoOjAuNTI5MTQ1ODQ7c3Ryb2tlLWxpbmVjYXA6c3F1YXJlO3N0cm9rZS1saW5lam9pbjpyb3VuZDtzdHJva2UtbWl0ZXJsaW1pdDoxMDtzdHJva2UtZGFzaGFycmF5OjEuNTg3NDM3NTYsIDEuNTg3NDM3NTY7c3Ryb2tlLWRhc2hvZmZzZXQ6My44Nzg2Mzg5ODtzdHJva2Utb3BhY2l0eToxIi8+JiN4YTsgICAgICA8cGF0aCBpZD0icGF0aDExNjQiIGQ9Im0gNS4wNDYxMDg4LDguMzc1MDMxNCA2LjUyNTAwMDIsMCAwLDQuNTgzMzM0NiAtNi41MjUwMDAyLDAgeiIgc3R5bGU9ImZpbGw6I2ZmZmZmZjtmaWxsLXJ1bGU6ZXZlbm9kZDtzdHJva2U6bm9uZTtzdHJva2Utd2lkdGg6MC4yNjQ1ODMzMjtzdHJva2UtbGluZWNhcDpzcXVhcmU7c3Ryb2tlLW1pdGVybGltaXQ6MTAiLz4mI3hhOyAgICAgIDxwYXRoIGlkPSJwYXRoMTE2NiIgZD0ibSA1LjA0NjEwODgsOC4zNzUwMzE0IDYuNTI1MDAwMiwwIDAsNC41ODMzMzQ2IC02LjUyNTAwMDIsMCB6IiBzdHlsZT0iZmlsbDpub25lO2ZpbGwtcnVsZTpldmVub2RkO3N0cm9rZTojZmZmZmZmO3N0cm9rZS13aWR0aDowLjUyOTE2NjY0O3N0cm9rZS1saW5lY2FwOmJ1dHQ7c3Ryb2tlLWxpbmVqb2luOnJvdW5kO3N0cm9rZS1taXRlcmxpbWl0OjEwO3N0cm9rZS1vcGFjaXR5OjEiLz4mI3hhOyAgICA8L2c+JiN4YTsgIDwvZz4mI3hhOzwvc3ZnPg==;dashed=1;fontSize=8;" parent="1" vertex="1">
          <mxGeometry x="835" y="383.5" width="30" height="30" as="geometry" />
        </mxCell>
        <mxCell id="Mi3nhXwhfbfwphBiqheP-52" style="edgeStyle=orthogonalEdgeStyle;rounded=0;orthogonalLoop=1;jettySize=auto;html=1;exitX=0.5;exitY=1;exitDx=0;exitDy=0;entryX=0;entryY=0.5;entryDx=0;entryDy=0;strokeColor=#B5739D;" parent="1" source="Mi3nhXwhfbfwphBiqheP-32" target="Mi3nhXwhfbfwphBiqheP-43" edge="1">
          <mxGeometry relative="1" as="geometry">
            <Array as="points">
              <mxPoint x="520" y="589" />
              <mxPoint x="675" y="589" />
              <mxPoint x="675" y="398" />
            </Array>
          </mxGeometry>
        </mxCell>
        <mxCell id="Mi3nhXwhfbfwphBiqheP-51" style="edgeStyle=orthogonalEdgeStyle;rounded=0;orthogonalLoop=1;jettySize=auto;html=1;exitX=0.5;exitY=1;exitDx=0;exitDy=0;entryX=0;entryY=0.5;entryDx=0;entryDy=0;strokeColor=#B5739D;" parent="1" source="20" target="Mi3nhXwhfbfwphBiqheP-43" edge="1">
          <mxGeometry relative="1" as="geometry" />
        </mxCell>
        <mxCell id="KqGQ3suDVY39VXcQCuIc-42" value="&lt;font style=&quot;font-size: 8px;&quot; face=&quot;Open Sans&quot;&gt;Postgres TCP&lt;/font&gt;" style="edgeLabel;html=1;align=center;verticalAlign=middle;resizable=0;points=[];" parent="Mi3nhXwhfbfwphBiqheP-51" vertex="1" connectable="0">
          <mxGeometry x="0.1749" relative="1" as="geometry">
            <mxPoint as="offset" />
          </mxGeometry>
        </mxCell>
        <mxCell id="Mi3nhXwhfbfwphBiqheP-67" value="" style="aspect=fixed;sketch=0;html=1;dashed=0;whitespace=wrap;verticalLabelPosition=bottom;verticalAlign=top;fillColor=#2875E2;strokeColor=#ffffff;points=[[0.005,0.63,0],[0.1,0.2,0],[0.9,0.2,0],[0.5,0,0],[0.995,0.63,0],[0.72,0.99,0],[0.5,1,0],[0.28,0.99,0]];shape=mxgraph.kubernetes.icon2;kubernetesLabel=1;prIcon=secret" parent="1" vertex="1">
          <mxGeometry x="835" y="419" width="31.25" height="30" as="geometry" />
        </mxCell>
        <mxCell id="Mi3nhXwhfbfwphBiqheP-72" style="edgeStyle=orthogonalEdgeStyle;rounded=0;orthogonalLoop=1;jettySize=auto;html=1;exitX=0.5;exitY=1;exitDx=0;exitDy=0;entryX=-0.011;entryY=0.504;entryDx=0;entryDy=0;entryPerimeter=0;strokeColor=#808080;" parent="1" source="Mi3nhXwhfbfwphBiqheP-44" target="Mi3nhXwhfbfwphBiqheP-67" edge="1">
          <mxGeometry relative="1" as="geometry" />
        </mxCell>
        <mxCell id="Mi3nhXwhfbfwphBiqheP-77" value="&amp;lt;type:&amp;nbsp;PostgreSQL v16.4&amp;gt;" style="text;html=1;strokeColor=none;fillColor=none;align=center;verticalAlign=middle;whiteSpace=wrap;rounded=0;dashed=1;fontSize=7;fontStyle=2;fontFamily=Open Sans;" parent="1" vertex="1">
          <mxGeometry x="695" y="369" width="240" height="10" as="geometry" />
        </mxCell>
        <mxCell id="Mi3nhXwhfbfwphBiqheP-78" value="&amp;lt;type:&amp;nbsp;pgweb v0.15&amp;gt;" style="text;html=1;strokeColor=none;fillColor=none;align=center;verticalAlign=middle;whiteSpace=wrap;rounded=0;dashed=1;fontSize=7;fontStyle=2;fontFamily=Open Sans;" parent="1" vertex="1">
          <mxGeometry x="425" y="499" width="230" height="10" as="geometry" />
        </mxCell>
        <mxCell id="Mi3nhXwhfbfwphBiqheP-88" style="edgeStyle=orthogonalEdgeStyle;rounded=0;orthogonalLoop=1;jettySize=auto;html=1;entryX=0;entryY=0.5;entryDx=0;entryDy=0;" parent="1" source="Mi3nhXwhfbfwphBiqheP-79" target="8" edge="1">
          <mxGeometry relative="1" as="geometry" />
        </mxCell>
        <mxCell id="Mi3nhXwhfbfwphBiqheP-89" value="&lt;font style=&quot;font-size: 8px;&quot; face=&quot;Open Sans&quot;&gt;Requests&lt;br&gt;http://domain/&lt;font style=&quot;font-size: 8px;&quot; color=&quot;#3333ff&quot;&gt;api/&lt;/font&gt;&lt;br&gt;http://domain/&lt;font style=&quot;font-size: 8px;&quot; color=&quot;#ffb570&quot;&gt;_pgweb/&lt;/font&gt;&lt;/font&gt;" style="edgeLabel;html=1;align=center;verticalAlign=middle;resizable=0;points=[];" parent="Mi3nhXwhfbfwphBiqheP-88" vertex="1" connectable="0">
          <mxGeometry x="-0.3359" relative="1" as="geometry">
            <mxPoint x="14" as="offset" />
          </mxGeometry>
        </mxCell>
        <mxCell id="Mi3nhXwhfbfwphBiqheP-79" value="" style="shape=umlActor;verticalLabelPosition=bottom;verticalAlign=top;html=1;outlineConnect=0;rounded=0;fontFamily=Open Sans;" parent="1" vertex="1">
          <mxGeometry x="205" y="379" width="10" height="20" as="geometry" />
        </mxCell>
        <mxCell id="8" value="" style="shape=image;verticalLabelPosition=bottom;verticalAlign=top;imageAspect=0;aspect=fixed;image=data:image/svg+xml,PHN2ZyB4bWxucz0iaHR0cDovL3d3dy53My5vcmcvMjAwMC9zdmciIGlkPSJzdmcxMzgyNiIgdmVyc2lvbj0iMS4xIiB2aWV3Qm94PSIwIDAgMTguMDM1MzM0IDE3LjUwMDM3OCIgaGVpZ2h0PSIxNy41MDAzNzhtbSIgd2lkdGg9IjE4LjAzNTMzNG1tIj4mI3hhOyAgPGRlZnMgaWQ9ImRlZnMxMzgyMCIvPiYjeGE7ICAmI3hhOyAgPG1ldGFkYXRhIGlkPSJtZXRhZGF0YTEzODIzIj4mI3hhOyAgICAmI3hhOyAgICAgICYjeGE7ICAgICAgICBpbWFnZS9zdmcreG1sJiN4YTsgICAgICAgICYjeGE7ICAgICAgICAmI3hhOyAgICAgICYjeGE7ICAgICYjeGE7ICA8L21ldGFkYXRhPiYjeGE7ICA8ZyB0cmFuc2Zvcm09InRyYW5zbGF0ZSgtMC45OTI2MjYzOCwtMS4xNzQxODEpIiBpZD0ibGF5ZXIxIj4mI3hhOyAgICA8ZyB0cmFuc2Zvcm09Im1hdHJpeCgxLjAxNDg4ODcsMCwwLDEuMDE0ODg4NywxNi45MDIxNDYsLTIuNjk4NzI2KSIgaWQ9Imc3MCI+JiN4YTsgICAgICA8cGF0aCBzdHlsZT0iZmlsbDojMzI2Y2U1O2ZpbGwtb3BhY2l0eToxO3N0cm9rZTpub25lO3N0cm9rZS13aWR0aDowO3N0cm9rZS1taXRlcmxpbWl0OjQ7c3Ryb2tlLWRhc2hhcnJheTpub25lO3N0cm9rZS1vcGFjaXR5OjEiIGQ9Im0gLTYuODQ5MjAxNSw0LjI3MjQ2NjggYSAxLjExOTEyNTUsMS4xMDk5NjcxIDAgMCAwIC0wLjQyODg4MTgsMC4xMDg1MzAzIGwgLTUuODUyNDAzNywyLjc5NjMzOTQgYSAxLjExOTEyNTUsMS4xMDk5NjcxIDAgMCAwIC0wLjYwNTUyNCwwLjc1Mjk3NTkgbCAtMS40NDM4MjgsNi4yODEyODQ2IGEgMS4xMTkxMjU1LDEuMTA5OTY3MSAwIDAgMCAwLjE1MTk0MywwLjg1MTAyOCAxLjExOTEyNTUsMS4xMDk5NjcxIDAgMCAwIDAuMDYzNjIsMC4wODgzMiBsIDQuMDUwOCw1LjAzNjU1NSBhIDEuMTE5MTI1NSwxLjEwOTk2NzEgMCAwIDAgMC44NzQ5NzksMC40MTc2NTQgbCA2LjQ5NjEwMTEsLTAuMDAxNSBhIDEuMTE5MTI1NSwxLjEwOTk2NzEgMCAwIDAgMC44NzQ5Nzg4LC0wLjQxNjkwNiBMIDEuMzgxODg3MiwxNS4xNDk0NTMgQSAxLjExOTEyNTUsMS4xMDk5NjcxIDAgMCAwIDEuNTk4MTk4NiwxNC4yMTAxMDQgTCAwLjE1MjEyNjU3LDcuOTI4ODE1NCBBIDEuMTE5MTI1NSwxLjEwOTk2NzEgMCAwIDAgLTAuNDUzMzk3OTQsNy4xNzU4Mzk2IEwgLTYuMzA2NTQ5Niw0LjM4MDk5NzEgQSAxLjExOTEyNTUsMS4xMDk5NjcxIDAgMCAwIC02Ljg0OTIwMTUsNC4yNzI0NjY4IFoiIGlkPSJwYXRoMzA1NSIvPiYjeGE7ICAgICAgPHBhdGggdGV4dC1hbmNob3I9InN0YXJ0IiBzdHlsZT0iY29sb3I6IzAwMDAwMDtmb250LXN0eWxlOm5vcm1hbDtmb250LXZhcmlhbnQ6bm9ybWFsO2ZvbnQtd2VpZ2h0Om5vcm1hbDtmb250LXN0cmV0Y2g6bm9ybWFsO2ZvbnQtc2l6ZTptZWRpdW07bGluZS1oZWlnaHQ6bm9ybWFsO2ZvbnQtZmFtaWx5OlNhbnM7LWlua3NjYXBlLWZvbnQtc3BlY2lmaWNhdGlvbjpTYW5zO3RleHQtaW5kZW50OjA7dGV4dC1hbGlnbjpzdGFydDt0ZXh0LWRlY29yYXRpb246bm9uZTt0ZXh0LWRlY29yYXRpb24tbGluZTpub25lO2xldHRlci1zcGFjaW5nOm5vcm1hbDt3b3JkLXNwYWNpbmc6bm9ybWFsO3RleHQtdHJhbnNmb3JtOm5vbmU7d3JpdGluZy1tb2RlOmxyLXRiO2RpcmVjdGlvbjpsdHI7YmFzZWxpbmUtc2hpZnQ6YmFzZWxpbmU7ZGlzcGxheTppbmxpbmU7b3ZlcmZsb3c6dmlzaWJsZTt2aXNpYmlsaXR5OnZpc2libGU7ZmlsbDojZmZmZmZmO2ZpbGwtb3BhY2l0eToxO2ZpbGwtcnVsZTpub256ZXJvO3N0cm9rZTpub25lO3N0cm9rZS13aWR0aDowO3N0cm9rZS1taXRlcmxpbWl0OjQ7c3Ryb2tlLWRhc2hhcnJheTpub25lO21hcmtlcjpub25lO2VuYWJsZS1iYWNrZ3JvdW5kOmFjY3VtdWxhdGUiIGQ9Ik0gLTYuODUyMzQzNSwzLjgxNzYzNzIgQSAxLjE4MTQzMDQsMS4xNzE3NjIgMCAwIDAgLTcuMzA0NDI4NCwzLjkzMjkwNCBsIC02LjE3ODc0MjYsMi45NTEyNzU4IGEgMS4xODE0MzA0LDEuMTcxNzYyIDAgMCAwIC0wLjYzOTIwNiwwLjc5NDg5MSBsIC0xLjUyMzkxNSw2LjYzMDgyODIgYSAxLjE4MTQzMDQsMS4xNzE3NjIgMCAwIDAgMC4xNjAxNzUsMC44OTg5MyAxLjE4MTQzMDQsMS4xNzE3NjIgMCAwIDAgMC4wNjczNiwwLjA5MjgxIGwgNC4yNzYwOTQsNS4zMTcyMzYgYSAxLjE4MTQzMDQsMS4xNzE3NjIgMCAwIDAgMC45MjM2MywwLjQ0MDg1OCBsIDYuODU3NjE4OCwtMC4wMDE1IGEgMS4xODE0MzA0LDEuMTcxNzYyIDAgMCAwIDAuOTIzNjMwOCwtMC40NDAxMSBsIDQuMjc0NTk2NiwtNS4zMTc5ODUgYSAxLjE4MTQzMDQsMS4xNzE3NjIgMCAwIDAgMC4yMjgyODgsLTAuOTkwOTkzIEwgMC41Mzg5NDQzOSw3LjY3NzU3MzggQSAxLjE4MTQzMDQsMS4xNzE3NjIgMCAwIDAgLTAuMTAwMjYxMDEsNi44ODM0MzEzIEwgLTYuMjc5MDAzNywzLjkzMjE1NTUgQSAxLjE4MTQzMDQsMS4xNzE3NjIgMCAwIDAgLTYuODUyMzQzNSwzLjgxNzYzNzIgWiBtIDAuMDAyOTksMC40NTUwNzg5IGEgMS4xMTkxMjU1LDEuMTA5OTY3MSAwIDAgMSAwLjU0MjY1MTcsMC4xMDg1MzAzIGwgNS44NTMxNTE2OSwyLjc5NDg0MjUgQSAxLjExOTEyNTUsMS4xMDk5NjcxIDAgMCAxIDAuMTUxOTc4MTEsNy45MjkwNjQ4IEwgMS41OTgwNTEsMTQuMjEwMzUgYSAxLjExOTEyNTUsMS4xMDk5NjcxIDAgMCAxIC0wLjIxNjMxMjMsMC45MzkzNDggbCAtNC4wNDkzMDMyLDUuMDM3MzA0IGEgMS4xMTkxMjU1LDEuMTA5OTY3MSAwIDAgMSAtMC44NzQ5Nzg5LDAuNDE2OTA2IGwgLTYuNDk2MTAwNiwwLjAwMTUgYSAxLjExOTEyNTUsMS4xMDk5NjcxIDAgMCAxIC0wLjg3NDk3OSwtMC40MTc2NTIgbCAtNC4wNTA4LC01LjAzNjU1NCBhIDEuMTE5MTI1NSwxLjEwOTk2NzEgMCAwIDEgLTAuMDYzNjIsLTAuMDg4MzIgMS4xMTkxMjU1LDEuMTA5OTY3MSAwIDAgMSAtMC4xNTE5NDIsLTAuODUxMDI4IGwgMS40NDM4MjcsLTYuMjgxMjg1MyBhIDEuMTE5MTI1NSwxLjEwOTk2NzEgMCAwIDEgMC42MDU1MjQsLTAuNzUyOTc1OCBsIDUuODUyNDAzNiwtMi43OTYzMzk1IGEgMS4xMTkxMjU1LDEuMTA5OTY3MSAwIDAgMSAwLjQyODg4MTksLTAuMTA4NTMwMyB6IiBpZD0icGF0aDMwNTQtMi05Ii8+JiN4YTsgICAgPC9nPiYjeGE7ICAgIDx0ZXh0IHhtbDpzcGFjZT0icHJlc2VydmUiIHN0eWxlPSJmb250LXN0eWxlOm5vcm1hbDtmb250LXdlaWdodDpub3JtYWw7Zm9udC1zaXplOjEwLjU4MzMzMzAycHg7bGluZS1oZWlnaHQ6Ni42MTQ1ODM0OXB4O2ZvbnQtZmFtaWx5OlNhbnM7bGV0dGVyLXNwYWNpbmc6MHB4O3dvcmQtc3BhY2luZzowcHg7ZmlsbDojZmZmZmZmO2ZpbGwtb3BhY2l0eToxO3N0cm9rZTpub25lO3N0cm9rZS13aWR0aDowLjI2NDU4MzMycHg7c3Ryb2tlLWxpbmVjYXA6YnV0dDtzdHJva2UtbGluZWpvaW46bWl0ZXI7c3Ryb2tlLW9wYWNpdHk6MSIgeD0iMTAuMDA4OTE1IiB5PSIxNi44MTE3NzUiIGlkPSJ0ZXh0MjA2NiI+PHRzcGFuIGlkPSJ0c3BhbjIwNjQiIHg9IjEwLjAwODkxNSIgeT0iMTYuODExNzc1IiB0ZXh0LWFuY2hvcj0ibWlkZGxlIiBzdHlsZT0iZm9udC1zdHlsZTpub3JtYWw7Zm9udC12YXJpYW50Om5vcm1hbDtmb250LXdlaWdodDpub3JtYWw7Zm9udC1zdHJldGNoOm5vcm1hbDtmb250LXNpemU6Mi44MjIyMjIyM3B4O2ZvbnQtZmFtaWx5OkFyaWFsOy1pbmtzY2FwZS1mb250LXNwZWNpZmljYXRpb246J0FyaWFsLCBOb3JtYWwnO3RleHQtYWxpZ246Y2VudGVyO3dyaXRpbmctbW9kZTpsci10YjtmaWxsOiNmZmZmZmY7ZmlsbC1vcGFjaXR5OjE7c3Ryb2tlLXdpZHRoOjAuMjY0NTgzMzJweCI+aW5nPC90c3Bhbj48L3RleHQ+JiN4YTsgICAgPHBhdGggc3R5bGU9ImZpbGw6I2ZmZmZmZjtmaWxsLW9wYWNpdHk6MTtzdHJva2U6bm9uZTtzdHJva2Utd2lkdGg6MC4yMDk2NjgxNyIgZD0ibSAxMi43NTc5OSwxMy43MTYyNTYgLTIuMjcwNzAxLDAgLTQuOTIwOTAwOSwtNi4xNTU4NjE0IC0xLjQyMzY2LDAgMCwtMi4wMTQ5MDY5IDIuMzE0NzMsMCA0LjkyMzAxMTksNi4xNTU4NTMzIDEuMzc3NTIsMCAwLC0xLjU5MzQ3NCAzLjExOTg2OSwyLjU5OTg4MiAtMy4xMTk4NjksMi42MDE5ODMgeiBtIC0yLjQ3NjE2LC00Ljc1NTI3NDggMS4wOTg2NCwtMS4zNzU0MjU2IDEuMzc3NTIsMCAwLDEuNTkzNDc1IDMuMTE5ODY5LC0yLjU5OTg4MjkgLTMuMTE5ODY5LC0yLjYwMTk4MyAwLDEuNTkzNDgzIC0yLjI3MDcwMSwwIC0xLjQ1NzE5MDQsMS44MjQxMTAyIHogbSAtMy41OTc5MjE5LDEuMzY0OTQyOCAtMS4xMTc1MiwxLjQwMDU3OCAtMS40MjM2NiwwIDAsMi4wMTQ5MTUgMi4zMTQ3MywwIDEuNDc4MTY5OSwtMS44NDkyNzggeiIgcG9pbnRlci1ldmVudHM9Im5vbmUiIGlkPSJwYXRoNzcwOSIvPiYjeGE7ICA8L2c+JiN4YTs8L3N2Zz4=;dashed=1;fontSize=8;fontFamily=Open Sans;" parent="1" vertex="1">
          <mxGeometry x="326" y="374.5" width="29" height="29" as="geometry" />
        </mxCell>
        <mxCell id="KqGQ3suDVY39VXcQCuIc-26" value="" style="aspect=fixed;sketch=0;html=1;dashed=0;whitespace=wrap;verticalLabelPosition=bottom;verticalAlign=top;fillColor=#2875E2;strokeColor=#ffffff;points=[[0.005,0.63,0],[0.1,0.2,0],[0.9,0.2,0],[0.5,0,0],[0.995,0.63,0],[0.72,0.99,0],[0.5,1,0],[0.28,0.99,0]];shape=mxgraph.kubernetes.icon2;kubernetesLabel=1;prIcon=svc" parent="1" vertex="1">
          <mxGeometry x="373.54" y="722" width="19.79" height="19" as="geometry" />
        </mxCell>
        <mxCell id="KqGQ3suDVY39VXcQCuIc-27" value="Service" style="text;html=1;align=left;verticalAlign=middle;whiteSpace=wrap;rounded=0;fontFamily=Open Sans;fontSize=8;" parent="1" vertex="1">
          <mxGeometry x="393.33000000000004" y="726.5" width="76.67" height="10" as="geometry" />
        </mxCell>
        <mxCell id="KqGQ3suDVY39VXcQCuIc-28" value="" style="shape=image;verticalLabelPosition=bottom;verticalAlign=top;imageAspect=0;image=data:image/svg+xml,PHN2ZyB4bWxucz0iaHR0cDovL3d3dy53My5vcmcvMjAwMC9zdmciIHdpZHRoPSIyNTYiIHZpZXdCb3g9IjAgMCAyNTYgMjQ5IiBwcmVzZXJ2ZUFzcGVjdFJhdGlvPSJ4TWlkWU1pZCIgaGVpZ2h0PSIyNDkiPjxwYXRoIGZpbGw9IiMzMjZkZTYiIGQ9Im04Mi4wODUxNjEzIDI0NC45MzQxOTRjLTUuOTQ1ODA2NSAwLTExLjU2MTI5MDMtMi42NDI1ODEtMTUuMzYtNy40MzIyNTlsLTU3LjgwNjQ1MTYyLTcxLjg0NTE2MWMtMy43OTg3MDk2OC00Ljc4OTY3Ny01LjI4NTE2MTI5LTEwLjkwMDY0NS0zLjc5ODcwOTY4LTE2Ljg0NjQ1MWwyMC42NDUxNjEzLTg5LjY4MjU4MTFjMS4zMjEyOTAzLTUuOTQ1ODA2NCA1LjI4NTE2MTMtMTAuNzM1NDgzOCAxMC43MzU0ODM5LTEzLjM3ODA2NDVsODMuNTcxNjEyOC0zOS45NjkwMzIyNGMyLjY0MjU4MS0xLjMyMTI5MDMyIDUuNjE1NDg0LTEuOTgxOTM1NDggOC41ODgzODctMS45ODE5MzU0OHM1Ljk0NTgwNy42NjA2NDUxNiA4LjU4ODM4NyAxLjk4MTkzNTQ4bDgzLjU3MTYxMyAzOS44MDM4NzA5NGM1LjQ1MDMyMyAyLjY0MjU4MDcgOS40MTQxOTQgNy40MzIyNTgxIDEwLjczNTQ4NCAxMy4zNzgwNjQ1bDIwLjY0NTE2MSA4OS42ODI1ODA0YzEuMzIxMjkxIDUuOTQ1ODA3IDAgMTIuMDU2Nzc0LTMuNzk4NzA5IDE2Ljg0NjQ1MmwtNTcuODA2NDUyIDcxLjg0NTE2MWMtMy43OTg3MSA0LjYyNDUxNi05LjQxNDE5NCA3LjQzMjI1OC0xNS4zNiA3LjQzMjI1OHoiLz48ZyBmaWxsPSIjZmZmIj48cGF0aCBkPSJtMTI4LjQ5NTQ4NCA3LjkyNzc0MTk0YzIuMzEyMjU4IDAgNC42MjQ1MTYuNDk1NDgzODcgNi43NzE2MTMgMS40ODY0NTE2MWw4My41NzE2MTMgMzkuODAzODcwOTVjNC4yOTQxOTMgMi4xNDcwOTY4IDcuNTk3NDE5IDYuMTEwOTY3OCA4LjU4ODM4NyAxMC43MzU0ODM5bDIwLjY0NTE2MSA4OS42ODI1ODA2YzEuMTU2MTI5IDQuNzg5Njc3IDAgOS43NDQ1MTYtMy4xMzgwNjQgMTMuNTQzMjI2bC01Ny44MDY0NTIgNzEuODQ1MTYxYy0yLjk3MjkwMyAzLjc5ODcxLTcuNTk3NDE5IDUuOTQ1ODA3LTEyLjM4NzA5NyA1Ljk0NTgwN2gtOTIuNjU1NDgzN2MtNC43ODk2Nzc0IDAtOS40MTQxOTM2LTIuMTQ3MDk3LTEyLjM4NzA5NjgtNS45NDU4MDdsLTU3LjgwNjQ1MTYtNzEuODQ1MTYxYy0yLjk3MjkwMzIyLTMuNzk4NzEtNC4xMjkwMzIyNS04Ljc1MzU0OS0zLjEzODA2NDUxLTEzLjU0MzIyNmwyMC42NDUxNjEzMS04OS42ODI1ODA2YzEuMTU2MTI5LTQuNzg5Njc3NCA0LjI5NDE5MzUtOC43NTM1NDg0IDguNTg4Mzg3MS0xMC43MzU0ODM5bDgzLjU3MTYxMzItMzkuOTY5MDMyMjRjMi4xNDcwOTYtLjgyNTgwNjQ1IDQuNjI0NTE2LTEuMzIxMjkwMzIgNi45MzY3NzQtMS4zMjEyOTAzMnptMC03Ljc2MjU4MDY1Yy0zLjQ2ODM4NyAwLTYuOTM2Nzc0LjgyNTgwNjQ1LTEwLjI0IDIuMzEyMjU4MDZsLTgzLjU3MTYxMyAzOS45NjkwMzIyNWMtNi42MDY0NTE2IDMuMTM4MDY0NS0xMS4yMzA5Njc4IDguOTE4NzA5Ny0xMi44ODI1ODA3IDE2LjAyMDY0NTJsLTIwLjY0NTE2MTI3IDg5LjY4MjU4MDJjLTEuNjUxNjEyOSA3LjEwMTkzNiAwIDE0LjM2OTAzMyA0LjYyNDUxNjEzIDIwLjE0OTY3OGw1Ny44MDY0NTE2NCA3MS44NDUxNjFjNC40NTkzNTQ4IDUuNjE1NDg0IDExLjIzMDk2NzcgOC43NTM1NDkgMTguMzMyOTAzMiA4Ljc1MzU0OWg5Mi42NTU0ODRjNy4xMDE5MzUgMCAxMy44NzM1NDgtMy4xMzgwNjUgMTguMzMyOTAzLTguNzUzNTQ5bDU3LjgwNjQ1Mi03MS44NDUxNjFjNC42MjQ1MTYtNS42MTU0ODQgNi4yNzYxMjktMTMuMDQ3NzQyIDQuNjI0NTE2LTIwLjE0OTY3OGwtMjAuNjQ1MTYxLTg5LjY4MjU4MDJjLTEuNjUxNjEzLTcuMTAxOTM1NS02LjI3NjEyOS0xMi44ODI1ODA3LTEyLjg4MjU4MS0xNi4wMjA2NDUybC04My4yNDEyOS0zOS45NjkwMzIyNWMtMy4xMzgwNjUtMS40ODY0NTE2MS02LjYwNjQ1Mi0yLjMxMjI1ODA2LTEwLjA3NDgzOS0yLjMxMjI1ODA2eiIvPjxwYXRoIGQ9Im0yMTIuMjMyMjU4IDE0Mi41MzQxOTRjLS4xNjUxNjEgMC0uMTY1MTYxIDAgMCAwaC0uMTY1MTYxYy0uMTY1MTYyIDAtLjMzMDMyMyAwLS4zMzAzMjMtLjE2NTE2Mi0uMzMwMzIyIDAtLjY2MDY0NS0uMTY1MTYxLS45OTA5NjgtLjE2NTE2MS0xLjE1NjEyOS0uMTY1MTYxLTIuMTQ3MDk2LS4zMzAzMjMtMy4xMzgwNjQtLjMzMDMyMy0uNDk1NDg0IDAtLjk5MDk2OCAwLTEuNjUxNjEzLS4xNjUxNjFoLS4xNjUxNjFjLTMuNDY4Mzg3LS4zMzAzMjItNi4yNzYxMjktLjY2MDY0NS04LjkxODcxLTEuNDg2NDUyLTEuMTU2MTI5LS40OTU0ODMtMS40ODY0NTItMS4xNTYxMjktMS44MTY3NzQtMS44MTY3NzQgMC0uMTY1MTYxLS4xNjUxNjEtLjE2NTE2MS0uMTY1MTYxLS4zMzAzMjJsLTIuMTQ3MDk3LS42NjA2NDVjLjk5MDk2OC03LjU5NzQyLjY2MDY0NS0xNS41MjUxNjItMS4xNTYxMjktMjMuMjg3NzQyLTEuODE2Nzc0LTcuNzYyNTgxLTQuOTU0ODM5LTE1LjAyOTY3NzgtOS4yNDkwMzItMjEuNjM2MTI5NGwxLjY1MTYxMi0xLjQ4NjQ1MTZ2LS4zMzAzMjI2YzAtLjgyNTgwNjUuMTY1MTYyLTEuNjUxNjEyOS44MjU4MDctMi40Nzc0MTk0IDEuOTgxOTM1LTEuODE2Nzc0MiA0LjQ1OTM1NS0zLjMwMzIyNTggNy40MzIyNTgtNS4xMi40OTU0ODQtLjMzMDMyMjUuOTkwOTY4LS40OTU0ODM4IDEuNDg2NDUyLS44MjU4MDY0Ljk5MDk2Ny0uNDk1NDgzOSAxLjgxNjc3NC0uOTkwOTY3OCAyLjgwNzc0MS0xLjY1MTYxMjkuMTY1MTYyLS4xNjUxNjEzLjQ5NTQ4NC0uMzMwMzIyNi44MjU4MDctLjY2MDY0NTIuMTY1MTYxLS4xNjUxNjEzLjMzMDMyMy0uMTY1MTYxMy4zMzAzMjMtLjMzMDMyMjYgMi4zMTIyNTgtMS45ODE5MzU0IDIuODA3NzQxLTUuMjg1MTYxMyAxLjE1NjEyOS03LjQzMjI1OC0uODI1ODA3LTEuMTU2MTI5MS0yLjMxMjI1OS0xLjgxNjc3NDItMy43OTg3MS0xLjgxNjc3NDItMS4zMjEyOSAwLTIuNDc3NDE5LjQ5NTQ4MzgtMy42MzM1NDkgMS4zMjEyOTAzLS4xNjUxNjEuMTY1MTYxMy0uMTY1MTYxLjE2NTE2MTMtLjMzMDMyMi4zMzAzMjI2LS4zMzAzMjMuMTY1MTYxMy0uNDk1NDg0LjQ5NTQ4MzktLjgyNTgwNy42NjA2NDUxLS44MjU4MDYuODI1ODA2NS0xLjQ4NjQ1MSAxLjQ4NjQ1MTctMi4xNDcwOTYgMi4zMTIyNTgxLS4zMzAzMjMuMzMwMzIyNi0uNjYwNjQ1LjgyNTgwNjUtMS4xNTYxMjkgMS4xNTYxMjktMi4zMTIyNTggMi40Nzc0MTk0LTQuNDU5MzU1IDQuNDU5MzU0OS02LjYwNjQ1MiA1Ljk0NTgwNjUtLjQ5NTQ4NC4zMzAzMjI2LS45OTA5NjguNDk1NDgzOS0xLjQ4NjQ1Mi40OTU0ODM5LS4zMzAzMjIgMC0uNjYwNjQ1IDAtLjk5MDk2Ny0uMTY1MTYxM2gtLjMzMDMyM2wtMS45ODE5MzUgMS4zMjEyOTAzYy0yLjE0NzA5Ny0yLjMxMjI1ODEtNC40NTkzNTUtNC4yOTQxOTM2LTYuNzcxNjEzLTYuMjc2MTI5LTkuOTA5Njc4LTcuNzYyNTgwNy0yMS45NjY0NTItMTIuNTUyMjU4MS0zNC41MTg3MS0xMy43MDgzODcxbC0uMTY1MTYxLTIuMTQ3MDk2OGMtLjE2NTE2Mi0uMTY1MTYxMy0uMTY1MTYyLS4xNjUxNjEzLS4zMzAzMjMtLjMzMDMyMjYtLjQ5NTQ4NC0uNDk1NDgzOS0xLjE1NjEyOS0uOTkwOTY3Ny0xLjMyMTI5LTIuMTQ3MDk2OC0uMTY1MTYxLTIuNjQyNTgwNi4xNjUxNjEtNS42MTU0ODM4LjQ5NTQ4NC04LjkxODcwOTZ2LS4xNjUxNjEzYzAtLjQ5NTQ4MzkuMTY1MTYxLTEuMTU2MTI5MS4zMzAzMjItMS42NTE2MTI5LjE2NTE2Mi0uOTkwOTY3OC4zMzAzMjMtMS45ODE5MzU1LjQ5NTQ4NC0zLjEzODA2NDZ2LS45OTA5Njc3LS40OTU0ODM5YzAtMi45NzI5MDMyLTIuMzEyMjU4LTUuNDUwMzIyNS01LjEyLTUuNDUwMzIyNS0xLjMyMTI5IDAtMi42NDI1OC42NjA2NDUxLTMuNjMzNTQ4IDEuNjUxNjEyOS0uOTkwOTY4Ljk5MDk2NzctMS40ODY0NTIgMi4zMTIyNTgtMS40ODY0NTIgMy43OTg3MDk2di4zMzAzMjI2Ljk5MDk2NzhjMCAxLjE1NjEyOS4xNjUxNjEgMi4xNDcwOTY3LjQ5NTQ4NCAzLjEzODA2NDUuMTY1MTYxLjQ5NTQ4MzguMTY1MTYxLjk5MDk2NzcuMzMwMzIzIDEuNjUxNjEyOXYuMTY1MTYxM2MuMzMwMzIyIDMuMzAzMjI1OC44MjU4MDYgNi4yNzYxMjkuNDk1NDgzIDguOTE4NzA5Ni0uMTY1MTYxIDEuMTU2MTI5MS0uODI1ODA2IDEuNjUxNjEyOS0xLjMyMTI5IDIuMTQ3MDk2OC0uMTY1MTYxLjE2NTE2MTMtLjE2NTE2MS4xNjUxNjEzLS4zMzAzMjIuMzMwMzIyNmwtLjE2NTE2MiAyLjE0NzA5NjhjLTIuOTcyOTAzLjMzMDMyMjYtNS45NDU4MDYuNjYwNjQ1MS04LjkxODcwOSAxLjMyMTI5MDMtMTIuNzE3NDIgMi44MDc3NDE5LTIzLjk0ODM4NzUgOS4yNDkwMzIzLTMyLjcwMTkzNTkgMTguNDk4MDY0NWwtMS42NTE2MTI5LTEuMTU2MTI5aC0uMzMwMzIyNmMtLjMzMDMyMjUgMC0uNjYwNjQ1MS4xNjUxNjEzLS45OTA5Njc3LjE2NTE2MTMtLjQ5NTQ4MzkgMC0uOTkwOTY3Ny0uMTY1MTYxMy0xLjQ4NjQ1MTYtLjQ5NTQ4MzktMi4xNDcwOTY4LTEuNDg2NDUxNi00LjI5NDE5MzYtMy42MzM1NDg0LTYuNjA2NDUxNi02LjExMDk2NzctLjMzMDMyMjYtLjMzMDMyMjYtLjY2MDY0NTItLjgyNTgwNjUtMS4xNTYxMjkxLTEuMTU2MTI5MS0uNjYwNjQ1MS0uODI1ODA2NC0xLjMyMTI5MDMtMS40ODY0NTE2LTIuMTQ3MDk2Ny0yLjMxMjI1OC0uMTY1MTYxMy0uMTY1MTYxMy0uNDk1NDgzOS0uMzMwMzIyNi0uODI1ODA2NS0uNjYwNjQ1Mi0uMTY1MTYxMy0uMTY1MTYxMy0uMzMwMzIyNi0uMTY1MTYxMy0uMzMwMzIyNi0uMzMwMzIyNi0uOTkwOTY3Ny0uODI1ODA2NC0yLjMxMjI1OC0xLjMyMTI5MDMtMy42MzM1NDgzLTEuMzIxMjkwMy0xLjQ4NjQ1MTcgMC0yLjk3MjkwMzMuNjYwNjQ1Mi0zLjc5ODcwOTcgMS44MTY3NzQyLTEuNjUxNjEyOSAyLjE0NzA5NjgtMS4xNTYxMjkxIDUuNDUwMzIyNiAxLjE1NjEyOSA3LjQzMjI1ODEuMTY1MTYxMyAwIC4xNjUxNjEzLjE2NTE2MTIuMzMwMzIyNi4xNjUxNjEyLjMzMDMyMjYuMTY1MTYxMy40OTU0ODM5LjQ5NTQ4MzkuODI1ODA2NC42NjA2NDUyLjk5MDk2NzguNjYwNjQ1MiAxLjgxNjc3NDIgMS4xNTYxMjkgMi44MDc3NDIgMS42NTE2MTI5LjQ5NTQ4MzguMTY1MTYxMy45OTA5Njc3LjQ5NTQ4MzkgMS40ODY0NTE2LjgyNTgwNjUgMi45NzI5MDMyIDEuODE2Nzc0MiA1LjQ1MDMyMjYgMy4zMDMyMjU4IDcuNDMyMjU4MSA1LjEyLjgyNTgwNjQuODI1ODA2NC44MjU4MDY0IDEuNjUxNjEyOS44MjU4MDY0IDIuNDc3NDE5M3YuMzMwMzIyNmwxLjY1MTYxMjkgMS40ODY0NTE2Yy0uMzMwMzIyNi40OTU0ODM5LS42NjA2NDUyLjgyNTgwNjUtLjgyNTgwNjQgMS4zMjEyOTAzLTguMjU4MDY0NiAxMy4wNDc3NDItMTEuMzk2MTI5MSAyOC40MDc3NDItOS4yNDkwMzIzIDQzLjYwMjU4MWwtMi4xNDcwOTY4LjY2MDY0NWMwIC4xNjUxNjEtLjE2NTE2MTMuMTY1MTYxLS4xNjUxNjEzLjMzMDMyMi0uMzMwMzIyNS42NjA2NDYtLjgyNTgwNjQgMS4zMjEyOTEtMS44MTY3NzQyIDEuODE2Nzc1LTIuNDc3NDE5My44MjU4MDYtNS40NTAzMjI1IDEuMTU2MTI5LTguOTE4NzA5NiAxLjQ4NjQ1MWgtLjE2NTE2MTNjLS40OTU0ODM5IDAtMS4xNTYxMjkxIDAtMS42NTE2MTI5LjE2NTE2Mi0uOTkwOTY3OCAwLTEuOTgxOTM1NS4xNjUxNjEtMy4xMzgwNjQ1LjMzMDMyMi0uMzMwMzIyNiAwLS42NjA2NDUyLjE2NTE2MS0uOTkwOTY3OC4xNjUxNjEtLjE2NTE2MTMgMC0uMzMwMzIyNiAwLS40OTU0ODM5LjE2NTE2Mi0yLjk3MjkwMzIuNjYwNjQ1LTQuNzg5Njc3NCAzLjQ2ODM4Ny00LjI5NDE5MzUgNi4xMTA5NjcuNDk1NDgzOSAyLjMxMjI1OCAyLjY0MjU4MDYgMy43OTg3MSA1LjI4NTE2MTMgMy43OTg3MS40OTU0ODM5IDAgLjgyNTgwNjQgMCAxLjMyMTI5MDMtLjE2NTE2MS4xNjUxNjEzIDAgLjMzMDMyMjYgMCAuMzMwMzIyNi0uMTY1MTYxLjMzMDMyMjYgMCAuNjYwNjQ1MS0uMTY1MTYyLjk5MDk2NzctLjE2NTE2MiAxLjE1NjEyOTEtLjMzMDMyMiAxLjk4MTkzNTUtLjY2MDY0NSAyLjk3MjkwMzMtMS4xNTYxMjkuNDk1NDgzOC0uMTY1MTYxLjk5MDk2NzctLjQ5NTQ4NCAxLjQ4NjQ1MTYtLjY2MDY0NWguMTY1MTYxM2MzLjEzODA2NDUtMS4xNTYxMjkgNS45NDU4MDY0LTIuMTQ3MDk3IDguNTg4Mzg3MS0yLjQ3NzQxOWguMzMwMzIyNWMuOTkwOTY3OCAwIDEuNjUxNjEyOS40OTU0ODQgMi4xNDcwOTY4LjgyNTgwNi4xNjUxNjEzIDAgLjE2NTE2MTMuMTY1MTYxLjMzMDMyMjYuMTY1MTYxbDIuMzEyMjU4MS0uMzMwMzIyYzMuOTYzODcwOSAxMi4yMjE5MzUgMTEuNTYxMjkwMyAyMy4xMjI1OCAyMS42MzYxMjkgMzEuMDUwMzIyIDIuMzEyMjU4IDEuODE2Nzc1IDQuNjI0NTE2MSAzLjMwMzIyNiA3LjEwMTkzNTUgNC43ODk2NzhsLS45OTA5Njc4IDIuMTQ3MDk3YzAgLjE2NTE2MS4xNjUxNjEzLjE2NTE2MS4xNjUxNjEzLjMzMDMyMi4zMzAzMjI2LjY2MDY0NS42NjA2NDUyIDEuNDg2NDUyLjMzMDMyMjYgMi42NDI1ODEtLjk5MDk2NzcgMi40Nzc0MTktMi40Nzc0MTk0IDQuOTU0ODM5LTQuMjk0MTkzNiA3Ljc2MjU4di4xNjUxNjJjLS4zMzAzMjI1LjQ5NTQ4NC0uNjYwNjQ1MS44MjU4MDYtLjk5MDk2NzcgMS4zMjEyOS0uNjYwNjQ1Mi44MjU4MDctMS4xNTYxMjkgMS42NTE2MTMtMS44MTY3NzQyIDIuNjQyNTgxLS4xNjUxNjEzLjE2NTE2MS0uMzMwMzIyNi40OTU0ODQtLjQ5NTQ4MzkuODI1ODA2IDAgLjE2NTE2MS0uMTY1MTYxMi4zMzAzMjMtLjE2NTE2MTIuMzMwMzIzLTEuMzIxMjkwNCAyLjgwNzc0Mi0uMzMwMzIyNiA1Ljk0NTgwNiAyLjE0NzA5NjcgNy4xMDE5MzUuNjYwNjQ1Mi4zMzAzMjMgMS4zMjEyOTAzLjQ5NTQ4NCAxLjk4MTkzNTUuNDk1NDg0IDEuOTgxOTM1NSAwIDMuOTYzODcxLTEuMzIxMjkgNC45NTQ4Mzg3LTMuMTM4MDY0IDAtLjE2NTE2Mi4xNjUxNjEzLS4zMzAzMjMuMTY1MTYxMy0uMzMwMzIzLjE2NTE2MTMtLjMzMDMyMy4zMzAzMjI2LS42NjA2NDUuNDk1NDgzOS0uODI1ODA2LjQ5NTQ4MzktMS4xNTYxMjkuNjYwNjQ1MS0xLjk4MTkzNi45OTA5Njc3LTIuOTcyOTA0LjE2NTE2MTMtLjQ5NTQ4NC4zMzAzMjI2LS45OTA5NjcuNDk1NDgzOS0xLjQ4NjQ1MSAxLjE1NjEyODgtMy4zMDMyMjYgMS45ODE5MzU4LTUuOTQ1ODA3IDMuNDY4Mzg2OC04LjI1ODA2NS42NjA2NDUtLjk5MDk2OCAxLjQ4NjQ1Mi0xLjE1NjEyOSAyLjE0NzA5Ny0xLjQ4NjQ1MS4xNjUxNjEgMCAuMTY1MTYxIDAgLjMzMDMyMy0uMTY1MTYybDEuMTU2MTI5LTIuMTQ3MDk2YzcuMjY3MDk2IDIuODA3NzQxIDE1LjE5NDgzOCA0LjI5NDE5MyAyMy4xMjI1OCA0LjI5NDE5MyA0Ljc4OTY3OCAwIDkuNzQ0NTE2LS40OTU0ODQgMTQuMzY5MDMzLTEuNjUxNjEzIDIuOTcyOTAzLS42NjA2NDUgNS43ODA2NDUtMS40ODY0NTEgOC41ODgzODctMi40Nzc0MTlsLjk5MDk2NyAxLjgxNjc3NGMuMTY1MTYyIDAgLjE2NTE2MiAwIC4zMzAzMjMuMTY1MTYxLjgyNTgwNi4xNjUxNjIgMS40ODY0NTIuNDk1NDg0IDIuMTQ3MDk3IDEuNDg2NDUyIDEuMzIxMjkgMi4zMTIyNTggMi4zMTIyNTggNS4xMiAzLjQ2ODM4NyA4LjI1ODA2NHYuMTY1MTYyYy4xNjUxNjEuNDk1NDg0LjMzMDMyMi45OTA5NjcuNDk1NDg0IDEuNDg2NDUxLjMzMDMyMi45OTA5NjguNDk1NDg0IDEuOTgxOTM2Ljk5MDk2NyAyLjk3MjkwNC4xNjUxNjIuMzMwMzIyLjMzMDMyMy40OTU0ODMuNDk1NDg0LjgyNTgwNiAwIC4xNjUxNjEuMTY1MTYyLjMzMDMyMy4xNjUxNjIuMzMwMzIzLjk5MDk2NyAxLjk4MTkzNSAyLjk3MjkwMyAzLjEzODA2NCA0Ljk1NDgzOCAzLjEzODA2NC42NjA2NDYgMCAxLjMyMTI5MS0uMTY1MTYxIDEuOTgxOTM2LS40OTU0ODQgMS4xNTYxMjktLjY2MDY0NSAyLjE0NzA5Ny0xLjY1MTYxMyAyLjQ3NzQxOS0yLjk3MjkwMy4zMzAzMjMtMS4zMjEyOS4zMzAzMjMtMi44MDc3NDItLjMzMDMyMi00LjEyOTAzMiAwLS4xNjUxNjItLjE2NTE2Mi0uMTY1MTYyLS4xNjUxNjItLjMzMDMyMy0uMTY1MTYxLS4zMzAzMjItLjMzMDMyMi0uNjYwNjQ1LS40OTU0ODQtLjgyNTgwNi0uNDk1NDgzLS45OTA5NjgtMS4xNTYxMjktMS44MTY3NzQtMS44MTY3NzQtMi42NDI1ODEtLjMzMDMyMi0uNDk1NDg0LS42NjA2NDUtLjgyNTgwNi0uOTkwOTY3LTEuMzIxMjl2LS4xNjUxNjJjLTEuODE2Nzc1LTIuODA3NzQxLTMuNDY4Mzg4LTUuMjg1MTYxLTQuMjk0MTk0LTcuNzYyNTgtLjMzMDMyMy0xLjE1NjEyOSAwLTEuODE2Nzc0LjE2NTE2MS0yLjY0MjU4MSAwLS4xNjUxNjEuMTY1MTYyLS4xNjUxNjEuMTY1MTYyLS4zMzAzMjJsLS44MjU4MDctMS45ODE5MzZjOC43NTM1NDgtNS4xMiAxNi4xODU4MDctMTIuMzg3MDk3IDIxLjgwMTI5LTIxLjMwNTgwNiAyLjk3MjkwNC00LjYyNDUxNiA1LjI4NTE2Mi05Ljc0NDUxNiA2LjkzNjc3NS0xNC44NjQ1MTZsMS45ODE5MzUuMzMwMzIyYy4xNjUxNjEgMCAuMTY1MTYxLS4xNjUxNjEuMzMwMzIzLS4xNjUxNjEuNjYwNjQ1LS4zMzAzMjMgMS4xNTYxMjktLjgyNTgwNyAyLjE0NzA5Ni0uODI1ODA3aC4zMzAzMjNjMi42NDI1ODEuMzMwMzIzIDUuNDUwMzIzIDEuMzIxMjkxIDguNTg4Mzg3IDIuNDc3NDJoLjE2NTE2MWMuNDk1NDg0LjE2NTE2MS45OTA5NjguNDk1NDg0IDEuNDg2NDUyLjY2MDY0NS45OTA5NjguNDk1NDg0IDEuODE2Nzc0LjgyNTgwNiAyLjk3MjkwMyAxLjE1NjEyOS4zMzAzMjMgMCAuNjYwNjQ1LjE2NTE2MS45OTA5NjguMTY1MTYxLjE2NTE2MSAwIC4zMzAzMjMgMCAuNDk1NDg0LjE2NTE2Mi40OTU0ODQuMTY1MTYxLjgyNTgwNi4xNjUxNjEgMS4zMjEyOS4xNjUxNjEgMi40Nzc0MiAwIDQuNjI0NTE2LTEuNjUxNjEzIDUuMjg1MTYxLTMuNzk4NzEgMC0xLjk4MTkzNS0xLjgxNjc3NC00LjYyNDUxNi00Ljc4OTY3Ny01LjQ1MDMyMnptLTc2LjQ2OTY3Ny04LjA5MjkwNC03LjI2NzA5NyAzLjQ2ODM4Ny03LjI2NzA5Ny0zLjQ2ODM4Ny0xLjgxNjc3NC03Ljc2MjU4IDQuOTU0ODM5LTYuMjc2MTI5aDguMDkyOTAzbDQuOTU0ODM5IDYuMjc2MTI5em00My4xMDcwOTYtMTcuMTc2Nzc0YzEuMzIxMjkxIDUuNjE1NDg0IDEuNjUxNjEzIDExLjIzMDk2OCAxLjE1NjEyOSAxNi42ODEyOWwtMjUuMjY5Njc3LTcuMjY3MDk2Yy0yLjMxMjI1OC0uNjYwNjQ1LTMuNjMzNTQ4LTIuOTcyOTA0LTMuMTM4MDY0LTUuMjg1MTYyLjE2NTE2MS0uNjYwNjQ1LjQ5NTQ4My0xLjMyMTI5Ljk5MDk2Ny0xLjgxNjc3NGwxOS45ODQ1MTYtMTguMDAyNThjMi44MDc3NDIgNC42MjQ1MTYgNC45NTQ4MzkgOS45MDk2NzcgNi4yNzYxMjkgMTUuNjkwMzIyem0tMTQuMjAzODcxLTI1LjU5OTk5OTktMjEuNjM2MTI5IDE1LjM1OTk5OTljLTEuODE2Nzc0IDEuMTU2MTI5LTQuMjk0MTkzLjgyNTgwNy01Ljc4MDY0NS0uOTkwOTY4LS40OTU0ODQtLjQ5NTQ4My0uNjYwNjQ1LTEuMTU2MTI5LS44MjU4MDYtMS44MTY3NzRsLTEuNDg2NDUyLTI2LjkyMTI5MDFjMTEuMzk2MTI5IDEuMzIxMjkwMyAyMS44MDEyOTEgNi40NDEyOTAzIDI5LjcyOTAzMiAxNC4zNjkwMzIyem0tNDcuODk2Nzc0LTEzLjU0MzIyNThjMS44MTY3NzQtLjMzMDMyMjYgMy40NjgzODctLjY2MDY0NTEgNS4yODUxNjItLjk5MDk2NzdsLTEuNDg2NDUyIDI2LjQyNTgwNjRjLS4xNjUxNjEgMi4zMTIyNTgtMS45ODE5MzYgNC4yOTQxOTQtNC40NTkzNTUgNC4yOTQxOTQtLjY2MDY0NSAwLTEuNDg2NDUyLS4xNjUxNjItMS45ODE5MzUtLjQ5NTQ4NGwtMjEuOTY2NDUyLTE1LjY5MDMyMjljNi43NzE2MTI5LTYuNzcxNjEyOSAxNS4xOTQ4MzktMTEuMzk2MTI5IDI0LjYwOTAzMi0xMy41NDMyMjU4em0tMzIuNTM2NzczOSAyMy40NTI5MDM3IDE5LjY1NDE5MzkgMTcuNTA3MDk2YzEuODE2Nzc0IDEuNDg2NDUyIDEuOTgxOTM1IDQuMjk0MTk0LjQ5NTQ4MyA2LjExMDk2OC0uNDk1NDgzLjY2MDY0NS0xLjE1NjEyOSAxLjE1NjEyOS0xLjk4MTkzNSAxLjMyMTI5bC0yNS42IDcuNDMyMjU4Yy0uOTkwOTY3Ny0xMS4yMzA5NjcgMS40ODY0NTE2LTIyLjYyNzA5NiA3LjQzMjI1ODEtMzIuMzcxNjEyem0tNC40NTkzNTQ5IDQ0Ljc1ODcwOSAyNi4yNjA2NDQ4LTQuNDU5MzU1YzIuMTQ3MDk3LS4xNjUxNjEgNC4xMjkwMzMgMS4zMjEyOTEgNC42MjQ1MTcgMy40NjgzODcuMTY1MTYxLjk5MDk2OC4xNjUxNjEgMS44MTY3NzUtLjE2NTE2MiAyLjY0MjU4MWwtMTAuMDc0ODM4IDI0LjI3ODcxYy05LjI0OTAzMjctNS45NDU4MDctMTYuNjgxMjkwOC0xNS4wMjk2NzgtMjAuNjQ1MTYxOC0yNS45MzAzMjN6bTYwLjI4Mzg3MDggMzIuODY3MDk3Yy0zLjc5ODcwOS44MjU4MDYtNy41OTc0MTkgMS4zMjEyOS0xMS41NjEyOSAxLjMyMTI5LTUuNzgwNjQ1IDAtMTEuMzk2MTI5LS45OTA5NjctMTYuNjgxMjktMi42NDI1OGwxMy4wNDc3NDEtMjMuNjE4MDY1YzEuMzIxMjkxLTEuNDg2NDUxIDMuNDY4Mzg4LTIuMTQ3MDk3IDUuMjg1MTYyLTEuMTU2MTI5LjgyNTgwNi40OTU0ODQgMS40ODY0NTEgMS4xNTYxMjkgMS45ODE5MzUgMS44MTY3NzRsMTIuNzE3NDIgMjIuOTU3NDJjLTEuNDg2NDUyLjQ5NTQ4NC0zLjEzODA2NS44MjU4MDYtNC43ODk2NzggMS4zMjEyOXptMzIuMjA2NDUyLTIyLjk1NzQxOWMtNC4xMjkwMzIgNi42MDY0NTEtOS41NzkzNTUgMTEuODkxNjEzLTE1Ljg1NTQ4NCAxNi4wMjA2NDVsLTEwLjQwNTE2MS0yNC45MzkzNTVjLS40OTU0ODQtMS45ODE5MzYuMzMwMzIyLTQuMTI5MDMyIDIuMzEyMjU4LTUuMTIuNjYwNjQ1LS4zMzAzMjMgMS40ODY0NTEtLjQ5NTQ4NCAyLjMxMjI1OC0uNDk1NDg0bDI2LjQyNTgwNiA0LjQ1OTM1NWMtLjk5MDk2OCAzLjYzMzU0OC0yLjY0MjU4IDYuOTM2Nzc0LTQuNzg5Njc3IDEwLjA3NDgzOXoiLz48L2c+PC9zdmc+;rounded=0;" parent="1" vertex="1">
          <mxGeometry x="373.54" y="652" width="19" height="19" as="geometry" />
        </mxCell>
        <mxCell id="KqGQ3suDVY39VXcQCuIc-29" value="Kubernetes Cluster" style="text;html=1;align=left;verticalAlign=middle;whiteSpace=wrap;rounded=0;fontFamily=Open Sans;fontSize=8;" parent="1" vertex="1">
          <mxGeometry x="392.54" y="656.5" width="76.67" height="10" as="geometry" />
        </mxCell>
        <mxCell id="KqGQ3suDVY39VXcQCuIc-30" value="" style="aspect=fixed;sketch=0;html=1;dashed=0;whitespace=wrap;verticalLabelPosition=bottom;verticalAlign=top;fillColor=#2875E2;strokeColor=#ffffff;points=[[0.005,0.63,0],[0.1,0.2,0],[0.9,0.2,0],[0.5,0,0],[0.995,0.63,0],[0.72,0.99,0],[0.5,1,0],[0.28,0.99,0]];shape=mxgraph.kubernetes.icon2;kubernetesLabel=1;prIcon=ns" parent="1" vertex="1">
          <mxGeometry x="373.54" y="675" width="19.79" height="19" as="geometry" />
        </mxCell>
        <mxCell id="KqGQ3suDVY39VXcQCuIc-31" value="Namespace" style="text;html=1;align=left;verticalAlign=middle;whiteSpace=wrap;rounded=0;fontFamily=Open Sans;fontSize=8;" parent="1" vertex="1">
          <mxGeometry x="393.33000000000004" y="679.5" width="76.67" height="10" as="geometry" />
        </mxCell>
        <mxCell id="KqGQ3suDVY39VXcQCuIc-32" value="" style="aspect=fixed;sketch=0;html=1;dashed=0;whitespace=wrap;verticalLabelPosition=bottom;verticalAlign=top;fillColor=#2875E2;strokeColor=#ffffff;points=[[0.005,0.63,0],[0.1,0.2,0],[0.9,0.2,0],[0.5,0,0],[0.995,0.63,0],[0.72,0.99,0],[0.5,1,0],[0.28,0.99,0]];shape=mxgraph.kubernetes.icon2;kubernetesLabel=1;prIcon=ing" parent="1" vertex="1">
          <mxGeometry x="373.54" y="699" width="19.79" height="19" as="geometry" />
        </mxCell>
        <mxCell id="KqGQ3suDVY39VXcQCuIc-33" value="Ingress" style="text;html=1;align=left;verticalAlign=middle;whiteSpace=wrap;rounded=0;fontFamily=Open Sans;fontSize=8;" parent="1" vertex="1">
          <mxGeometry x="393.33000000000004" y="703.5" width="76.67" height="10" as="geometry" />
        </mxCell>
        <mxCell id="KqGQ3suDVY39VXcQCuIc-34" value="" style="aspect=fixed;sketch=0;html=1;dashed=0;whitespace=wrap;verticalLabelPosition=bottom;verticalAlign=top;fillColor=#2875E2;strokeColor=#ffffff;points=[[0.005,0.63,0],[0.1,0.2,0],[0.9,0.2,0],[0.5,0,0],[0.995,0.63,0],[0.72,0.99,0],[0.5,1,0],[0.28,0.99,0]];shape=mxgraph.kubernetes.icon2;kubernetesLabel=1;prIcon=pod" parent="1" vertex="1">
          <mxGeometry x="501" y="652" width="19.79" height="19" as="geometry" />
        </mxCell>
        <mxCell id="KqGQ3suDVY39VXcQCuIc-35" value="Pod" style="text;html=1;align=left;verticalAlign=middle;whiteSpace=wrap;rounded=0;fontFamily=Open Sans;fontSize=8;glass=0;shadow=0;" parent="1" vertex="1">
          <mxGeometry x="520.79" y="656.5" width="76.67" height="10" as="geometry" />
        </mxCell>
        <mxCell id="KqGQ3suDVY39VXcQCuIc-36" value="" style="aspect=fixed;sketch=0;html=1;dashed=0;whitespace=wrap;verticalLabelPosition=bottom;verticalAlign=top;fillColor=#2875E2;strokeColor=#ffffff;points=[[0.005,0.63,0],[0.1,0.2,0],[0.9,0.2,0],[0.5,0,0],[0.995,0.63,0],[0.72,0.99,0],[0.5,1,0],[0.28,0.99,0]];shape=mxgraph.kubernetes.icon2;kubernetesLabel=1;prIcon=rs" parent="1" vertex="1">
          <mxGeometry x="501" y="675" width="19.79" height="19" as="geometry" />
        </mxCell>
        <mxCell id="KqGQ3suDVY39VXcQCuIc-37" value="Replica Set" style="text;html=1;align=left;verticalAlign=middle;whiteSpace=wrap;rounded=0;fontFamily=Open Sans;fontSize=8;glass=0;shadow=0;" parent="1" vertex="1">
          <mxGeometry x="520.79" y="679.5" width="76.67" height="10" as="geometry" />
        </mxCell>
        <mxCell id="KqGQ3suDVY39VXcQCuIc-38" value="" style="aspect=fixed;sketch=0;html=1;dashed=0;whitespace=wrap;verticalLabelPosition=bottom;verticalAlign=top;fillColor=#2875E2;strokeColor=#ffffff;points=[[0.005,0.63,0],[0.1,0.2,0],[0.9,0.2,0],[0.5,0,0],[0.995,0.63,0],[0.72,0.99,0],[0.5,1,0],[0.28,0.99,0]];shape=mxgraph.kubernetes.icon2;kubernetesLabel=1;prIcon=deploy" parent="1" vertex="1">
          <mxGeometry x="501" y="699" width="19.79" height="19" as="geometry" />
        </mxCell>
        <mxCell id="KqGQ3suDVY39VXcQCuIc-39" value="Deployment" style="text;html=1;align=left;verticalAlign=middle;whiteSpace=wrap;rounded=0;fontFamily=Open Sans;fontSize=8;glass=0;shadow=0;" parent="1" vertex="1">
          <mxGeometry x="520.79" y="703.5" width="76.67" height="10" as="geometry" />
        </mxCell>
        <mxCell id="KqGQ3suDVY39VXcQCuIc-40" value="" style="aspect=fixed;sketch=0;html=1;dashed=0;whitespace=wrap;verticalLabelPosition=bottom;verticalAlign=top;fillColor=#2875E2;strokeColor=#ffffff;points=[[0.005,0.63,0],[0.1,0.2,0],[0.9,0.2,0],[0.5,0,0],[0.995,0.63,0],[0.72,0.99,0],[0.5,1,0],[0.28,0.99,0]];shape=mxgraph.kubernetes.icon2;kubernetesLabel=1;prIcon=secret" parent="1" vertex="1">
          <mxGeometry x="501" y="722" width="19.79" height="19" as="geometry" />
        </mxCell>
        <mxCell id="KqGQ3suDVY39VXcQCuIc-41" value="Secret" style="text;html=1;align=left;verticalAlign=middle;whiteSpace=wrap;rounded=0;fontFamily=Open Sans;fontSize=8;glass=0;shadow=0;" parent="1" vertex="1">
          <mxGeometry x="520.79" y="726.5" width="76.67" height="10" as="geometry" />
        </mxCell>
        <mxCell id="KqGQ3suDVY39VXcQCuIc-43" style="rounded=0;orthogonalLoop=1;jettySize=auto;html=1;strokeColor=#FFB570;exitX=1;exitY=0.75;exitDx=0;exitDy=0;" parent="1" edge="1">
          <mxGeometry relative="1" as="geometry">
            <mxPoint x="229" y="684.75" as="targetPoint" />
            <mxPoint x="205" y="684.25" as="sourcePoint" />
          </mxGeometry>
        </mxCell>
        <mxCell id="KqGQ3suDVY39VXcQCuIc-45" value="http data for pgweb" style="text;html=1;align=left;verticalAlign=middle;whiteSpace=wrap;rounded=0;fontFamily=Open Sans;fontSize=8;" parent="1" vertex="1">
          <mxGeometry x="233" y="679.5" width="84" height="10" as="geometry" />
        </mxCell>
        <mxCell id="KqGQ3suDVY39VXcQCuIc-47" style="html=1;fontSize=8;rounded=0;endSize=6;targetPerimeterSpacing=0;startSize=6;strokeColor=#3333FF;shadow=0;exitX=0.946;exitY=0.331;exitDx=0;exitDy=0;exitPerimeter=0;" parent="1" edge="1">
          <mxGeometry relative="1" as="geometry">
            <mxPoint x="205" y="661.4" as="sourcePoint" />
            <mxPoint x="229" y="661.4" as="targetPoint" />
          </mxGeometry>
        </mxCell>
        <mxCell id="KqGQ3suDVY39VXcQCuIc-49" value="http REST-API" style="text;html=1;align=left;verticalAlign=middle;whiteSpace=wrap;rounded=0;fontFamily=Open Sans;fontSize=8;" parent="1" vertex="1">
          <mxGeometry x="233" y="656.5" width="84" height="10" as="geometry" />
        </mxCell>
        <mxCell id="KqGQ3suDVY39VXcQCuIc-50" style="rounded=0;orthogonalLoop=1;jettySize=auto;html=1;exitX=0.5;exitY=1;exitDx=0;exitDy=0;strokeColor=#B5739D;" parent="1" edge="1">
          <mxGeometry relative="1" as="geometry">
            <mxPoint x="205" y="708.25" as="sourcePoint" />
            <mxPoint x="229" y="708.75" as="targetPoint" />
          </mxGeometry>
        </mxCell>
        <mxCell id="KqGQ3suDVY39VXcQCuIc-51" value="tcp Postgres messages" style="text;html=1;align=left;verticalAlign=middle;whiteSpace=wrap;rounded=0;fontFamily=Open Sans;fontSize=8;" parent="1" vertex="1">
          <mxGeometry x="233" y="703.5" width="92" height="10" as="geometry" />
        </mxCell>
      </root>
    </mxGraphModel>
  </diagram>
</mxfile>
